<svg width="438" height="192" viewBox="0 0 438 192" fill="none" xmlns="http://www.w3.org/2000/svg">
<path d="M200.596 112.979C202.32 116.411 205.616 118.127 210.484 118.127C215.352 118.127 218.622 116.44 220.296 113.066C222.02 109.692 222.882 104.05 222.882 96.1387C222.882 88.1694 221.994 82.3815 220.22 78.7749C218.495 75.1684 215.25 73.3651 210.484 73.3651C205.717 73.3651 202.446 75.1684 200.672 78.7749C198.897 82.3815 198.01 88.1403 198.01 96.0515C198.01 103.904 198.872 109.547 200.596 112.979ZM226.913 119.261C223.82 124.148 218.343 126.591 210.484 126.591C202.624 126.591 197.122 124.148 193.978 119.261C190.834 114.317 189.262 106.58 189.262 96.0515C189.262 85.5227 190.834 77.6988 193.978 72.5798C197.173 67.4609 202.675 64.9014 210.484 64.9014C218.293 64.9014 223.769 67.4609 226.913 72.5798C230.057 77.6406 231.629 85.4645 231.629 96.0515C231.629 106.638 230.057 114.375 226.913 119.261Z" fill="white"/>
<path d="M240.504 125.632V65.8625H256.085L273.996 117.081V65.8625H282.91V125.632H267.651L249.419 74.3263V125.632H240.504Z" fill="white"/>
<path d="M395.334 125.632V65.8625H437.727V74.3263H405.02V94.4823H433.102V102.946H405.02V125.632H395.334Z" fill="white"/>
<path fill-rule="evenodd" clip-rule="evenodd" d="M348.953 66.0474V125.632H358.638V102.692H372.47L381.207 125.63H391.367L388.013 116.93L368.555 66.0474H348.953ZM369.245 94.2285L369.238 94.2096L361.715 74.5111H358.638V94.2096V94.2285H369.245Z" fill="white"/>
<path d="M143.209 65.8625H157.882C163.99 65.8625 168.556 67.1132 171.581 69.6145C174.606 72.0577 176.118 75.9842 176.118 81.394C176.118 84.9424 175.537 87.7345 174.373 89.7705C173.349 91.5636 171.04 93.5794 171.04 93.5794C171.04 93.5794 174.912 93.8549 177.064 94.8313C182.765 97.0417 185.615 101.666 185.615 108.705C185.615 119.99 179.274 125.632 166.593 125.632H143.209V65.8625ZM165.895 99.5431H152.894V117.256H166.07C169.269 117.256 171.654 116.587 173.225 115.249C174.854 113.911 175.668 111.613 175.668 108.356C175.668 105.098 174.737 102.83 172.876 101.55C171.014 100.212 168.688 99.5431 165.895 99.5431ZM157.359 74.239H152.894V91.3411H157.708C163.408 91.3411 166.259 88.4035 166.259 82.5283C166.259 77.0021 163.292 74.239 157.359 74.239Z" fill="white"/>
<path d="M312.457 125.632H292.262V65.8627C321.03 65.5632 336.188 89.1765 334.547 107.079C334.12 110.32 333.377 113.568 331.11 117.077C326.957 123.036 321.83 125.632 312.457 125.632ZM301.72 76.9975V117.081H312.457C318.081 117.081 322.66 114.476 324.372 110.696C325.741 107.673 325.741 105.202 325.741 103.795C325.587 91.3436 313.387 76.8752 301.72 76.9975Z" fill="white"/>
<path d="M337.734 65.936L337.734 75.2593L338.651 85.6358" stroke="white" stroke-width="8.15162"/>
<path opacity="0.8" d="M144.144 136.762V134.584H155.144V136.762H150.898V149.654H148.434V136.762H144.144ZM172.51 149.654V143.142H165.998V149.654H163.556V134.584H165.998V141.008H172.51V134.584H174.974V149.654H172.51ZM184.804 149.654V134.584H187.246V149.654H184.804ZM201.514 136.476C199.651 136.476 198.72 137.128 198.72 138.434C198.72 139.108 198.94 139.592 199.38 139.886C199.82 140.164 200.788 140.516 202.284 140.942C203.794 141.352 204.858 141.851 205.474 142.438C206.09 143.01 206.398 143.919 206.398 145.166C206.398 146.75 205.943 147.938 205.034 148.73C204.139 149.507 202.914 149.896 201.36 149.896C200.113 149.896 198.734 149.749 197.224 149.456L196.432 149.302L196.674 147.344C198.654 147.608 200.164 147.74 201.206 147.74C203.024 147.74 203.934 146.933 203.934 145.32C203.934 144.689 203.728 144.227 203.318 143.934C202.907 143.626 201.983 143.296 200.546 142.944C199.108 142.577 198.038 142.078 197.334 141.448C196.63 140.817 196.278 139.82 196.278 138.456C196.278 137.092 196.718 136.065 197.598 135.376C198.492 134.672 199.724 134.32 201.294 134.32C202.423 134.32 203.758 134.452 205.298 134.716L206.068 134.848L205.87 136.828C203.816 136.593 202.364 136.476 201.514 136.476ZM237.845 149.654V134.584H240.287V149.654H237.845ZM254.555 136.476C252.693 136.476 251.761 137.128 251.761 138.434C251.761 139.108 251.981 139.592 252.421 139.886C252.861 140.164 253.829 140.516 255.325 140.942C256.836 141.352 257.899 141.851 258.515 142.438C259.131 143.01 259.439 143.919 259.439 145.166C259.439 146.75 258.985 147.938 258.075 148.73C257.181 149.507 255.956 149.896 254.401 149.896C253.155 149.896 251.776 149.749 250.265 149.456L249.473 149.302L249.715 147.344C251.695 147.608 253.206 147.74 254.247 147.74C256.066 147.74 256.975 146.933 256.975 145.32C256.975 144.689 256.77 144.227 256.359 143.934C255.949 143.626 255.025 143.296 253.587 142.944C252.15 142.577 251.079 142.078 250.375 141.448C249.671 140.817 249.319 139.82 249.319 138.456C249.319 137.092 249.759 136.065 250.639 135.376C251.534 134.672 252.766 134.32 254.335 134.32C255.465 134.32 256.799 134.452 258.339 134.716L259.109 134.848L258.911 136.828C256.858 136.593 255.406 136.476 254.555 136.476ZM289.435 136.762V134.584H300.435V136.762H296.189V149.654H293.725V136.762H289.435ZM317.801 149.654V143.142H311.289V149.654H308.847V134.584H311.289V141.008H317.801V134.584H320.265V149.654H317.801ZM330.094 149.654V134.584H339.598V136.718H332.536V140.986H338.278V143.098H332.536V147.498H339.598V149.654H330.094ZM371.062 134.584H376.782C378.322 134.584 379.473 134.899 380.236 135.53C380.999 136.146 381.38 137.136 381.38 138.5C381.38 139.394 381.233 140.098 380.94 140.612C380.661 141.125 380.214 141.55 379.598 141.888C381.035 142.445 381.754 143.611 381.754 145.386C381.754 148.231 380.155 149.654 376.958 149.654H371.062V134.584ZM376.782 143.076H373.504V147.542H376.826C377.633 147.542 378.234 147.373 378.63 147.036C379.041 146.698 379.246 146.119 379.246 145.298C379.246 144.476 379.011 143.904 378.542 143.582C378.073 143.244 377.486 143.076 376.782 143.076ZM376.65 136.696H373.504V141.008H376.738C378.175 141.008 378.894 140.267 378.894 138.786C378.894 137.392 378.146 136.696 376.65 136.696ZM390.913 149.654V134.584H400.417V136.718H393.355V140.986H399.097V143.098H393.355V147.498H400.417V149.654H390.913ZM413.875 136.476C412.012 136.476 411.081 137.128 411.081 138.434C411.081 139.108 411.301 139.592 411.741 139.886C412.181 140.164 413.149 140.516 414.645 140.942C416.155 141.352 417.219 141.851 417.835 142.438C418.451 143.01 418.759 143.919 418.759 145.166C418.759 146.75 418.304 147.938 417.395 148.73C416.5 149.507 415.275 149.896 413.721 149.896C412.474 149.896 411.095 149.749 409.585 149.456L408.793 149.302L409.035 147.344C411.015 147.608 412.525 147.74 413.567 147.74C415.385 147.74 416.295 146.933 416.295 145.32C416.295 144.689 416.089 144.227 415.679 143.934C415.268 143.626 414.344 143.296 412.907 142.944C411.469 142.577 410.399 142.078 409.695 141.448C408.991 140.817 408.639 139.82 408.639 138.456C408.639 137.092 409.079 136.065 409.959 135.376C410.853 134.672 412.085 134.32 413.655 134.32C414.784 134.32 416.119 134.452 417.659 134.716L418.429 134.848L418.231 136.828C416.177 136.593 414.725 136.476 413.875 136.476ZM426.326 136.762V134.584H437.326V136.762H433.08V149.654H430.616V136.762H426.326Z" fill="white"/>
<path d="M84.8592 94.0708L104.102 89.2633L117.095 76.8889L123.371 59.5563L120.057 38.685L107.494 16.1736L90.1571 7.75565L69.5921 2.40381L49.6419 7.75569L25.1034 23.7768L16.5415 53.3754L23.6525 78.825L39.4743 91.2157L59.4084 94.0708" stroke="white" stroke-width="4.13535"/>
<path d="M59.8486 126.111L66.4851 91.1037L55.1722 66.4365L48.4496 73.7294L50.3859 82.9527L46.6872 74.8018L36.0485 72.4209L46.6872 72.4209L53.8884 65.128L44.7293 50.7567L40.6174 58.7145L31.915 57.4061L39.0945 55.9046L43.228 49.2552L44.7292 46.9172L46.6873 41.1043L44.7292 29.3284L48.4495 39.6243L55.172 42.1982H48.4496L46.6873 46.9172L71.2716 82.9527L93.9196 50.7566L89.9819 41.1043L83.6946 42.1982L91.7225 38.3373L95.2032 32.5459L93.9196 42.1982L98.0532 50.7567L91.7223 61.696L98.0531 64.0771L106.538 60.2161L99.9895 65.1281L103.035 70.9195L98.0532 66.4364L89.9819 63.1976L75.4052 91.1037L81.4018 126.111C81.4018 126.111 79.9501 134.046 70.6252 134.046C61.3003 134.046 59.8486 126.111 59.8486 126.111Z" fill="#008A00" stroke="#008A00" stroke-width="1.50387"/>
<path d="M31.4202 61.8111C34.5577 61.8111 37.1011 59.1917 37.1011 55.9604C37.1011 52.7291 34.5577 50.1096 31.4202 50.1096C28.2827 50.1096 25.7393 52.7291 25.7393 55.9604C25.7393 59.1917 28.2827 61.8111 31.4202 61.8111Z" fill="#FA6800"/>
<path d="M31.4204 61.0585C34.1426 61.0585 36.3494 58.7757 36.3494 55.9597C36.3494 53.1437 34.1426 50.8608 31.4204 50.8608C28.6982 50.8608 26.4915 53.1437 26.4915 55.9597C26.4915 58.7757 28.6982 61.0585 31.4204 61.0585Z" stroke="#FA6800" stroke-width="1.50387"/>
<path d="M44.6758 32.912C47.8133 32.912 50.3567 30.2925 50.3567 27.0612C50.3567 23.8299 47.8133 21.2104 44.6758 21.2104C41.5383 21.2104 38.9949 23.8299 38.9949 27.0612C38.9949 30.2925 41.5383 32.912 44.6758 32.912Z" fill="#FFFF00"/>
<path d="M44.6756 32.1603C47.3977 32.1603 49.6045 29.8775 49.6045 27.0615C49.6045 24.2455 47.3977 21.9626 44.6756 21.9626C41.9534 21.9626 39.7466 24.2455 39.7466 27.0615C39.7466 29.8775 41.9534 32.1603 44.6756 32.1603Z" stroke="#FFFF00" stroke-width="1.50387"/>
<path d="M59.4783 46.8744C62.6158 46.8744 65.1592 44.2549 65.1592 41.0236C65.1592 37.7923 62.6158 35.1729 59.4783 35.1729C56.3408 35.1729 53.7974 37.7923 53.7974 41.0236C53.7974 44.2549 56.3408 46.8744 59.4783 46.8744Z" fill="#E51400"/>
<path d="M59.4785 46.122C62.2007 46.122 64.4075 43.8392 64.4075 41.0232C64.4075 38.2071 62.2007 35.9243 59.4785 35.9243C56.7563 35.9243 54.5496 38.2071 54.5496 41.0232C54.5496 43.8392 56.7563 46.122 59.4785 46.122Z" stroke="#E51400" stroke-width="1.50387"/>
<path d="M104.926 79.8761C108.063 79.8761 110.606 77.2566 110.606 74.0253C110.606 70.794 108.063 68.1746 104.926 68.1746C101.788 68.1746 99.2446 70.794 99.2446 74.0253C99.2446 77.2566 101.788 79.8761 104.926 79.8761Z" fill="#6A00FF"/>
<path d="M104.926 79.1235C107.648 79.1235 109.855 76.8406 109.855 74.0246C109.855 71.2086 107.648 68.9258 104.926 68.9258C102.204 68.9258 99.9968 71.2086 99.9968 74.0246C99.9968 76.8406 102.204 79.1235 104.926 79.1235Z" stroke="#6A00FF" stroke-width="1.50387"/>
<path d="M107.033 63.546C110.17 63.546 112.714 60.9265 112.714 57.6952C112.714 54.464 110.17 51.8445 107.033 51.8445C103.895 51.8445 101.352 54.464 101.352 57.6952C101.352 60.9265 103.895 63.546 107.033 63.546Z" fill="#80FF00"/>
<path d="M107.033 62.7943C109.755 62.7943 111.962 60.5115 111.962 57.6955C111.962 54.8795 109.755 52.5967 107.033 52.5967C104.311 52.5967 102.104 54.8795 102.104 57.6955C102.104 60.5115 104.311 62.7943 107.033 62.7943Z" stroke="#80FF00" stroke-width="1.50387"/>
<path d="M38.9946 77.1673C42.1321 77.1673 44.6756 74.5479 44.6756 71.3166C44.6756 68.0853 42.1321 65.4658 38.9946 65.4658C35.8572 65.4658 33.3137 68.0853 33.3137 71.3166C33.3137 74.5479 35.8572 77.1673 38.9946 77.1673Z" fill="#66FFB3"/>
<path d="M38.9946 76.415C41.7168 76.415 43.9236 74.1321 43.9236 71.3161C43.9236 68.5001 41.7168 66.2173 38.9946 66.2173C36.2724 66.2173 34.0657 68.5001 34.0657 71.3161C34.0657 74.1321 36.2724 76.415 38.9946 76.415Z" stroke="#66FFB3" stroke-width="1.50387"/>
<path d="M50.3567 88.869C53.4942 88.869 56.0376 86.2495 56.0376 83.0182C56.0376 79.787 53.4942 77.1675 50.3567 77.1675C47.2192 77.1675 44.6758 79.787 44.6758 83.0182C44.6758 86.2495 47.2192 88.869 50.3567 88.869Z" fill="#F2DBC2"/>
<path d="M50.3567 88.1171C53.0789 88.1171 55.2857 85.8343 55.2857 83.0183C55.2857 80.2023 53.0789 77.9194 50.3567 77.9194C47.6345 77.9194 45.4277 80.2023 45.4277 83.0183C45.4277 85.8343 47.6345 88.1171 50.3567 88.1171Z" stroke="#F2DBC2" stroke-width="1.50387"/>
<path d="M82.6287 46.8744C85.7662 46.8744 88.3096 44.2549 88.3096 41.0236C88.3096 37.7923 85.7662 35.1729 82.6287 35.1729C79.4912 35.1729 76.9478 37.7923 76.9478 41.0236C76.9478 44.2549 79.4912 46.8744 82.6287 46.8744Z" fill="black"/>
<path d="M82.6287 46.122C85.3509 46.122 87.5576 43.8392 87.5576 41.0232C87.5576 38.2071 85.3509 35.9243 82.6287 35.9243C79.9065 35.9243 77.6997 38.2071 77.6997 41.0232C77.6997 43.8392 79.9065 46.122 82.6287 46.122Z" stroke="black" stroke-width="1.50387"/>
<path d="M95.6707 35.1729C98.8082 35.1729 101.352 32.5535 101.352 29.3222C101.352 26.0909 98.8082 23.4714 95.6707 23.4714C92.5332 23.4714 89.9897 26.0909 89.9897 29.3222C89.9897 32.5535 92.5332 35.1729 95.6707 35.1729Z" fill="#F0A30A"/>
<path d="M95.6704 34.4213C98.3926 34.4213 100.599 32.1385 100.599 29.3225C100.599 26.5065 98.3926 24.2236 95.6704 24.2236C92.9482 24.2236 90.7415 26.5065 90.7415 29.3225C90.7415 32.1385 92.9482 34.4213 95.6704 34.4213Z" stroke="#F0A30A" stroke-width="1.50387"/>
<path d="M70.301 191.596L65.821 134.735L31.0151 169.141L62.7195 132.323L3.10151 158.858L60.3072 129.221L0 134.166L64.7088 125.086H70.301V191.596Z" fill="#008A00"/>
<path d="M70.3011 191.596L74.7811 134.735L109.587 169.141L77.8826 132.323L137.501 158.858L80.2949 129.221L140.602 134.166L75.8933 125.086H70.3011V191.596Z" fill="#008A00"/>
</svg>
