<svg xmlns="http://www.w3.org/2000/svg" xmlns:xlink="http://www.w3.org/1999/xlink" width="663" height="568.578" viewBox="0 0 663 568.578">
  <defs>
    <linearGradient id="linear-gradient" x1="0.14" y1="0.145" x2="0.949" y2="1.086" gradientUnits="objectBoundingBox">
      <stop offset="0" stop-color="#aad7f8"/>
      <stop offset="1" stop-color="#6cbbfb"/>
    </linearGradient>
    <filter id="Path_545" x="120.858" y="98" width="473.049" height="470.578" filterUnits="userSpaceOnUse">
      <feOffset dy="3" input="SourceAlpha"/>
      <feGaussianBlur stdDeviation="3" result="blur"/>
      <feFlood flood-opacity="0.161"/>
      <feComposite operator="in" in2="blur"/>
      <feComposite in="SourceGraphic"/>
    </filter>
    <linearGradient id="linear-gradient-2" x1="0.665" y1="0.634" x2="1.076" y2="1.016" gradientUnits="objectBoundingBox">
      <stop offset="0" stop-color="#013b26"/>
      <stop offset="1" stop-color="#1b5f94"/>
    </linearGradient>
    <filter id="Path_590" x="133.858" y="60" width="473.049" height="470.578" filterUnits="userSpaceOnUse">
      <feOffset dx="5" dy="5" input="SourceAlpha"/>
      <feGaussianBlur stdDeviation="3" result="blur-2"/>
      <feFlood flood-opacity="0.161"/>
      <feComposite operator="in" in2="blur-2"/>
      <feComposite in="SourceGraphic"/>
    </filter>
    <linearGradient id="linear-gradient-3" x1="0.449" y1="0.459" x2="0.884" y2="0.812" gradientUnits="objectBoundingBox">
      <stop offset="0" stop-color="#086487"/>
      <stop offset="0.815" stop-color="#064314"/>
      <stop offset="1" stop-color="#015cf9"/>
    </linearGradient>
    <linearGradient id="linear-gradient-4" x1="0.371" y1="0.095" x2="0.716" y2="1.127" gradientUnits="objectBoundingBox">
      <stop offset="0" stop-color="#4beef9"/>
      <stop offset="0.368" stop-color="#0c6f9b"/>
      <stop offset="0.678" stop-color="#124600"/>
      <stop offset="1" stop-color="#01340a"/>
    </linearGradient>
    <linearGradient id="linear-gradient-5" x1="0.5" x2="0.5" y2="1" gradientUnits="objectBoundingBox">
      <stop offset="0" stop-color="#b4d4fd"/>
      <stop offset="0.619" stop-color="#ffce85"/>
      <stop offset="1" stop-color="#d9ef8d"/>
    </linearGradient>
    <linearGradient id="linear-gradient-36" x1="0.288" y1="0.527" x2="0.686" y2="1.328" gradientUnits="objectBoundingBox">
      <stop offset="0" stop-color="#effeff"/>
      <stop offset="1" stop-color="#75f3fb"/>
    </linearGradient>
    <linearGradient id="linear-gradient-37" x1="0.5" x2="0.5" y2="1.11" gradientUnits="objectBoundingBox">
      <stop offset="0" stop-color="#79f4fe"/>
      <stop offset="0.29" stop-color="#f9f9f9"/>
      <stop offset="0.668" stop-color="#e4eff0"/>
      <stop offset="1" stop-color="#4fd8e3"/>
    </linearGradient>
  </defs>
  <g id="Embedded" transform="translate(3378 18077.271)">
    <g id="Group_272" data-name="Group 272">
      <g id="Group_265" data-name="Group 265">
        <path id="Path_546" data-name="Path 546" d="M102,0,3.946,56.5H-67.466" transform="translate(-3301.5 -17740.5)" fill="none" stroke="#5983fc" stroke-linecap="round" stroke-width="3"/>
        <line id="Line_85" data-name="Line 85" x1="44" y2="27" transform="translate(-3160.5 -17689.5)" fill="none" stroke="#5983fc" stroke-linecap="round" stroke-width="3"/>
        <path id="Path_547" data-name="Path 547" d="M83.4,18.3,49.217-.967,0,0" transform="translate(-3311.5 -17883.5)" fill="none" stroke="#5983fc" stroke-linecap="round" stroke-width="3"/>
        <line id="Line_86" data-name="Line 86" x1="80" y1="48" transform="translate(-3275.5 -17932.5)" fill="none" stroke="#5983fc" stroke-linecap="round" stroke-width="3"/>
        <path id="Path_548" data-name="Path 548" d="M29.609,72.053,1.258,54.68V.777" transform="translate(-3202.5 -17968.5)" fill="none" stroke="#5983fc" stroke-linecap="round" stroke-linejoin="round" stroke-width="3"/>
        <path id="Path_549" data-name="Path 549" d="M21.787,68.283,0,55.742V0" transform="translate(-3121.5 -18006.5)" fill="none" stroke="#5983fc" stroke-linecap="round" stroke-linejoin="round" stroke-width="3"/>
        <path id="Path_550" data-name="Path 550" d="M0,12,21.047,0H92" transform="translate(-2828.5 -17887.5)" fill="none" stroke="#5983fc" stroke-width="3"/>
        <path id="Path_551" data-name="Path 551" d="M0,17,28.84,0H98" transform="translate(-2848.5 -17904.5)" fill="none" stroke="#5983fc" stroke-width="3"/>
        <line id="Line_87" data-name="Line 87" y1="22" x2="37" transform="translate(-2897.5 -17936.5)" fill="none" stroke="#5983fc" stroke-linecap="round" stroke-width="3"/>
        <path id="Path_552" data-name="Path 552" d="M0,0,78.884,44.885h48.732" transform="translate(-2848.5 -17746.5)" fill="none" stroke="#5983fc" stroke-linejoin="round" stroke-width="3"/>
        <line id="Line_88" data-name="Line 88" x2="99" y2="57" transform="translate(-2870.5 -17720.5)" fill="none" stroke="#5983fc" stroke-linecap="round" stroke-width="3"/>
        <path id="Path_553" data-name="Path 553" d="M0,0,63.106,37.43v8.629" transform="translate(-2893.5 -17709.5)" fill="none" stroke="#5983fc" stroke-linecap="round" stroke-linejoin="round" stroke-width="3"/>
        <path id="Path_558" data-name="Path 558" d="M0,65.061,29.594,48.537V21.488L95.115-16.984" transform="translate(-2998.5 -18037.5)" fill="none" stroke="#5983fc" stroke-linecap="round" stroke-linejoin="round" stroke-width="3"/>
        <line id="Line_89" data-name="Line 89" y1="41" x2="72" transform="translate(-2960.5 -17992.5)" fill="none" stroke="#5983fc" stroke-linecap="round" stroke-width="3"/>
      </g>
      <g transform="matrix(1, 0, 0, 1, -3378, -18077.27)" filter="url(#Path_545)">
        <g id="Path_545-2" data-name="Path 545" transform="translate(359.96 145.38) rotate(48)" fill="url(#linear-gradient)">
          <path d="M 0.6686826348304749 289.6484069824219 C -3.638248205184937 289.5547485351563 -6.785408973693848 288.6836853027344 -8.693201065063477 287.0555114746094 C -10.5906925201416 285.4360961914063 -11.55454063415527 282.7603454589844 -11.63311386108398 278.8856811523438 L 38.26210021972656 53.63050079345703 L 38.38039779663086 53.09635162353516 L 38.38039779663086 52.63065719604492 C 38.41088485717773 52.47126007080078 38.49083709716797 52.12703704833984 38.56845092773438 51.79275131225586 C 38.86244583129883 50.52661895751953 39.39937591552734 48.21409606933594 40.27988052368164 43.39276885986328 C 40.64263916015625 42.5460090637207 40.90238571166992 41.70146179199219 41.15549850463867 40.87845230102539 C 41.55075073242188 39.59330368041992 41.92404937744141 38.37945175170898 42.54774856567383 37.75235366821289 C 43.44879913330078 36.84640121459961 45.47724914550781 36.65625381469727 47.02024841308594 36.65625381469727 L 47.82839965820313 36.65625381469727 L 48.5953483581543 36.40165328979492 L 273.8095092773438 -38.35185241699219 C 275.5168151855469 -38.28083038330078 276.9536437988281 -37.96588516235352 278.0885009765625 -37.41294860839844 C 279.1582946777344 -36.89169692993164 280.0109558105469 -36.1307487487793 280.6951904296875 -35.08659744262695 C 282.1786499023438 -32.8226432800293 282.9552612304688 -29.13185691833496 283.00537109375 -24.11182594299316 L 235.4430541992188 195.3126525878906 L 235.3295440673828 195.8361511230469 L 235.3295440673828 196.3718566894531 C 235.3295440673828 200.7127075195313 232.9597930908203 206.1269073486328 229.1450500488281 210.5016021728516 C 225.3209991455078 214.8869476318359 220.7056427001953 217.5050964355469 216.7990417480469 217.5050964355469 L 215.9837036132813 217.5050964355469 L 215.2105560302734 217.7641448974609 L 0.6686826348304749 289.6484069824219 Z" stroke="none"/>
          <path d="M 274.4887084960938 -33.30903625488281 L 50.17042541503906 41.14706420898438 L 48.63648986816406 41.65621948242188 L 47.02021789550781 41.65621948242188 C 46.65835571289063 41.65621948242188 46.36207580566406 41.67036437988281 46.12413024902344 41.69029235839844 C 46.05831909179688 41.91372680664063 45.99993896484375 42.13565063476563 45.93458557128906 42.34817504882813 C 45.67448425292969 43.19392395019531 45.40516662597656 44.00518798828125 45.11195373535156 44.76309204101563 C 44.31352233886719 49.09844970703125 43.79783630371094 51.37493896484375 43.38037109375 53.18658447265625 L 43.38037109375 53.64349365234375 L 43.14375305175781 54.71185302734375 L -6.632659912109375 279.4306945800781 C -6.57867431640625 282.6507873535156 -6.013214111328125 284.3862915039063 -0.084625244140625 284.6276245117188 L 213.6220703125 213.0231781005859 L 215.1683349609375 212.5050659179688 L 216.7990570068359 212.5050659179688 C 222.3630065917969 212.5050659179688 230.3295288085938 203.0060729980469 230.3295288085938 196.3717956542969 L 230.3295288085938 195.3004455566406 L 230.5564880371094 194.2533874511719 L 277.9992980957031 -24.61967468261719 C 277.8760070800781 -31.72041320800781 276.4496154785156 -33.05751037597656 274.4887084960938 -33.30903625488281 M 273.0481567382813 -43.36735534667969 C 284.6461181640625 -43.36735534667969 288.0079650878906 -35.18620300292969 288.0079650878906 -23.58818054199219 L 240.3295288085938 196.3717956542969 C 240.3295288085938 207.9698028564453 228.3970031738281 222.5050659179688 216.7990570068359 222.5050659179688 L 1.45880126953125 294.6568603515625 C -10.13916015625 294.6568603515625 -16.63836669921875 289.9600830078125 -16.63836669921875 278.362060546875 L 33.38037109375 52.54922485351563 C 33.38037109375 51.35459899902344 33.83390808105469 50.953857421875 35.47406005859375 41.87297058105469 C 37.23379516601563 38.42996215820313 36.61680603027344 31.65621948242188 47.02021789550781 31.65621948242188 L 273.0481567382813 -43.36735534667969 Z" stroke="none" fill="#bcfafd"/>
        </g>
      </g>
      <g transform="matrix(1, 0, 0, 1, -3378, -18077.27)" filter="url(#Path_590)">
        <path id="Path_590-2" data-name="Path 590" d="M47.02,31.656,273.048-43.367c11.6,0,14.96,8.181,14.96,19.779L240.33,196.372c0,11.6-11.933,26.133-23.53,26.133L1.459,294.657c-11.6,0-18.1-4.7-18.1-16.295L33.38,52.549h0c0-1.195.454-1.6,2.094-10.676C37.234,38.43,36.617,31.656,47.02,31.656Z" transform="translate(367.96 105.38) rotate(48)" fill="url(#linear-gradient-2)"/>
      </g>
      <g id="Path_543" data-name="Path 543" transform="translate(-3018.036 -18035.889) rotate(48)" fill="url(#linear-gradient-3)">
        <path d="M 1.296780943870544 293.6565551757813 C -1.480512142181396 293.6455383300781 -3.932856798171997 293.3501586914063 -5.994382858276367 292.7781982421875 C -8.113201141357422 292.1903381347656 -9.894837379455566 291.2886657714844 -11.28983688354492 290.0981140136719 C -12.70833683013916 288.8874816894531 -13.79088306427002 287.3218078613281 -14.50733757019043 285.4445190429688 C -15.24789714813232 283.5042114257813 -15.62818908691406 281.1583557128906 -15.63813209533691 278.4705505371094 L 34.35670852661133 52.76548004150391 L 34.38039016723633 52.65861511230469 L 34.38039016723633 52.5492057800293 C 34.38039016723633 52.16034317016602 34.44089126586914 51.88379669189453 34.67207336425781 50.88806915283203 C 34.9681282043457 49.61322402954102 35.5167350769043 47.25060272216797 36.43283081054688 42.19099426269531 C 36.798583984375 41.43781280517578 37.05821228027344 40.59352493286133 37.33220672607422 39.70261764526367 C 37.85284423828125 38.0097541809082 38.39120864868164 36.25925064086914 39.71161651611328 34.93161773681641 C 41.23443603515625 33.4005241394043 43.62507247924805 32.65625381469727 47.02020645141602 32.65625381469727 L 47.18184280395508 32.65625381469727 L 47.33520889282227 32.60534286499023 L 273.2081604003906 -42.36679458618164 C 278.2760314941406 -42.33260345458984 281.8205261230469 -40.6673583984375 284.0408935546875 -37.2789306640625 C 286.0258483886719 -34.24968719482422 286.9967041015625 -29.80527877807617 287.0078735351563 -23.6949291229248 L 239.3522033691406 196.1600189208984 L 239.3295288085938 196.2647094726563 L 239.3295288085938 196.3718414306641 C 239.3295288085938 199.0261688232422 238.6507568359375 201.9923400878906 237.3666229248047 204.9497528076172 C 236.1163482666016 207.8291168212891 234.3158416748047 210.6579742431641 232.1598510742188 213.1304779052734 C 229.9666595458984 215.6455688476563 227.448974609375 217.7377471923828 224.8789825439453 219.1807556152344 C 222.1322021484375 220.7230682373047 219.4137115478516 221.5050659179688 216.7990264892578 221.5050659179688 L 216.6359405517578 221.5050659179688 L 216.4813385009766 221.556884765625 L 1.296780943870544 293.6565551757813 Z" stroke="none"/>
        <path d="M 273.3645935058594 -41.36509704589844 L 47.65025329589844 33.55442810058594 L 47.34347534179688 33.65625 L 47.02020263671875 33.65625 C 43.90484619140625 33.65625 41.74612426757813 34.30412292480469 40.42062377929688 35.63679504394531 C 39.27438354492188 36.78929138183594 38.77293395996094 38.4197998046875 38.28797912597656 39.99656677246094 C 38.02874755859375 40.83946228027344 37.76162719726563 41.7080078125 37.39309692382813 42.49974060058594 C 36.48690795898438 47.49336242675781 35.94154357910156 49.84213256835938 35.64616394042969 51.1142578125 C 35.4205322265625 52.08589172363281 35.38038635253906 52.28034973144531 35.38038635253906 52.54920959472656 L 35.38038635253906 52.76806640625 L 35.33306884765625 52.98175048828125 L -14.63760375976563 278.5774230957031 C -14.60107421875 283.5530395507813 -13.29266357421875 287.0741271972656 -10.64068603515625 289.3374328613281 C -9.35748291015625 290.4325561523438 -7.70428466796875 291.2659912109375 -5.72705078125 291.8145751953125 C -3.79150390625 292.3515319824219 -1.4837646484375 292.6342163085938 1.136627197265625 292.6555480957031 L 216.1636199951172 220.6087036132813 L 216.4728851318359 220.5050659179688 L 216.7990264892578 220.5050659179688 C 219.2401580810547 220.5050659179688 221.7939300537109 219.7661590576172 224.3893890380859 218.3088073730469 C 226.86083984375 216.9211120605469 229.2872009277344 214.9031982421875 231.4061126708984 212.4732513427734 C 233.4955291748047 210.0771636962891 235.2394409179688 207.3378448486328 236.4493408203125 204.5514831542969 C 237.6793518066406 201.7187042236328 238.3295288085938 198.8902587890625 238.3295288085938 196.3718414306641 L 238.3295288085938 196.1575622558594 L 238.3749389648438 195.9481658935547 L 286.0075988769531 -23.80058288574219 C 285.9860229492188 -29.65516662597656 285.0684814453125 -33.88618469238281 283.2044677734375 -36.73088073730469 C 282.2156066894531 -38.23994445800781 280.9719848632813 -39.34519958496094 279.4025268554688 -40.10993957519531 C 277.7624816894531 -40.90895080566406 275.7326049804688 -41.33079528808594 273.3645935058594 -41.36509704589844 M 273.0481567382813 -43.36738586425781 C 284.6461181640625 -43.36738586425781 288.0079956054688 -35.18620300292969 288.0079956054688 -23.58821105957031 L 240.3295288085938 196.3718414306641 C 240.3295288085938 207.9698028564453 228.3970336914063 222.5050659179688 216.7990264892578 222.5050659179688 L 1.458831787109375 294.6568603515625 C -10.13916015625 294.6568603515625 -16.63839721679688 289.9600830078125 -16.63839721679688 278.362060546875 L 33.38038635253906 52.54920959472656 C 33.38038635253906 51.3546142578125 33.83389282226563 50.95388793945313 35.47407531738281 41.87294006347656 C 37.23374938964844 38.42997741699219 36.61680603027344 31.65625 47.02020263671875 31.65625 L 273.0481567382813 -43.36738586425781 Z" stroke="none" fill="#0e729e"/>
      </g>
      <path id="Path_544" data-name="Path 544" d="M-4.594-9.276-7.147-13.7l5.2,3.561L2.3-8.234l238.95-2.79,1.793-.514,2.221-1.282,2.417-1.4,1.437-.83.95-1.07,122.6-205.454L373.1-238.5l7.289,9.885,1.557,2.7,1.329,3.547.176,4.788L258.613.695,255.642,4.3l-5.8,1.452-3.7-.391L16.067,3.6,11.308,1.924,7.871-.2,3.55-2.76Z" transform="translate(-3240.999 -17833.355) rotate(30)" fill="url(#linear-gradient-4)"/>
      <g id="Group_271" data-name="Group 271">
        <g id="Ellipse_425" data-name="Ellipse 425" transform="translate(-3315 -17785)" fill="#92ccf9" stroke="#bcfafd" stroke-width="2">
          <ellipse cx="7" cy="5" rx="7" ry="5" stroke="none"/>
          <ellipse cx="7" cy="5" rx="6" ry="4" fill="none"/>
        </g>
        <g id="Ellipse_426" data-name="Ellipse 426" transform="translate(-3284 -17802)" fill="#92ccf9" stroke="#bcfafd" stroke-width="2">
          <ellipse cx="7" cy="4.5" rx="7" ry="4.5" stroke="none"/>
          <ellipse cx="7" cy="4.5" rx="6" ry="3.5" fill="none"/>
        </g>
        <g id="Ellipse_427" data-name="Ellipse 427" transform="translate(-3252 -17819)" fill="#92ccf9" stroke="#bcfafd" stroke-width="2">
          <ellipse cx="6.5" cy="4.5" rx="6.5" ry="4.5" stroke="none"/>
          <ellipse cx="6.5" cy="4.5" rx="5.5" ry="3.5" fill="none"/>
        </g>
        <g id="Ellipse_428" data-name="Ellipse 428" transform="translate(-2817 -17676)" fill="#92ccf9" stroke="#bcfafd" stroke-width="2">
          <ellipse cx="6" cy="4.5" rx="6" ry="4.5" stroke="none"/>
          <ellipse cx="6" cy="4.5" rx="5" ry="3.5" fill="none"/>
        </g>
        <g id="Ellipse_429" data-name="Ellipse 429" transform="translate(-2786 -17694)" fill="#92ccf9" stroke="#bcfafd" stroke-width="2">
          <ellipse cx="5.5" cy="4.5" rx="5.5" ry="4.5" stroke="none"/>
          <ellipse cx="5.5" cy="4.5" rx="4.5" ry="3.5" fill="none"/>
        </g>
        <g id="Ellipse_430" data-name="Ellipse 430" transform="translate(-2756 -17713)" fill="#92ccf9" stroke="#bcfafd" stroke-width="2">
          <ellipse cx="5.5" cy="4.5" rx="5.5" ry="4.5" stroke="none"/>
          <ellipse cx="5.5" cy="4.5" rx="4.5" ry="3.5" fill="none"/>
        </g>
      </g>
      <g id="Path_557" data-name="Path 557" transform="matrix(0.921, 0.391, -0.391, 0.921, -3185.758, -17860.916)" fill="#84c0c5" stroke-linecap="round" stroke-linejoin="round">
        <path d="M 193.9778747558594 30.3303337097168 L 7.416390895843506 10.78429889678955 L 2.352694749832153 -1.144968152046204 L 3.971331357955933 0.2343976199626923 L 4.208248138427734 0.4362726211547852 L 4.51787281036377 0.4680642783641815 L 190.2428283691406 19.52802276611328 L 190.7789611816406 19.58302307128906 L 191.1197052001953 19.16548156738281 L 210.2368621826172 -4.262084007263184 L 235.6707916259766 -11.06301879882813 L 235.9908752441406 -11.14860248565674 L 236.196533203125 -11.4084358215332 L 253.5984497070313 -33.39310073852539 L 253.6071624755859 -33.40406036376953 L 253.6155395507813 -33.41526794433594 L 291.9565124511719 -84.74422454833984 L 291.9799499511719 -84.77564239501953 L 292.0008850097656 -84.80880737304688 L 296.5674438476563 -92.04130554199219 L 300.2577209472656 -81.80216217041016 L 240.7675628662109 -2.575074434280396 L 216.3676605224609 4.999564170837402 L 216.08544921875 5.087189197540283 L 215.8962097167969 5.314105987548828 L 202.7454223632813 21.08212852478027 L 193.9778747558594 30.3303337097168 Z M 295.3949890136719 -100.2085723876953 L 291.7437438964844 -108.810432434082 L 307.7469482421875 -128.1424255371094 L 311.4878540039063 -119.3293914794922 L 295.3949890136719 -100.2085723876953 Z" stroke="none"/>
        <path d="M 193.5915374755859 29.28435516357422 L 201.9978179931641 20.41723251342773 L 215.1282501220703 4.673605918884277 C 215.3753356933594 4.377356052398682 215.7027893066406 4.158897399902344 216.0712127685547 4.044522762298584 L 240.1621246337891 -3.434196472167969 L 299.1338806152344 -81.97091674804688 L 296.3204956054688 -89.77707672119141 L 292.8464660644531 -84.27493286132813 C 292.8185424804688 -84.23072814941406 292.7889099121094 -84.18764495849609 292.7576599121094 -84.14581298828125 L 254.4167022705078 -32.81685256958008 C 254.4055328369141 -32.80189514160156 254.3941650390625 -32.78705978393555 254.3825378417969 -32.77243423461914 L 236.9806213378906 -10.78776931762695 C 236.7135772705078 -10.45035266876221 236.3447875976563 -10.20810222625732 235.9290771484375 -10.0969352722168 L 210.8072814941406 -3.379459381103516 L 191.8944549560547 19.79768943786621 C 191.5124969482422 20.26578330993652 190.9422454833984 20.53324508666992 190.3451995849609 20.53324508666992 C 190.27734375 20.53324508666992 190.2090606689453 20.52978515625 190.1407470703125 20.52277183532715 L 4.551914215087891 1.476783990859985 L 8.106621742248535 9.851113319396973 L 193.5915374755859 29.28435516357422 M 295.6789245605469 -102.0989303588867 L 310.3275146484375 -119.5037155151367 L 307.4688720703125 -126.2382659912109 L 292.9018859863281 -108.6412582397461 L 295.6789245605469 -102.0989303588867 M 194.3642425537109 31.37627220153809 L 6.726122856140137 11.71743965148926 L -0.2231269925832748 -4.653893947601318 L 4.619956493377686 -0.5267273783683777 L 190.3449096679688 18.53323173522949 L 209.6663360595703 -5.144644260406494 L 235.4124603271484 -12.02906036376953 L 252.8143768310547 -34.01372909545898 L 291.1553344726563 -85.34268951416016 L 296.8143615722656 -94.30543518066406 L 301.3815002441406 -81.63335418701172 L 241.3730010986328 -1.715935707092285 L 216.6641693115234 5.954606056213379 L 203.4930419921875 21.74702262878418 L 194.3642425537109 31.37627220153809 Z M 296.8143615722656 -94.30543518066406 L 295.1110534667969 -98.31822967529297 L 296.8143615722656 -94.30543518066406 Z M 295.1110534667969 -98.31822967529297 L 290.5855712890625 -108.9795608520508 L 308.0250244140625 -130.0465545654297 L 312.648193359375 -119.1551055908203 L 295.1110534667969 -98.31822967529297 Z" stroke="none" fill="#84c0c5"/>
      </g>
      <g id="Group_263" data-name="Group 263">
        <g id="Ellipse_441" data-name="Ellipse 441" transform="translate(-3088 -17770)" fill="#ebdf89" stroke="#d5d4c0" stroke-width="2">
          <circle cx="4" cy="4" r="4" stroke="none"/>
          <circle cx="4" cy="4" r="3" fill="none"/>
        </g>
        <g id="Ellipse_442" data-name="Ellipse 442" transform="translate(-3078 -17765)" fill="#ebdf89" stroke="#d5d4c0" stroke-width="2">
          <circle cx="4" cy="4" r="4" stroke="none"/>
          <circle cx="4" cy="4" r="3" fill="none"/>
        </g>
        <g id="Ellipse_443" data-name="Ellipse 443" transform="translate(-3068 -17759)" fill="#ebdf89" stroke="#d5d4c0" stroke-width="2">
          <circle cx="4" cy="4" r="4" stroke="none"/>
          <circle cx="4" cy="4" r="3" fill="none"/>
        </g>
        <g id="Ellipse_444" data-name="Ellipse 444" transform="translate(-3057 -17753)" fill="#ebdf89" stroke="#d5d4c0" stroke-width="2">
          <circle cx="4" cy="4" r="4" stroke="none"/>
          <circle cx="4" cy="4" r="3" fill="none"/>
        </g>
        <g id="Ellipse_445" data-name="Ellipse 445" transform="translate(-3047 -17747)" fill="#ebdf89" stroke="#d5d4c0" stroke-width="2">
          <circle cx="4" cy="4" r="4" stroke="none"/>
          <circle cx="4" cy="4" r="3" fill="none"/>
        </g>
        <g id="Ellipse_446" data-name="Ellipse 446" transform="translate(-3036 -17740)" fill="#ebdf89" stroke="#d5d4c0" stroke-width="2">
          <circle cx="4" cy="4" r="4" stroke="none"/>
          <circle cx="4" cy="4" r="3" fill="none"/>
        </g>
        <g id="Ellipse_447" data-name="Ellipse 447" transform="translate(-3008 -17971)" fill="#ebdf89" stroke="#d5d4c0" stroke-width="2">
          <circle cx="4" cy="4" r="4" stroke="none"/>
          <circle cx="4" cy="4" r="3" fill="none"/>
        </g>
        <g id="Ellipse_448" data-name="Ellipse 448" transform="translate(-2997 -17965)" fill="#ebdf89" stroke="#d5d4c0" stroke-width="2">
          <circle cx="4" cy="4" r="4" stroke="none"/>
          <circle cx="4" cy="4" r="3" fill="none"/>
        </g>
        <g id="Ellipse_449" data-name="Ellipse 449" transform="translate(-2986 -17959)" fill="#ebdf89" stroke="#d5d4c0" stroke-width="2">
          <circle cx="4" cy="4" r="4" stroke="none"/>
          <circle cx="4" cy="4" r="3" fill="none"/>
        </g>
        <g id="Ellipse_450" data-name="Ellipse 450" transform="translate(-2976 -17952)" fill="#ebdf89" stroke="#d5d4c0" stroke-width="2">
          <circle cx="4" cy="4" r="4" stroke="none"/>
          <circle cx="4" cy="4" r="3" fill="none"/>
        </g>
        <g id="Ellipse_451" data-name="Ellipse 451" transform="translate(-2965 -17946)" fill="#ebdf89" stroke="#d5d4c0" stroke-width="2">
          <circle cx="4" cy="4" r="4" stroke="none"/>
          <circle cx="4" cy="4" r="3" fill="none"/>
        </g>
        <g id="Ellipse_452" data-name="Ellipse 452" transform="translate(-2954 -17940)" fill="#ebdf89" stroke="#d5d4c0" stroke-width="2">
          <circle cx="4" cy="4" r="4" stroke="none"/>
          <circle cx="4" cy="4" r="3" fill="none"/>
        </g>
        <g id="Ellipse_453" data-name="Ellipse 453" transform="translate(-2943 -17934)" fill="#ebdf89" stroke="#d5d4c0" stroke-width="2">
          <circle cx="4" cy="4" r="4" stroke="none"/>
          <circle cx="4" cy="4" r="3" fill="none"/>
        </g>
        <g id="Ellipse_454" data-name="Ellipse 454" transform="translate(-2933 -17928)" fill="#ebdf89" stroke="#d5d4c0" stroke-width="2">
          <circle cx="4" cy="4" r="4" stroke="none"/>
          <circle cx="4" cy="4" r="3" fill="none"/>
        </g>
        <g id="Ellipse_455" data-name="Ellipse 455" transform="translate(-2922 -17921)" fill="#ebdf89" stroke="#d5d4c0" stroke-width="2">
          <circle cx="4" cy="4" r="4" stroke="none"/>
          <circle cx="4" cy="4" r="3" fill="none"/>
        </g>
        <g id="Ellipse_456" data-name="Ellipse 456" transform="translate(-2911 -17915)" fill="#ebdf89" stroke="#d5d4c0" stroke-width="2">
          <circle cx="4" cy="4" r="4" stroke="none"/>
          <circle cx="4" cy="4" r="3" fill="none"/>
        </g>
        <g id="Ellipse_457" data-name="Ellipse 457" transform="translate(-2901 -17909)" fill="#ebdf89" stroke="#d5d4c0" stroke-width="2">
          <circle cx="4" cy="4" r="4" stroke="none"/>
          <circle cx="4" cy="4" r="3" fill="none"/>
        </g>
        <g id="Ellipse_458" data-name="Ellipse 458" transform="translate(-2891 -17903)" fill="#ebdf89" stroke="#d5d4c0" stroke-width="2">
          <circle cx="4" cy="4" r="4" stroke="none"/>
          <circle cx="4" cy="4" r="3" fill="none"/>
        </g>
        <g id="Ellipse_459" data-name="Ellipse 459" transform="translate(-2880 -17897)" fill="#ebdf89" stroke="#d5d4c0" stroke-width="2">
          <circle cx="4" cy="4" r="4" stroke="none"/>
          <circle cx="4" cy="4" r="3" fill="none"/>
        </g>
        <g id="Ellipse_460" data-name="Ellipse 460" transform="translate(-2869 -17891)" fill="#ebdf89" stroke="#d5d4c0" stroke-width="2">
          <circle cx="4" cy="4" r="4" stroke="none"/>
          <circle cx="4" cy="4" r="3" fill="none"/>
        </g>
        <g id="Ellipse_461" data-name="Ellipse 461" transform="translate(-2859 -17885)" fill="#ebdf89" stroke="#d5d4c0" stroke-width="2">
          <circle cx="4" cy="4" r="4" stroke="none"/>
          <circle cx="4" cy="4" r="3" fill="none"/>
        </g>
        <g id="Ellipse_462" data-name="Ellipse 462" transform="translate(-2848 -17879)" fill="#ebdf89" stroke="#d5d4c0" stroke-width="2">
          <circle cx="4" cy="4" r="4" stroke="none"/>
          <circle cx="4" cy="4" r="3" fill="none"/>
        </g>
        <g id="Ellipse_463" data-name="Ellipse 463" transform="translate(-2837 -17873)" fill="#ebdf89" stroke="#d5d4c0" stroke-width="2">
          <circle cx="4" cy="4" r="4" stroke="none"/>
          <circle cx="4" cy="4" r="3" fill="none"/>
        </g>
        <g id="Ellipse_464" data-name="Ellipse 464" transform="translate(-2827 -17867)" fill="#ebdf89" stroke="#d5d4c0" stroke-width="2">
          <circle cx="4" cy="4" r="4" stroke="none"/>
          <circle cx="4" cy="4" r="3" fill="none"/>
        </g>
      </g>
      <g id="Group_264" data-name="Group 264">
        <path id="Path_559" data-name="Path 559" d="M1.229.578,15.461.743,13.761,5.8-1.026,5.253Z" transform="translate(-3212.248 -17876.273) rotate(34)" fill="url(#linear-gradient-5)"/>
        <path id="Path_560" data-name="Path 560" d="M1.229.578,15.461.743,13.761,5.8-1.026,5.253Z" transform="translate(-3201.248 -17882.273) rotate(34)" fill="url(#linear-gradient-5)"/>
        <path id="Path_561" data-name="Path 561" d="M1.229.578,15.461.743,13.761,5.8-1.026,5.253Z" transform="translate(-3189.248 -17889.273) rotate(34)" fill="url(#linear-gradient-5)"/>
        <path id="Path_562" data-name="Path 562" d="M1.229.578,15.461.743,13.761,5.8-1.026,5.253Z" transform="translate(-3178.248 -17895.273) rotate(34)" fill="url(#linear-gradient-5)"/>
        <path id="Path_563" data-name="Path 563" d="M1.229.578,15.461.743,13.761,5.8-1.026,5.253Z" transform="translate(-3167.248 -17901.273) rotate(34)" fill="url(#linear-gradient-5)"/>
        <path id="Path_564" data-name="Path 564" d="M1.3.9,15.461.743l-1.24,4.743-15.1-.226Z" transform="translate(-2982.5 -17737.145) rotate(-149)" fill="url(#linear-gradient-5)"/>
        <path id="Path_565" data-name="Path 565" d="M1.3.9,15.461.743l-1.24,4.743-15.1-.226Z" transform="translate(-2971.5 -17743.145) rotate(-149)" fill="url(#linear-gradient-5)"/>
        <path id="Path_566" data-name="Path 566" d="M1.3.9,15.461.743l-1.24,4.743-15.1-.226Z" transform="translate(-2960.5 -17750.145) rotate(-149)" fill="url(#linear-gradient-5)"/>
        <path id="Path_567" data-name="Path 567" d="M1.3.9,15.461.743l-1.24,4.743-15.1-.226Z" transform="translate(-2948.5 -17757.145) rotate(-149)" fill="url(#linear-gradient-5)"/>
        <path id="Path_568" data-name="Path 568" d="M1.3.9,15.461.743l-1.24,4.743-15.1-.226Z" transform="translate(-2936.5 -17764.145) rotate(-149)" fill="url(#linear-gradient-5)"/>
        <path id="Path_569" data-name="Path 569" d="M1.3.9,15.461.743l-1.24,4.743-15.1-.226Z" transform="translate(-2924.5 -17770.145) rotate(-149)" fill="url(#linear-gradient-5)"/>
        <path id="Path_570" data-name="Path 570" d="M1.3.9,15.461.743l-1.24,4.743-15.1-.226Z" transform="translate(-2913.5 -17777.145) rotate(-149)" fill="url(#linear-gradient-5)"/>
        <path id="Path_571" data-name="Path 571" d="M1.3.9,15.461.743l-1.24,4.743-15.1-.226Z" transform="translate(-2901.5 -17783.145) rotate(-149)" fill="url(#linear-gradient-5)"/>
        <path id="Path_572" data-name="Path 572" d="M1.3.9,15.461.743l-1.24,4.743-15.1-.226Z" transform="translate(-2890.5 -17790.145) rotate(-149)" fill="url(#linear-gradient-5)"/>
        <path id="Path_573" data-name="Path 573" d="M1.3.9,15.461.743l-1.24,4.743-15.1-.226Z" transform="translate(-2878.5 -17797.145) rotate(-149)" fill="url(#linear-gradient-5)"/>
        <path id="Path_574" data-name="Path 574" d="M1.3.9,15.461.743l-1.24,4.743-15.1-.226Z" transform="translate(-2867.5 -17803.145) rotate(-149)" fill="url(#linear-gradient-5)"/>
        <path id="Path_575" data-name="Path 575" d="M1.3.9,15.461.743l-1.24,4.743-15.1-.226Z" transform="translate(-2855.5 -17809.145) rotate(-149)" fill="url(#linear-gradient-5)"/>
        <path id="Path_576" data-name="Path 576" d="M1.56-.361,15.551,1l1.322,4.237L2.945,3.8Z" transform="translate(-3174.559 -17819.869) rotate(140)" fill="url(#linear-gradient-5)"/>
        <path id="Path_577" data-name="Path 577" d="M1.56-.361,15.551,1l1.322,4.237L2.945,3.8Z" transform="translate(-3160.559 -17811.869) rotate(140)" fill="url(#linear-gradient-5)"/>
        <path id="Path_578" data-name="Path 578" d="M1.56-.361,15.551,1l1.322,4.237L2.945,3.8Z" transform="translate(-3145.559 -17803.869) rotate(140)" fill="url(#linear-gradient-5)"/>
        <path id="Path_579" data-name="Path 579" d="M1.56-.361,15.551,1l1.322,4.237L2.945,3.8Z" transform="translate(-3130.559 -17795.869) rotate(140)" fill="url(#linear-gradient-5)"/>
        <path id="Path_580" data-name="Path 580" d="M1.56-.361,15.551,1l1.322,4.237L2.945,3.8Z" transform="translate(-3117.559 -17787.869) rotate(140)" fill="url(#linear-gradient-5)"/>
        <path id="Path_581" data-name="Path 581" d="M1.56-.361,15.551,1l1.322,4.237L2.945,3.8Z" transform="translate(-3102.559 -17778.869) rotate(140)" fill="url(#linear-gradient-5)"/>
        <path id="Path_582" data-name="Path 582" d="M1.229.578,15.461.743,13.761,5.8-1.026,5.253Z" transform="translate(-3155.248 -17909.273) rotate(34)" fill="url(#linear-gradient-5)"/>
        <path id="Path_583" data-name="Path 583" d="M1.229.578,15.461.743,13.761,5.8-1.026,5.253Z" transform="translate(-3143.248 -17915.273) rotate(34)" fill="url(#linear-gradient-5)"/>
        <path id="Path_584" data-name="Path 584" d="M1.229.578,15.461.743,13.761,5.8-1.026,5.253Z" transform="translate(-3131.248 -17922.273) rotate(34)" fill="url(#linear-gradient-5)"/>
        <path id="Path_585" data-name="Path 585" d="M1.229.578,15.461.743,13.761,5.8-1.026,5.253Z" transform="translate(-3120.248 -17928.273) rotate(34)" fill="url(#linear-gradient-5)"/>
        <path id="Path_586" data-name="Path 586" d="M1.229.578,15.461.743,13.761,5.8-1.026,5.253Z" transform="translate(-3108.248 -17935.273) rotate(34)" fill="url(#linear-gradient-5)"/>
        <path id="Path_587" data-name="Path 587" d="M1.229.578,15.461.743,13.761,5.8-1.026,5.253Z" transform="translate(-3096.248 -17941.273) rotate(34)" fill="url(#linear-gradient-5)"/>
        <path id="Path_588" data-name="Path 588" d="M1.229.578,15.461.743,13.761,5.8-1.026,5.253Z" transform="translate(-3085.248 -17948.273) rotate(34)" fill="url(#linear-gradient-5)"/>
        <path id="Path_589" data-name="Path 589" d="M1.229.578,15.461.743,13.761,5.8-1.026,5.253Z" transform="translate(-3072.248 -17955.273) rotate(34)" fill="url(#linear-gradient-5)"/>
      </g>
      <g id="Path_555" data-name="Path 555" transform="matrix(0.719, 0.695, -0.695, 0.719, -2999.115, -17963.197)" stroke-linecap="round" stroke-linejoin="round" fill="url(#linear-gradient-36)">
        <path d="M -59.20806884765625 201.2589721679688 L -65.30202484130859 197.6340789794922 L -64.55081176757813 182.2332000732422 L -62.10758972167969 171.0377044677734 L -61.99348831176758 170.5148315429688 L -62.36525726318359 170.1298370361328 L -71.35359191894531 160.8221588134766 L -42.40438461303711 59.34170913696289 L -27.66819000244141 48.99086761474609 L -27.3918571472168 48.79676818847656 L -27.28975677490234 48.47483444213867 L -15.48064804077148 11.23604869842529 L 161.948974609375 -32.027587890625 L 172.4698791503906 -31.84457206726074 L 174.1589050292969 -30.09553337097168 L 177.2041625976563 -26.94207191467285 L 169.666748046875 -3.244899988174438 L 169.4859161376953 -2.67633318901062 L 169.9003753662109 -2.247133255004883 L 181.1103210449219 9.361078262329102 L 152.461181640625 108.0905151367188 L 131.5874786376953 123.3679656982422 L 131.3245086669922 123.560432434082 L 131.2254028320313 123.8708648681641 L 121.8113098144531 153.3661346435547 L -59.20806884765625 201.2589721679688 Z" stroke="none"/>
        <path d="M 162.0604553222656 -31.02548217773438 L -14.69743347167969 12.0743408203125 L -26.33656311035156 48.77713012695313 C -26.468994140625 49.19476318359375 -26.73489379882813 49.55733489990234 -27.09342956542969 49.80916595458984 L -41.53987121582031 59.95648193359375 L -70.23382568359375 160.5421905517578 L -61.64595031738281 169.4351959228516 C -61.18142700195313 169.9162292480469 -60.98802185058594 170.5975952148438 -61.13063049316406 171.2509307861328 L -63.5560302734375 182.3649444580078 L -64.27389526367188 197.0820617675781 L -59.05780029296875 200.184814453125 L 121.0254211425781 152.5396575927734 L 130.2727813720703 123.5668029785156 C 130.4015502929688 123.163330078125 130.6550750732422 122.811164855957 130.9968414306641 122.56103515625 L 151.5956726074219 107.4847564697266 L 179.9884338378906 9.63885498046875 L 169.1810455322266 -1.552536010742188 C 168.67041015625 -2.081298828125 168.4909820556641 -2.847564697265625 168.7138061523438 -3.548065185546875 L 176.0703735351563 -26.67662048339844 L 173.4395751953125 -29.40086364746094 L 172.0382843017578 -30.85194396972656 L 162.0604553222656 -31.02548217773438 M 161.8373107910156 -33.0296630859375 L 172.9014434814453 -32.83723449707031 L 174.8782348632813 -30.79020690917969 L 178.3379821777344 -27.20756530761719 L 170.6197052001953 -2.94183349609375 L 182.232177734375 9.083236694335938 L 153.3266143798828 108.6963348388672 L 132.1780700683594 124.174934387207 L 122.5972442626953 154.1925964355469 L -59.35835266113281 202.3331298828125 L -66.33012390136719 198.18603515625 L -65.54556274414063 182.1013031005859 L -63.08462524414063 170.8244934082031 L -72.47335815429688 161.1021728515625 L -43.26889038085938 58.72689819335938 L -28.24299621582031 48.17256927490234 L -16.26389312744141 10.397705078125 L 161.8373107910156 -33.0296630859375 Z" stroke="none" fill="#84c0c5"/>
      </g>
      <g id="Path_556" data-name="Path 556" transform="translate(-3077 -17930)" stroke-linecap="round" stroke-linejoin="round" fill="url(#linear-gradient-37)">
        <path d="M 61.89620971679688 148.3672180175781 L 57.79877853393555 148.3672180175781 L -96.19569396972656 62.85493850708008 L -98.67551422119141 60.06508255004883 L -98.67551422119141 55.27789688110352 L -85.27023315429688 45.99748992919922 L 27.0915699005127 -17.99432754516602 L 58.9608268737793 -36.21808624267578 L 147.3764953613281 14.71060657501221 L 217.3503570556641 56.96667861938477 L 217.3503570556641 58.24839019775391 L 216.5196533203125 59.235107421875 L 61.89620971679688 148.3672180175781 Z" stroke="none"/>
        <path d="M 61.6286735534668 147.3672180175781 L 215.8678436279297 58.45662307739258 L 216.3503570556641 57.88348388671875 L 216.3503570556641 57.53095245361328 L 146.8686065673828 15.57206153869629 L 58.95901489257813 -35.06512451171875 L 27.58644485473633 -17.12537002563477 L -84.73732757568359 46.84479141235352 L -97.67551422119141 55.80182647705078 L -97.67551422119141 59.68491363525391 L -95.56140899658203 62.06333541870117 L 58.05778121948242 147.3672180175781 L 61.6286735534668 147.3672180175781 M 62.163818359375 149.3672180175781 L 57.53977584838867 149.3672180175781 L -96.83005523681641 63.64650344848633 L -99.67551422119141 60.44529724121094 L -99.67551422119141 54.75392150878906 L -85.80347442626953 45.1503791809082 L 26.59669494628906 -18.8632869720459 L 58.96265411376953 -37.37107849121094 L 147.8852844238281 13.84963035583496 L 218.3503570556641 56.40233993530273 L 218.3503570556641 58.61329650878906 L 217.1714019775391 60.013671875 L 62.163818359375 149.3672180175781 Z" stroke="none" fill="#b3f9fd"/>
      </g>
      <g id="Group_270" data-name="Group 270">
        <g id="Ellipse_431" data-name="Ellipse 431" transform="translate(-2738 -17892)" fill="#fff" stroke="#5983fc" stroke-width="2">
          <circle cx="4.5" cy="4.5" r="4.5" stroke="none"/>
          <circle cx="4.5" cy="4.5" r="3.5" fill="none"/>
        </g>
        <g id="Ellipse_432" data-name="Ellipse 432" transform="translate(-2752 -17909)" fill="#fff" stroke="#5983fc" stroke-width="2">
          <circle cx="4.5" cy="4.5" r="4.5" stroke="none"/>
          <circle cx="4.5" cy="4.5" r="3.5" fill="none"/>
        </g>
        <g id="Ellipse_433" data-name="Ellipse 433" transform="translate(-2862 -17942)" fill="#fff" stroke="#5983fc" stroke-width="2">
          <circle cx="4.5" cy="4.5" r="4.5" stroke="none"/>
          <circle cx="4.5" cy="4.5" r="3.5" fill="none"/>
        </g>
        <g id="Ellipse_434" data-name="Ellipse 434" transform="translate(-3378 -17689)" fill="#fff" stroke="#5983fc" stroke-width="2">
          <circle cx="4.5" cy="4.5" r="4.5" stroke="none"/>
          <circle cx="4.5" cy="4.5" r="3.5" fill="none"/>
        </g>
        <g id="Ellipse_435" data-name="Ellipse 435" transform="translate(-3319 -17888)" fill="#fff" stroke="#5983fc" stroke-width="2">
          <circle cx="4.5" cy="4.5" r="4.5" stroke="none"/>
          <circle cx="4.5" cy="4.5" r="3.5" fill="none"/>
        </g>
        <g id="Ellipse_436" data-name="Ellipse 436" transform="translate(-3283 -17938)" fill="#fff" stroke="#5983fc" stroke-width="2">
          <circle cx="4.5" cy="4.5" r="4.5" stroke="none"/>
          <circle cx="4.5" cy="4.5" r="3.5" fill="none"/>
        </g>
        <g id="Ellipse_437" data-name="Ellipse 437" transform="translate(-3206 -17974)" fill="#fff" stroke="#5983fc" stroke-width="2">
          <circle cx="4.5" cy="4.5" r="4.5" stroke="none"/>
          <circle cx="4.5" cy="4.5" r="3.5" fill="none"/>
        </g>
        <g id="Ellipse_438" data-name="Ellipse 438" transform="translate(-3126 -18012)" fill="#fff" stroke="#5983fc" stroke-width="2">
          <circle cx="4.5" cy="4.5" r="4.5" stroke="none"/>
          <circle cx="4.5" cy="4.5" r="3.5" fill="none"/>
        </g>
        <g id="Ellipse_439" data-name="Ellipse 439" transform="translate(-2891 -17998)" fill="#fff" stroke="#5983fc" stroke-width="2">
          <circle cx="4.5" cy="4.5" r="4.5" stroke="none"/>
          <circle cx="4.5" cy="4.5" r="3.5" fill="none"/>
        </g>
        <g id="Ellipse_440" data-name="Ellipse 440" transform="translate(-2906 -18059)" fill="#fff" stroke="#5983fc" stroke-width="2">
          <circle cx="4.5" cy="4.5" r="4.5" stroke="none"/>
          <circle cx="4.5" cy="4.5" r="3.5" fill="none"/>
        </g>
        <g id="Ellipse_465" data-name="Ellipse 465" transform="translate(-2724 -17707)" fill="#fff" stroke="#5983fc" stroke-width="2">
          <circle cx="4.5" cy="4.5" r="4.5" stroke="none"/>
          <circle cx="4.5" cy="4.5" r="3.5" fill="none"/>
        </g>
        <g id="Ellipse_466" data-name="Ellipse 466" transform="translate(-2775 -17667)" fill="#fff" stroke="#5983fc" stroke-width="2">
          <circle cx="4.5" cy="4.5" r="4.5" stroke="none"/>
          <circle cx="4.5" cy="4.5" r="3.5" fill="none"/>
        </g>
        <g id="Ellipse_467" data-name="Ellipse 467" transform="translate(-2835 -17667)" fill="#fff" stroke="#5983fc" stroke-width="2">
          <circle cx="4.5" cy="4.5" r="4.5" stroke="none"/>
          <circle cx="4.5" cy="4.5" r="3.5" fill="none"/>
        </g>
        <g id="Ellipse_468" data-name="Ellipse 468" transform="translate(-3167 -17665)" fill="#fff" stroke="#5983fc" stroke-width="2">
          <circle cx="4.5" cy="4.5" r="4.5" stroke="none"/>
          <circle cx="4.5" cy="4.5" r="3.5" fill="none"/>
        </g>
      </g>
      <g id="Group_266" data-name="Group 266">
        <g id="Ellipse_469" data-name="Ellipse 469" transform="translate(-3333 -17744)" fill="none" stroke="#80c4fa" stroke-width="10">
          <ellipse cx="18" cy="9.5" rx="18" ry="9.5" stroke="none"/>
          <ellipse cx="18" cy="9.5" rx="13" ry="4.5" fill="none"/>
        </g>
        <g id="Group_259" data-name="Group 259">
          <g id="Ellipse_424" data-name="Ellipse 424" transform="translate(-3329 -17758)" fill="#88c7f9" stroke="#88c7f9" stroke-width="2">
            <ellipse cx="13.5" cy="9" rx="13.5" ry="9" stroke="none"/>
            <ellipse cx="13.5" cy="9" rx="12.5" ry="8" fill="none"/>
          </g>
          <g id="Path_554" data-name="Path 554" transform="translate(-3331 -17736)" fill="#0b2e60" stroke-linecap="round" stroke-linejoin="round">
            <path d="M 15.41263103485107 5.677730083465576 L 10.0142993927002 5.220704078674316 L 6.358962535858154 3.615702390670776 L 4.65555477142334 2.252447605133057 L 3.251729726791382 0.2709691822528839 L 2.717527866363525 -3.824707746505737 L 2.717527866363525 -8.324763298034668 L 2.80879282951355 -9.640274047851563 L 4.766878128051758 -7.656839847564697 L 4.833858013153076 -7.588989734649658 L 4.912447929382324 -7.535019874572754 L 7.401217937469482 -5.826029777526855 L 7.539417743682861 -5.73112964630127 L 7.7010178565979 -5.686489582061768 L 10.18978786468506 -4.998989582061768 L 10.25577831268311 -4.980759620666504 L 10.32362747192383 -4.971699714660645 L 13.64198780059814 -4.528339862823486 L 13.70790767669678 -4.519529819488525 L 13.77441787719727 -4.519529819488525 L 17.24364852905273 -4.519529819488525 L 17.36554718017578 -4.519529819488525 L 17.48388862609863 -4.548819541931152 L 20.83008766174316 -5.376949787139893 L 20.87980842590332 -5.389249801635742 L 20.92800712585449 -5.406569480895996 L 23.23805809020996 -6.236639499664307 L 23.33734703063965 -6.272319793701172 L 23.4270076751709 -6.327929496765137 L 25.33203887939453 -7.509579658508301 L 25.37203788757324 -7.534399509429932 L 25.40953826904297 -7.562849521636963 L 27.72789764404297 -9.322609901428223 L 27.88623809814453 -9.44281005859375 L 27.98656845092773 -9.614419937133789 L 28.08978462219238 -9.790963172912598 L 28.59472846984863 -4.669617652893066 L 28.59472846984863 -0.08965587615966797 L 27.30430030822754 2.248642683029175 L 25.31957817077637 3.572219848632813 L 20.3829460144043 5.21799898147583 L 15.41263103485107 5.677730083465576 Z" stroke="none"/>
            <path d="M 27.2878246307373 -7.733126163482666 L 26.01413726806641 -6.766329765319824 C 25.96417808532715 -6.728399753570557 25.9124584197998 -6.692849636077881 25.8591480255127 -6.659789562225342 L 23.95411682128906 -5.478139877319336 C 23.83490753173828 -5.404189586639404 23.70823860168457 -5.342989921569824 23.57621765136719 -5.295549392700195 L 21.26616668701172 -4.465479850769043 C 21.20193862915039 -4.442399978637695 21.13656806945801 -4.422629356384277 21.0703182220459 -4.406229972839355 L 17.72411727905273 -3.578099727630615 C 17.56692886352539 -3.539199590682983 17.40558815002441 -3.519529581069946 17.24364852905273 -3.519529581069946 L 13.77441787719727 -3.519529581069946 C 13.68583869934082 -3.519529581069946 13.59735870361328 -3.525409698486328 13.50955772399902 -3.537149667739868 L 10.19119834899902 -3.980509757995605 C 10.10082817077637 -3.992579698562622 10.01139831542969 -4.010819435119629 9.923517227172852 -4.035089492797852 L 7.434747695922852 -4.722589492797852 C 7.22077751159668 -4.781699657440186 7.018136978149414 -4.876019477844238 6.835147857666016 -5.001679420471191 L 4.346378326416016 -6.71066951751709 C 4.241827011108398 -6.782459735870361 4.144338607788086 -6.864039897918701 4.055238723754883 -6.95428991317749 L 3.717527389526367 -7.296371459960938 L 3.717527389526367 -3.889635562896729 L 4.211217880249023 -0.1045565605163574 L 5.390209197998047 1.559572219848633 L 6.881267547607422 2.752872467041016 L 10.26423645019531 4.238283157348633 L 15.40869140625 4.673824310302734 L 20.17604827880859 4.232856750488281 L 24.876220703125 2.665908813476563 L 26.54660034179688 1.551967620849609 L 27.59472846984863 -0.3472738265991211 L 27.59472846984863 -4.620384216308594 L 27.2878246307373 -7.733126163482666 M 2.069828033447266 -13.4375 L 2.292238235473633 -13.4375 L 3.442377090454102 -10.42187976837158 L 5.478517532348633 -8.359379768371582 L 7.967287063598633 -6.650389671325684 L 10.45605850219727 -5.962889671325684 L 13.77441787719727 -5.519529819488525 L 17.24364852905273 -5.519529819488525 L 20.58984756469727 -6.347659587860107 L 22.89989852905273 -7.177729606628418 L 24.80492782592773 -8.359379768371582 L 27.12328720092773 -10.11913967132568 L 28.78246688842773 -12.95702934265137 L 29.59472846984863 -4.71875 L 29.59472846984863 0.1679701805114746 L 28.06200790405273 2.945310592651367 L 25.76293754577637 4.478509902954102 L 20.58984756469727 6.203120231628418 L 15.41650772094727 6.681640625 L 9.764408111572266 6.203120231628418 L 5.836668014526367 4.478509902954102 L 3.9208984375 2.945310592651367 L 2.292238235473633 0.6464800834655762 L 1.717527389526367 -3.759769678115845 L 1.717527389526367 -8.359379768371582 L 2.069828033447266 -13.4375 Z" stroke="none" fill="#0b2e60"/>
          </g>
        </g>
      </g>
      <g id="Group_267" data-name="Group 267" transform="translate(148 -210)">
        <g id="Ellipse_469-2" data-name="Ellipse 469" transform="translate(-3333 -17744)" fill="none" stroke="#80c4fa" stroke-width="10">
          <ellipse cx="18" cy="9.5" rx="18" ry="9.5" stroke="none"/>
          <ellipse cx="18" cy="9.5" rx="13" ry="4.5" fill="none"/>
        </g>
        <g id="Group_259-2" data-name="Group 259">
          <g id="Ellipse_424-2" data-name="Ellipse 424" transform="translate(-3329 -17758)" fill="#88c7f9" stroke="#88c7f9" stroke-width="2">
            <ellipse cx="13.5" cy="9" rx="13.5" ry="9" stroke="none"/>
            <ellipse cx="13.5" cy="9" rx="12.5" ry="8" fill="none"/>
          </g>
          <g id="Path_554-2" data-name="Path 554" transform="translate(-3331 -17736)" fill="#0b2e60" stroke-linecap="round" stroke-linejoin="round">
            <path d="M 15.41263103485107 5.677730083465576 L 10.0142993927002 5.220704078674316 L 6.358962535858154 3.615702390670776 L 4.65555477142334 2.252447605133057 L 3.251729726791382 0.2709691822528839 L 2.717527866363525 -3.824707746505737 L 2.717527866363525 -8.324763298034668 L 2.80879282951355 -9.640274047851563 L 4.766878128051758 -7.656839847564697 L 4.833858013153076 -7.588989734649658 L 4.912447929382324 -7.535019874572754 L 7.401217937469482 -5.826029777526855 L 7.539417743682861 -5.73112964630127 L 7.7010178565979 -5.686489582061768 L 10.18978786468506 -4.998989582061768 L 10.25577831268311 -4.980759620666504 L 10.32362747192383 -4.971699714660645 L 13.64198780059814 -4.528339862823486 L 13.70790767669678 -4.519529819488525 L 13.77441787719727 -4.519529819488525 L 17.24364852905273 -4.519529819488525 L 17.36554718017578 -4.519529819488525 L 17.48388862609863 -4.548819541931152 L 20.83008766174316 -5.376949787139893 L 20.87980842590332 -5.389249801635742 L 20.92800712585449 -5.406569480895996 L 23.23805809020996 -6.236639499664307 L 23.33734703063965 -6.272319793701172 L 23.4270076751709 -6.327929496765137 L 25.33203887939453 -7.509579658508301 L 25.37203788757324 -7.534399509429932 L 25.40953826904297 -7.562849521636963 L 27.72789764404297 -9.322609901428223 L 27.88623809814453 -9.44281005859375 L 27.98656845092773 -9.614419937133789 L 28.08978462219238 -9.790963172912598 L 28.59472846984863 -4.669617652893066 L 28.59472846984863 -0.08965587615966797 L 27.30430030822754 2.248642683029175 L 25.31957817077637 3.572219848632813 L 20.3829460144043 5.21799898147583 L 15.41263103485107 5.677730083465576 Z" stroke="none"/>
            <path d="M 27.2878246307373 -7.733126163482666 L 26.01413726806641 -6.766329765319824 C 25.96417808532715 -6.728399753570557 25.9124584197998 -6.692849636077881 25.8591480255127 -6.659789562225342 L 23.95411682128906 -5.478139877319336 C 23.83490753173828 -5.404189586639404 23.70823860168457 -5.342989921569824 23.57621765136719 -5.295549392700195 L 21.26616668701172 -4.465479850769043 C 21.20193862915039 -4.442399978637695 21.13656806945801 -4.422629356384277 21.0703182220459 -4.406229972839355 L 17.72411727905273 -3.578099727630615 C 17.56692886352539 -3.539199590682983 17.40558815002441 -3.519529581069946 17.24364852905273 -3.519529581069946 L 13.77441787719727 -3.519529581069946 C 13.68583869934082 -3.519529581069946 13.59735870361328 -3.525409698486328 13.50955772399902 -3.537149667739868 L 10.19119834899902 -3.980509757995605 C 10.10082817077637 -3.992579698562622 10.01139831542969 -4.010819435119629 9.923517227172852 -4.035089492797852 L 7.434747695922852 -4.722589492797852 C 7.22077751159668 -4.781699657440186 7.018136978149414 -4.876019477844238 6.835147857666016 -5.001679420471191 L 4.346378326416016 -6.71066951751709 C 4.241827011108398 -6.782459735870361 4.144338607788086 -6.864039897918701 4.055238723754883 -6.95428991317749 L 3.717527389526367 -7.296371459960938 L 3.717527389526367 -3.889635562896729 L 4.211217880249023 -0.1045565605163574 L 5.390209197998047 1.559572219848633 L 6.881267547607422 2.752872467041016 L 10.26423645019531 4.238283157348633 L 15.40869140625 4.673824310302734 L 20.17604827880859 4.232856750488281 L 24.876220703125 2.665908813476563 L 26.54660034179688 1.551967620849609 L 27.59472846984863 -0.3472738265991211 L 27.59472846984863 -4.620384216308594 L 27.2878246307373 -7.733126163482666 M 2.069828033447266 -13.4375 L 2.292238235473633 -13.4375 L 3.442377090454102 -10.42187976837158 L 5.478517532348633 -8.359379768371582 L 7.967287063598633 -6.650389671325684 L 10.45605850219727 -5.962889671325684 L 13.77441787719727 -5.519529819488525 L 17.24364852905273 -5.519529819488525 L 20.58984756469727 -6.347659587860107 L 22.89989852905273 -7.177729606628418 L 24.80492782592773 -8.359379768371582 L 27.12328720092773 -10.11913967132568 L 28.78246688842773 -12.95702934265137 L 29.59472846984863 -4.71875 L 29.59472846984863 0.1679701805114746 L 28.06200790405273 2.945310592651367 L 25.76293754577637 4.478509902954102 L 20.58984756469727 6.203120231628418 L 15.41650772094727 6.681640625 L 9.764408111572266 6.203120231628418 L 5.836668014526367 4.478509902954102 L 3.9208984375 2.945310592651367 L 2.292238235473633 0.6464800834655762 L 1.717527389526367 -3.759769678115845 L 1.717527389526367 -8.359379768371582 L 2.069828033447266 -13.4375 Z" stroke="none" fill="#0b2e60"/>
          </g>
        </g>
      </g>
      <g id="Group_268" data-name="Group 268" transform="translate(568 -3)">
        <g id="Ellipse_469-3" data-name="Ellipse 469" transform="translate(-3333 -17744)" fill="none" stroke="#80c4fa" stroke-width="10">
          <ellipse cx="18" cy="9.5" rx="18" ry="9.5" stroke="none"/>
          <ellipse cx="18" cy="9.5" rx="13" ry="4.5" fill="none"/>
        </g>
        <g id="Group_259-3" data-name="Group 259">
          <g id="Ellipse_424-3" data-name="Ellipse 424" transform="translate(-3329 -17758)" fill="#88c7f9" stroke="#88c7f9" stroke-width="2">
            <ellipse cx="13.5" cy="9" rx="13.5" ry="9" stroke="none"/>
            <ellipse cx="13.5" cy="9" rx="12.5" ry="8" fill="none"/>
          </g>
          <g id="Path_554-3" data-name="Path 554" transform="translate(-3331 -17736)" fill="#0b2e60" stroke-linecap="round" stroke-linejoin="round">
            <path d="M 15.41263103485107 5.677730083465576 L 10.0142993927002 5.220704078674316 L 6.358962535858154 3.615702390670776 L 4.65555477142334 2.252447605133057 L 3.251729726791382 0.2709691822528839 L 2.717527866363525 -3.824707746505737 L 2.717527866363525 -8.324763298034668 L 2.80879282951355 -9.640274047851563 L 4.766878128051758 -7.656839847564697 L 4.833858013153076 -7.588989734649658 L 4.912447929382324 -7.535019874572754 L 7.401217937469482 -5.826029777526855 L 7.539417743682861 -5.73112964630127 L 7.7010178565979 -5.686489582061768 L 10.18978786468506 -4.998989582061768 L 10.25577831268311 -4.980759620666504 L 10.32362747192383 -4.971699714660645 L 13.64198780059814 -4.528339862823486 L 13.70790767669678 -4.519529819488525 L 13.77441787719727 -4.519529819488525 L 17.24364852905273 -4.519529819488525 L 17.36554718017578 -4.519529819488525 L 17.48388862609863 -4.548819541931152 L 20.83008766174316 -5.376949787139893 L 20.87980842590332 -5.389249801635742 L 20.92800712585449 -5.406569480895996 L 23.23805809020996 -6.236639499664307 L 23.33734703063965 -6.272319793701172 L 23.4270076751709 -6.327929496765137 L 25.33203887939453 -7.509579658508301 L 25.37203788757324 -7.534399509429932 L 25.40953826904297 -7.562849521636963 L 27.72789764404297 -9.322609901428223 L 27.88623809814453 -9.44281005859375 L 27.98656845092773 -9.614419937133789 L 28.08978462219238 -9.790963172912598 L 28.59472846984863 -4.669617652893066 L 28.59472846984863 -0.08965587615966797 L 27.30430030822754 2.248642683029175 L 25.31957817077637 3.572219848632813 L 20.3829460144043 5.21799898147583 L 15.41263103485107 5.677730083465576 Z" stroke="none"/>
            <path d="M 27.2878246307373 -7.733126163482666 L 26.01413726806641 -6.766329765319824 C 25.96417808532715 -6.728399753570557 25.9124584197998 -6.692849636077881 25.8591480255127 -6.659789562225342 L 23.95411682128906 -5.478139877319336 C 23.83490753173828 -5.404189586639404 23.70823860168457 -5.342989921569824 23.57621765136719 -5.295549392700195 L 21.26616668701172 -4.465479850769043 C 21.20193862915039 -4.442399978637695 21.13656806945801 -4.422629356384277 21.0703182220459 -4.406229972839355 L 17.72411727905273 -3.578099727630615 C 17.56692886352539 -3.539199590682983 17.40558815002441 -3.519529581069946 17.24364852905273 -3.519529581069946 L 13.77441787719727 -3.519529581069946 C 13.68583869934082 -3.519529581069946 13.59735870361328 -3.525409698486328 13.50955772399902 -3.537149667739868 L 10.19119834899902 -3.980509757995605 C 10.10082817077637 -3.992579698562622 10.01139831542969 -4.010819435119629 9.923517227172852 -4.035089492797852 L 7.434747695922852 -4.722589492797852 C 7.22077751159668 -4.781699657440186 7.018136978149414 -4.876019477844238 6.835147857666016 -5.001679420471191 L 4.346378326416016 -6.71066951751709 C 4.241827011108398 -6.782459735870361 4.144338607788086 -6.864039897918701 4.055238723754883 -6.95428991317749 L 3.717527389526367 -7.296371459960938 L 3.717527389526367 -3.889635562896729 L 4.211217880249023 -0.1045565605163574 L 5.390209197998047 1.559572219848633 L 6.881267547607422 2.752872467041016 L 10.26423645019531 4.238283157348633 L 15.40869140625 4.673824310302734 L 20.17604827880859 4.232856750488281 L 24.876220703125 2.665908813476563 L 26.54660034179688 1.551967620849609 L 27.59472846984863 -0.3472738265991211 L 27.59472846984863 -4.620384216308594 L 27.2878246307373 -7.733126163482666 M 2.069828033447266 -13.4375 L 2.292238235473633 -13.4375 L 3.442377090454102 -10.42187976837158 L 5.478517532348633 -8.359379768371582 L 7.967287063598633 -6.650389671325684 L 10.45605850219727 -5.962889671325684 L 13.77441787719727 -5.519529819488525 L 17.24364852905273 -5.519529819488525 L 20.58984756469727 -6.347659587860107 L 22.89989852905273 -7.177729606628418 L 24.80492782592773 -8.359379768371582 L 27.12328720092773 -10.11913967132568 L 28.78246688842773 -12.95702934265137 L 29.59472846984863 -4.71875 L 29.59472846984863 0.1679701805114746 L 28.06200790405273 2.945310592651367 L 25.76293754577637 4.478509902954102 L 20.58984756469727 6.203120231628418 L 15.41650772094727 6.681640625 L 9.764408111572266 6.203120231628418 L 5.836668014526367 4.478509902954102 L 3.9208984375 2.945310592651367 L 2.292238235473633 0.6464800834655762 L 1.717527389526367 -3.759769678115845 L 1.717527389526367 -8.359379768371582 L 2.069828033447266 -13.4375 Z" stroke="none" fill="#0b2e60"/>
          </g>
        </g>
      </g>
      <g id="Group_269" data-name="Group 269" transform="translate(427 -213)">
        <g id="Ellipse_469-4" data-name="Ellipse 469" transform="translate(-3333 -17744)" fill="none" stroke="#80c4fa" stroke-width="10">
          <ellipse cx="18" cy="9.5" rx="18" ry="9.5" stroke="none"/>
          <ellipse cx="18" cy="9.5" rx="13" ry="4.5" fill="none"/>
        </g>
        <g id="Group_259-4" data-name="Group 259">
          <g id="Ellipse_424-4" data-name="Ellipse 424" transform="translate(-3329 -17758)" fill="#88c7f9" stroke="#88c7f9" stroke-width="2">
            <ellipse cx="13.5" cy="9" rx="13.5" ry="9" stroke="none"/>
            <ellipse cx="13.5" cy="9" rx="12.5" ry="8" fill="none"/>
          </g>
          <g id="Path_554-4" data-name="Path 554" transform="translate(-3331 -17736)" fill="#0b2e60" stroke-linecap="round" stroke-linejoin="round">
            <path d="M 15.41263103485107 5.677730083465576 L 10.0142993927002 5.220704078674316 L 6.358962535858154 3.615702390670776 L 4.65555477142334 2.252447605133057 L 3.251729726791382 0.2709691822528839 L 2.717527866363525 -3.824707746505737 L 2.717527866363525 -8.324763298034668 L 2.80879282951355 -9.640274047851563 L 4.766878128051758 -7.656839847564697 L 4.833858013153076 -7.588989734649658 L 4.912447929382324 -7.535019874572754 L 7.401217937469482 -5.826029777526855 L 7.539417743682861 -5.73112964630127 L 7.7010178565979 -5.686489582061768 L 10.18978786468506 -4.998989582061768 L 10.25577831268311 -4.980759620666504 L 10.32362747192383 -4.971699714660645 L 13.64198780059814 -4.528339862823486 L 13.70790767669678 -4.519529819488525 L 13.77441787719727 -4.519529819488525 L 17.24364852905273 -4.519529819488525 L 17.36554718017578 -4.519529819488525 L 17.48388862609863 -4.548819541931152 L 20.83008766174316 -5.376949787139893 L 20.87980842590332 -5.389249801635742 L 20.92800712585449 -5.406569480895996 L 23.23805809020996 -6.236639499664307 L 23.33734703063965 -6.272319793701172 L 23.4270076751709 -6.327929496765137 L 25.33203887939453 -7.509579658508301 L 25.37203788757324 -7.534399509429932 L 25.40953826904297 -7.562849521636963 L 27.72789764404297 -9.322609901428223 L 27.88623809814453 -9.44281005859375 L 27.98656845092773 -9.614419937133789 L 28.08978462219238 -9.790963172912598 L 28.59472846984863 -4.669617652893066 L 28.59472846984863 -0.08965587615966797 L 27.30430030822754 2.248642683029175 L 25.31957817077637 3.572219848632813 L 20.3829460144043 5.21799898147583 L 15.41263103485107 5.677730083465576 Z" stroke="none"/>
            <path d="M 27.2878246307373 -7.733126163482666 L 26.01413726806641 -6.766329765319824 C 25.96417808532715 -6.728399753570557 25.9124584197998 -6.692849636077881 25.8591480255127 -6.659789562225342 L 23.95411682128906 -5.478139877319336 C 23.83490753173828 -5.404189586639404 23.70823860168457 -5.342989921569824 23.57621765136719 -5.295549392700195 L 21.26616668701172 -4.465479850769043 C 21.20193862915039 -4.442399978637695 21.13656806945801 -4.422629356384277 21.0703182220459 -4.406229972839355 L 17.72411727905273 -3.578099727630615 C 17.56692886352539 -3.539199590682983 17.40558815002441 -3.519529581069946 17.24364852905273 -3.519529581069946 L 13.77441787719727 -3.519529581069946 C 13.68583869934082 -3.519529581069946 13.59735870361328 -3.525409698486328 13.50955772399902 -3.537149667739868 L 10.19119834899902 -3.980509757995605 C 10.10082817077637 -3.992579698562622 10.01139831542969 -4.010819435119629 9.923517227172852 -4.035089492797852 L 7.434747695922852 -4.722589492797852 C 7.22077751159668 -4.781699657440186 7.018136978149414 -4.876019477844238 6.835147857666016 -5.001679420471191 L 4.346378326416016 -6.71066951751709 C 4.241827011108398 -6.782459735870361 4.144338607788086 -6.864039897918701 4.055238723754883 -6.95428991317749 L 3.717527389526367 -7.296371459960938 L 3.717527389526367 -3.889635562896729 L 4.211217880249023 -0.1045565605163574 L 5.390209197998047 1.559572219848633 L 6.881267547607422 2.752872467041016 L 10.26423645019531 4.238283157348633 L 15.40869140625 4.673824310302734 L 20.17604827880859 4.232856750488281 L 24.876220703125 2.665908813476563 L 26.54660034179688 1.551967620849609 L 27.59472846984863 -0.3472738265991211 L 27.59472846984863 -4.620384216308594 L 27.2878246307373 -7.733126163482666 M 2.069828033447266 -13.4375 L 2.292238235473633 -13.4375 L 3.442377090454102 -10.42187976837158 L 5.478517532348633 -8.359379768371582 L 7.967287063598633 -6.650389671325684 L 10.45605850219727 -5.962889671325684 L 13.77441787719727 -5.519529819488525 L 17.24364852905273 -5.519529819488525 L 20.58984756469727 -6.347659587860107 L 22.89989852905273 -7.177729606628418 L 24.80492782592773 -8.359379768371582 L 27.12328720092773 -10.11913967132568 L 28.78246688842773 -12.95702934265137 L 29.59472846984863 -4.71875 L 29.59472846984863 0.1679701805114746 L 28.06200790405273 2.945310592651367 L 25.76293754577637 4.478509902954102 L 20.58984756469727 6.203120231628418 L 15.41650772094727 6.681640625 L 9.764408111572266 6.203120231628418 L 5.836668014526367 4.478509902954102 L 3.9208984375 2.945310592651367 L 2.292238235473633 0.6464800834655762 L 1.717527389526367 -3.759769678115845 L 1.717527389526367 -8.359379768371582 L 2.069828033447266 -13.4375 Z" stroke="none" fill="#0b2e60"/>
          </g>
        </g>
      </g>
    </g>
    <g id="Group_273" data-name="Group 273">
      <line id="Line_90" data-name="Line 90" x2="92" y2="56" transform="translate(-3052.5 -17912.5)" fill="none" stroke="#0c6f99" stroke-linecap="round" stroke-width="5"/>
      <line id="Line_91" data-name="Line 91" x2="74" y2="44" transform="translate(-3056.5 -17900.5)" fill="none" stroke="#0c6f99" stroke-linecap="round" stroke-width="5"/>
      <line id="Line_92" data-name="Line 92" x2="65" y2="39" transform="translate(-3033.5 -17915.5)" fill="none" stroke="#0c6f99" stroke-linecap="round" stroke-width="5"/>
    </g>
  </g>
</svg>
