<svg xmlns="http://www.w3.org/2000/svg" xmlns:xlink="http://www.w3.org/1999/xlink" width="520" height="520" viewBox="0 0 520 520">
  <defs>
    <clipPath id="clip-path">
      <rect id="Rectangle_569" data-name="Rectangle 569" width="520" height="520" transform="translate(-2693 -19413)" fill="#fff" stroke="#707070" stroke-width="1"/>
    </clipPath>
  </defs>
  <g id="Finance" transform="translate(2693 19413)" clip-path="url(#clip-path)">
    <g id="business-and-finance" transform="translate(-2693 -19400.174)">
      <path id="Path_2495" data-name="Path 2495" d="M519.059,407.781a44.269,44.269,0,0,0-53.225-34.146l-54.2,12.41V363.887a214.1,214.1,0,0,0,30.239-35.829,210.043,210.043,0,0,0,29.691-69.923,214.25,214.25,0,0,0,.409-90.946,10.157,10.157,0,0,0-19.864,4.253,193.69,193.69,0,0,1-.369,82.258,189.813,189.813,0,0,1-26.831,63.183A180.82,180.82,0,0,1,411.633,334.4V221.823a10.155,10.155,0,0,0-10.156-10.156H321.135V103.209a10.158,10.158,0,0,0-10.121-10.156l-90.5-.305h-.032A10.159,10.159,0,0,0,210.329,102.9v56.419H129.976a10.158,10.158,0,0,0-10.156,10.156V270.053H97.19V256.259a10.155,10.155,0,0,0-10.156-10.152H76.616a192.223,192.223,0,0,1,8.3-99.611c1.892-5.221,4.043-10.426,6.387-15.465a10.155,10.155,0,1,0-18.412-8.573c-2.6,5.578-4.979,11.339-7.07,17.115A212.233,212.233,0,0,0,56.01,246.106H10.156A10.155,10.155,0,0,0,0,256.263V434.782a10.155,10.155,0,0,0,10.156,10.156H87.034A10.155,10.155,0,0,0,97.19,434.782v-9.656h38.2l154.76,60.7a122.241,122.241,0,0,0,75.164,4.7l121.3-30.83a44.187,44.187,0,0,0,32.44-51.916Zm-127.735-175.8V390.693l-27.152,6.217c-2.92.667-5.872,1.194-8.839,1.607a103.1,103.1,0,0,1-34.055-.988c-.048-.012-.1-.02-.143-.032V382.1a47.036,47.036,0,0,0,6.252-39.57,45.61,45.61,0,0,0-4.781-10.648q-.7-1.131-1.452-2.214a.139.139,0,0,0-.02-.032V231.974h70.189ZM230.641,113.095l70.185.234V313.5L261.6,297.268,230.641,284.45Zm-90.51,66.539h70.185v96.4l-12.6-5.213a10.141,10.141,0,0,0-3.884-.774H140.132ZM76.877,424.626H20.312V266.415H68.229c.02,0,.044,0,.067,0s.036,0,.056,0h8.526Zm404.739,15.385-121.3,30.83a102.072,102.072,0,0,1-62.747-3.924l-156.545-61.4a10.144,10.144,0,0,0-3.709-.7H97.189V290.366h94.624l65.714,27.2,35.96,14.885a25.4,25.4,0,0,1,13.6,32.909,29.038,29.038,0,0,1-4.066,7.137,26.18,26.18,0,0,1-26.62,9.184l-.238-.06c-.587-.147-1.17-.317-1.75-.508l-68.337-26.271c-.555-.214-.849-.325-.849-.325a10.156,10.156,0,1,0-7.288,18.96s38.53,14.814,67.912,26.144c.591.23,1.178.444,1.769.643l22.562,8.676a186.512,186.512,0,0,0,20.705,7.046,123.221,123.221,0,0,0,57.827.726l35.035-8.018c.036-.008.071-.024.107-.032l66.515-15.226a23.959,23.959,0,0,1,11.247,46.576Zm0,0" fill="#fff"/>
      <path id="Path_2496" data-name="Path 2496" d="M129.877,72.236a10.115,10.115,0,0,0,6.8-2.618A190.851,190.851,0,0,1,277.7,20.721a190.492,190.492,0,0,1,55.371,12.061A10.155,10.155,0,1,0,340.3,13.8,210.754,210.754,0,0,0,279.031.452a211.177,211.177,0,0,0-155.962,54.09,10.156,10.156,0,0,0,6.808,17.694Zm0,0" fill="#fff"/>
      <path id="Path_2497" data-name="Path 2497" d="M360.432,144.718a10.166,10.166,0,0,0,14.33-1l83.559-96.187a10.155,10.155,0,0,0-15.33-13.322l-83.563,96.187a10.152,10.152,0,0,0,1,14.326Zm0,0" fill="#fff"/>
      <path id="Path_2498" data-name="Path 2498" d="M435.314,101.3a25.5,25.5,0,1,0,25.5,25.5A25.526,25.526,0,0,0,435.314,101.3Zm0,30.683a5.185,5.185,0,1,1,5.185-5.185A5.189,5.189,0,0,1,435.314,131.98Zm0,0" fill="#fff"/>
      <path id="Path_2499" data-name="Path 2499" d="M378.915,78.687a25.5,25.5,0,1,0-25.5-25.5A25.526,25.526,0,0,0,378.915,78.687Zm0-30.687a5.187,5.187,0,1,1-5.185,5.189A5.193,5.193,0,0,1,378.915,48Zm0,0" fill="#fff"/>
      <path id="Path_2500" data-name="Path 2500" d="M93.771,96.1a10.15,10.15,0,1,0,3.737-12.33A10.239,10.239,0,0,0,93.771,96.1Zm0,0" fill="#fff"/>
    </g>
  </g>
</svg>
