<svg width="24" height="24" viewBox="0 0 24 24" fill="none" xmlns="http://www.w3.org/2000/svg">
<path opacity="0.35" d="M20 9C19.647 9 4 9 4 9V15C4 15 19.647 15 20 15C21.657 15 23 13.657 23 12C23 10.343 21.657 9 20 9Z" fill="white"/>
<path d="M4 9H2V11H4V9Z" fill="white"/>
<path d="M2 11C2.55228 11 3 10.5523 3 10C3 9.44772 2.55228 9 2 9C1.44772 9 1 9.44772 1 10C1 10.5523 1.44772 11 2 11Z" fill="white"/>
<path d="M4 13H2V15H4V13Z" fill="white"/>
<path d="M2 15C2.55228 15 3 14.5523 3 14C3 13.4477 2.55228 13 2 13C1.44772 13 1 13.4477 1 14C1 14.5523 1.44772 15 2 15Z" fill="white"/>
<path d="M14.42 9L9.019 2.698C8.639 2.255 8.085 2 7.501 2H6C4.895 2 4 2.895 4 4V9H14.42Z" fill="white"/>
<path d="M14.42 15L9.019 21.302C8.639 21.745 8.085 22 7.501 22H6C4.895 22 4 21.105 4 20V15H14.42Z" fill="white"/>
</svg>
