<svg width="24" height="24" viewBox="0 0 24 24" fill="none" xmlns="http://www.w3.org/2000/svg">
<path d="M12 17C12.5523 17 13 16.5523 13 16C13 15.4477 12.5523 15 12 15C11.4477 15 11 15.4477 11 16C11 16.5523 11.4477 17 12 17Z" fill="white"/>
<path d="M12 11C12.5523 11 13 10.5523 13 10C13 9.44772 12.5523 9 12 9C11.4477 9 11 9.44772 11 10C11 10.5523 11.4477 11 12 11Z" fill="white"/>
<path d="M14 14C14.5523 14 15 13.5523 15 13C15 12.4477 14.5523 12 14 12C13.4477 12 13 12.4477 13 13C13 13.5523 13.4477 14 14 14Z" fill="white"/>
<path d="M10 14C10.5523 14 11 13.5523 11 13C11 12.4477 10.5523 12 10 12C9.44772 12 9 12.4477 9 13C9 13.5523 9.44772 14 10 14Z" fill="white"/>
<path d="M14.223 12.026L13 11.5V10L11.234 9.353L9.20801 12.387L9.77701 13.973L11 14.5V16L12.767 16.646L14.792 13.612L14.223 12.026Z" fill="white"/>
<path opacity="0.35" d="M18.843 7.354L18.194 7.728L15.464 3C14.741 1.748 13.446 1 12 1C10.554 1 9.25904 1.748 8.53604 2.999L8.10204 3.749C7.82604 4.228 7.99004 4.839 8.46804 5.116C8.94704 5.39 9.55804 5.228 9.83504 4.751L10.269 4C10.63 3.374 11.277 3 12 3C12.723 3 13.37 3.374 13.731 4L16.461 8.729L15.756 9.136C15.242 9.433 15.242 10.175 15.756 10.472L18.842 12.254C19.357 12.552 20 12.18 20 11.586V8.023C20 7.429 19.357 7.058 18.843 7.354Z" fill="white"/>
<path opacity="0.35" d="M22.393 15L21.671 13.75C21.394 13.271 20.781 13.107 20.305 13.384C19.826 13.66 19.662 14.272 19.939 14.75L20.66 16C21.021 16.626 21.021 17.374 20.66 18C20.299 18.626 19.65 19 18.928 19H10V18.089C10 17.494 9.35601 17.123 8.84101 17.42L5.75501 19.206C5.24101 19.503 5.24101 20.246 5.75501 20.543L8.84101 22.329C9.35601 22.627 10 22.256 10 21.661V21H18.928C20.374 21 21.669 20.252 22.392 19C23.115 17.748 23.115 16.253 22.393 15Z" fill="white"/>
<path opacity="0.35" d="M7.09295 5.995L4.00595 7.777C3.49195 8.074 3.49195 8.816 4.00595 9.113L4.75595 9.546L1.60695 15C0.683951 16.599 0.971951 18.61 2.30595 19.894C2.50095 20.08 2.75095 20.173 2.99995 20.173C3.26295 20.173 3.52395 20.07 3.72095 19.866C4.10395 19.468 4.09095 18.835 3.69395 18.452C3.12695 17.907 2.79795 16.938 3.33995 16L6.48895 10.547L7.09295 10.896C7.60695 11.193 8.24995 10.822 8.24995 10.228V6.664C8.24995 6.07 7.60695 5.698 7.09295 5.995Z" fill="white"/>
</svg>
