<svg width="24" height="24" viewBox="0 0 24 24" fill="none" xmlns="http://www.w3.org/2000/svg">
<path opacity="0.35" d="M19 4H5C3.343 4 2 5.343 2 7V11L4 12L2 13V17C2 18.657 3.343 20 5 20H19C20.657 20 22 18.657 22 17V13L20 12L22 11V7C22 5.343 20.657 4 19 4Z" fill="white"/>
<path d="M22 11V13H18.68L16.93 17.37C16.78 17.75 16.41 18 16 18C15.99 18 15.99 18 15.98 18C15.56 17.99 15.19 17.72 15.06 17.33L12.47 9.93999L10.44 15.35C10.3 15.72 9.95 15.98 9.55 16C9.18 16.02 8.78 15.8 8.61 15.45L6.5 11.24L5.89 12.45C5.72 12.79 5.38 13 5 13H2V11H4.38L5.61 8.54999C5.95 7.87999 7.05 7.87999 7.39 8.54999L9.37 12.5L11.56 6.65999C11.71 6.26999 12.08 6.00999 12.5 6.00999H12.51C12.93 6.01999 13.3 6.27999 13.44 6.67999L16.06 14.15L17.07 11.63C17.22 11.25 17.59 11 18 11H22Z" fill="white"/>
</svg>
