<svg width="24" height="24" viewBox="0 0 24 24" fill="none" xmlns="http://www.w3.org/2000/svg">
<path opacity="0.35" d="M20.2 9.933L19.5 9L18.918 5.507C18.677 4.06 17.425 3 15.959 3H8.041C6.575 3 5.323 4.06 5.082 5.507L4.5 9L3.8 9.933C3.281 10.625 3 11.468 3 12.333V18C3 18.552 3.448 19 4 19H20C20.552 19 21 18.552 21 18V12.333C21 11.468 20.719 10.626 20.2 9.933Z" fill="white"/>
<path d="M17.5 15C18.3284 15 19 14.3284 19 13.5C19 12.6716 18.3284 12 17.5 12C16.6716 12 16 12.6716 16 13.5C16 14.3284 16.6716 15 17.5 15Z" fill="white"/>
<path d="M6.5 15C7.32843 15 8 14.3284 8 13.5C8 12.6716 7.32843 12 6.5 12C5.67157 12 5 12.6716 5 13.5C5 14.3284 5.67157 15 6.5 15Z" fill="white"/>
<path d="M20 19H18V20C18 20.552 18.448 21 19 21H20C20.552 21 21 20.552 21 20V18C21 18.552 20.552 19 20 19Z" fill="white"/>
<path d="M4 19H6V20C6 20.552 5.552 21 5 21H4C3.448 21 3 20.552 3 20V18C3 18.552 3.448 19 4 19Z" fill="white"/>
<path d="M14 15H10C9.448 15 9 15.448 9 16C9 16.552 9.448 17 10 17H14C14.552 17 15 16.552 15 16C15 15.448 14.552 15 14 15Z" fill="white"/>
</svg>
