<svg width="24" height="24" viewBox="0 0 24 24" fill="none" xmlns="http://www.w3.org/2000/svg">
<path opacity="0.35" d="M14 4H9V6H14C14.552 6 15 5.552 15 5C15 4.448 14.552 4 14 4Z" fill="white"/>
<path d="M2 15.697V14H6L4.387 16.42C4.145 16.782 3.738 17 3.303 17C2.583 17 2 16.417 2 15.697Z" fill="white"/>
<path d="M7.00997 3.453L7.82897 10H16.829L9.20697 2.379C8.96497 2.136 8.63597 2 8.29297 2C7.51497 2 6.91397 2.682 7.00997 3.453Z" fill="white"/>
<path opacity="0.35" d="M14 20H9V18H14C14.552 18 15 18.448 15 19C15 19.552 14.552 20 14 20Z" fill="white"/>
<path d="M7.00997 20.547L7.82897 14H16.829L9.20797 21.621C8.96497 21.864 8.63597 22 8.29297 22C7.51497 22 6.91397 21.318 7.00997 20.547Z" fill="white"/>
<path d="M2 8.303V10H6L4.387 7.58C4.145 7.218 3.738 7 3.303 7C2.583 7 2 7.583 2 8.303Z" fill="white"/>
<path opacity="0.35" d="M20 14C21.105 14 22 13.105 22 12C22 10.895 21.105 10 20 10C19.399 10 2 10 2 10V14C2 14 19.399 14 20 14Z" fill="white"/>
</svg>
