<svg width="24" height="24" viewBox="0 0 24 24" fill="none" xmlns="http://www.w3.org/2000/svg">
<path opacity="0.35" d="M18 3H6C5.20435 3 4.44129 3.31607 3.87868 3.87868C3.31607 4.44129 3 5.20435 3 6V18C3 18.7956 3.31607 19.5587 3.87868 20.1213C4.44129 20.6839 5.20435 21 6 21H18C18.7956 21 19.5587 20.6839 20.1213 20.1213C20.6839 19.5587 21 18.7956 21 18V6C21 5.20435 20.6839 4.44129 20.1213 3.87868C19.5587 3.31607 18.7956 3 18 3Z" fill="white"/>
<path d="M17.5999 12C17.5997 11.7476 17.6547 11.4982 17.7611 11.2693C17.8675 11.0404 18.0227 10.8375 18.2158 10.675C18.3824 10.5414 18.5034 10.3593 18.562 10.154C18.6206 9.9486 18.6139 9.7301 18.5429 9.5287C18.2743 8.81683 17.8911 8.15366 17.4085 7.56544C17.2777 7.40502 17.0997 7.28971 16.8999 7.23577C16.7 7.18183 16.4882 7.19197 16.2944 7.26478C16.0522 7.3589 15.7919 7.39735 15.5328 7.37729C15.2737 7.35722 15.0224 7.27915 14.7975 7.14885C14.5727 7.01855 14.38 6.83936 14.2338 6.62453C14.0875 6.40971 13.9914 6.16475 13.9527 5.90778C13.9207 5.70606 13.8263 5.51942 13.6829 5.37407C13.5394 5.22872 13.354 5.13197 13.1527 5.09741C12.3896 4.96753 11.6101 4.96753 10.8471 5.09741C10.6458 5.13197 10.4604 5.22872 10.3169 5.37407C10.1734 5.51942 10.0791 5.70606 10.0471 5.90778C10.0083 6.16475 9.91227 6.40971 9.76603 6.62453C9.61979 6.83936 9.42711 7.01855 9.20226 7.14885C8.9774 7.27915 8.72613 7.35722 8.46703 7.37729C8.20793 7.39735 7.94763 7.3589 7.70539 7.26478C7.51158 7.19197 7.29981 7.18183 7.09992 7.23577C6.90004 7.28971 6.72212 7.40502 6.59125 7.56544C6.10868 8.15366 5.72552 8.81683 5.45694 9.52869C5.38593 9.7301 5.37926 9.94859 5.43786 10.154C5.49646 10.3593 5.61743 10.5414 5.78403 10.675C5.97698 10.8377 6.13206 11.0405 6.23845 11.2694C6.34484 11.4983 6.39996 11.7476 6.39996 12C6.39996 12.2524 6.34484 12.5017 6.23845 12.7306C6.13206 12.9594 5.97698 13.1623 5.78403 13.325C5.61744 13.4586 5.49647 13.6407 5.43788 13.846C5.37928 14.0514 5.38594 14.2699 5.45694 14.4713C5.72556 15.1832 6.10874 15.8463 6.59134 16.4345C6.7222 16.5949 6.90012 16.7103 7.10001 16.7642C7.2999 16.8182 7.51167 16.808 7.70548 16.7352C7.94771 16.641 8.20801 16.6026 8.46711 16.6226C8.72621 16.6427 8.97749 16.7207 9.20235 16.851C9.4272 16.9813 9.61988 17.1605 9.76613 17.3753C9.91237 17.5902 10.0084 17.8351 10.0472 18.0921C10.0792 18.2938 10.1736 18.4805 10.317 18.6258C10.4605 18.7712 10.6459 18.868 10.8472 18.9026C11.6102 19.0325 12.3897 19.0325 13.1528 18.9026C13.354 18.868 13.5394 18.7712 13.6829 18.6258C13.8264 18.4805 13.9208 18.2938 13.9528 18.0921C13.9915 17.8351 14.0876 17.5902 14.2338 17.3753C14.3801 17.1605 14.5728 16.9813 14.7976 16.851C15.0225 16.7207 15.2737 16.6427 15.5329 16.6226C15.792 16.6026 16.0523 16.641 16.2945 16.7352C16.4883 16.808 16.7001 16.8182 16.9 16.7642C17.0998 16.7103 17.2778 16.5949 17.4086 16.4345C17.8912 15.8463 18.2744 15.1832 18.543 14.4713C18.614 14.2699 18.6207 14.0514 18.5621 13.846C18.5035 13.6407 18.3825 13.4586 18.2159 13.325C18.0228 13.1624 17.8676 12.9596 17.7612 12.7307C17.6548 12.5018 17.5997 12.2524 17.5999 12V12ZM11.9999 15C11.4066 15 10.8266 14.8241 10.3332 14.4944C9.83988 14.1648 9.45537 13.6962 9.2283 13.1481C9.00124 12.5999 8.94183 11.9967 9.05759 11.4147C9.17334 10.8328 9.45906 10.2982 9.87862 9.87868C10.2982 9.45912 10.8327 9.1734 11.4147 9.05764C11.9966 8.94189 12.5998 9.0013 13.148 9.22836C13.6962 9.45542 14.1647 9.83994 14.4944 10.3333C14.824 10.8266 14.9999 11.4067 14.9999 12C14.9999 12.7956 14.6839 13.5587 14.1213 14.1213C13.5587 14.6839 12.7956 15 11.9999 15Z" fill="white"/>
</svg>
