<svg width="24" height="24" viewBox="0 0 24 24" fill="none" xmlns="http://www.w3.org/2000/svg">
<path opacity="0.35" d="M21.9969 7.974C22.0539 6.964 21.3419 6.037 20.3379 5.872C16.1659 5.189 16.4869 2 11.9999 2C7.51295 2 7.83395 5.189 3.66195 5.872C2.65895 6.036 1.94595 6.963 2.00295 7.974C2.43295 15.604 5.50195 19.229 11.9999 22C18.4979 19.229 21.5669 15.604 21.9969 7.974Z" fill="white"/>
<path d="M16 10C16 7.79 14.21 6 12 6C9.79 6 8 7.79 8 10C7.45 10 7 10.45 7 11V15C7 15.55 7.45 16 8 16H16C16.55 16 17 15.55 17 15V11C17 10.45 16.55 10 16 10ZM13 13C13 13.55 12.55 14 12 14C11.45 14 11 13.55 11 13C11 12.45 11.45 12 12 12C12.55 12 13 12.45 13 13ZM10 10C10 8.9 10.9 8 12 8C13.1 8 14 8.9 14 10H10Z" fill="white"/>
</svg>
