<svg width="24" height="24" viewBox="0 0 24 24" fill="none" xmlns="http://www.w3.org/2000/svg">
<path opacity="0.35" d="M8 10H3C1.895 10 1 9.105 1 8V5C1 3.895 1.895 3 3 3H8C9.105 3 10 3.895 10 5V8C10 9.105 9.105 10 8 10Z" fill="white"/>
<path opacity="0.35" d="M21 22H16C14.895 22 14 21.105 14 20V12C14 10.895 14.895 10 16 10H21C22.105 10 23 10.895 23 12V20C23 21.105 22.105 22 21 22Z" fill="white"/>
<path d="M5.5 15C6.32843 15 7 14.3284 7 13.5C7 12.6716 6.32843 12 5.5 12C4.67157 12 4 12.6716 4 13.5C4 14.3284 4.67157 15 5.5 15Z" fill="white"/>
<path d="M5.5 20C6.32843 20 7 19.3284 7 18.5C7 17.6716 6.32843 17 5.5 17C4.67157 17 4 17.6716 4 18.5C4 19.3284 4.67157 20 5.5 20Z" fill="white"/>
<path d="M10.5 20C11.3284 20 12 19.3284 12 18.5C12 17.6716 11.3284 17 10.5 17C9.67157 17 9 17.6716 9 18.5C9 19.3284 9.67157 20 10.5 20Z" fill="white"/>
<path d="M18.5 20C19.3284 20 20 19.3284 20 18.5C20 17.6716 19.3284 17 18.5 17C17.6716 17 17 17.6716 17 18.5C17 19.3284 17.6716 20 18.5 20Z" fill="white"/>
</svg>
