<svg xmlns="http://www.w3.org/2000/svg" xmlns:xlink="http://www.w3.org/1999/xlink" width="212" height="223" viewBox="0 0 212 223">
  <defs>
    <clipPath id="clip-path">
      <rect id="Rectangle_589" data-name="Rectangle 589" width="212" height="223" transform="translate(7011 -16763)" fill="#fff" stroke="#707070" stroke-width="1"/>
    </clipPath>
  </defs>
  <g id="IdeasProd" transform="translate(-7011 16763)" clip-path="url(#clip-path)">
    <g id="idea_1_" data-name="idea (1)" transform="translate(7011 -16757.5)">
      <g id="Group_997" data-name="Group 997">
        <g id="Group_996" data-name="Group 996">
          <path id="Path_2543" data-name="Path 2543" d="M92.633,51.658A55.27,55.27,0,0,0,51.851,91.835c-4.9,19.833.708,40.049,15.013,54.077,5.06,4.963,8.081,12.916,8.081,21.277v1.335A18.589,18.589,0,0,0,81.156,182.4v10.971A18.654,18.654,0,0,0,99.789,212h12.422a18.654,18.654,0,0,0,18.633-18.633V182.4a18.588,18.588,0,0,0,6.211-13.873v-1.359c0-8.233,3.183-16.338,8.514-21.681A55.937,55.937,0,0,0,92.633,51.658Zm25.789,141.709a6.218,6.218,0,0,1-6.211,6.211H99.789a6.218,6.218,0,0,1-6.211-6.211v-6.211h24.844Zm18.354-56.658a43.229,43.229,0,0,0-12.143,30.455v1.359a6.218,6.218,0,0,1-6.211,6.211H93.578a6.218,6.218,0,0,1-6.211-6.211v-1.335c0-11.8-4.3-22.788-11.806-30.145A43.786,43.786,0,0,1,63.909,94.817,42.739,42.739,0,0,1,95.454,63.756c28.435-6.63,54.023,14.6,54.023,42.244A43.2,43.2,0,0,1,136.776,136.709Z" fill="#fff"/>
        </g>
      </g>
      <g id="Group_999" data-name="Group 999">
        <g id="Group_998" data-name="Group 998">
          <path id="Path_2544" data-name="Path 2544" d="M57.69,48.907,40.123,31.34a6.211,6.211,0,0,0-8.784,8.784L48.907,57.69a6.211,6.211,0,1,0,8.784-8.784Z" fill="#fff"/>
        </g>
      </g>
      <g id="Group_1001" data-name="Group 1001">
        <g id="Group_1000" data-name="Group 1000">
          <path id="Path_2545" data-name="Path 2545" d="M31.469,99.789H6.211a6.211,6.211,0,0,0,0,12.422H31.469a6.211,6.211,0,0,0,0-12.422Z" fill="#fff"/>
        </g>
      </g>
      <g id="Group_1003" data-name="Group 1003">
        <g id="Group_1002" data-name="Group 1002">
          <path id="Path_2546" data-name="Path 2546" d="M205.789,99.789H180.531a6.211,6.211,0,0,0,0,12.422h25.258a6.211,6.211,0,0,0,0-12.422Z" fill="#fff"/>
        </g>
      </g>
      <g id="Group_1005" data-name="Group 1005">
        <g id="Group_1004" data-name="Group 1004">
          <path id="Path_2547" data-name="Path 2547" d="M180.661,31.34a6.211,6.211,0,0,0-8.784,0L154.31,48.907a6.211,6.211,0,1,0,8.784,8.784l17.567-17.567A6.211,6.211,0,0,0,180.661,31.34Z" fill="#fff"/>
        </g>
      </g>
      <g id="Group_1007" data-name="Group 1007">
        <g id="Group_1006" data-name="Group 1006">
          <path id="Path_2548" data-name="Path 2548" d="M106,0a6.211,6.211,0,0,0-6.211,6.211V31.469a6.211,6.211,0,0,0,12.422,0V6.211A6.211,6.211,0,0,0,106,0Z" fill="#fff"/>
        </g>
      </g>
      <g id="Group_1009" data-name="Group 1009">
        <g id="Group_1008" data-name="Group 1008">
          <path id="Path_2549" data-name="Path 2549" d="M106,74.945a33.942,33.942,0,0,0-7.726.908A30.638,30.638,0,0,0,75.965,97.79a6.211,6.211,0,1,0,12.056,2.99A18.188,18.188,0,0,1,101.1,87.949a21.519,21.519,0,0,1,4.9-.582,6.211,6.211,0,0,0,0-12.422Z" fill="#fff"/>
        </g>
      </g>
    </g>
  </g>
</svg>
