<svg xmlns="http://www.w3.org/2000/svg"  width="70" height="100" viewBox="0 0 218 203">
  <defs>
    <clipPath id="clip-path">
      <rect id="Rectangle_590" data-name="Rectangle 590" width="218" height="203" transform="translate(6998 -16775)" fill="#fff" stroke="#707070" stroke-width="1"/>
    </clipPath>
  </defs>
  <g id="Indus" transform="translate(-6998 16775)" clip-path="url(#clip-path)">
    <g id="factory_1_" data-name="factory (1)" transform="translate(7005.5 -16775)">
      <g id="Group_1011" data-name="Group 1011">
        <g id="Group_1010" data-name="Group 1010">
          <path id="Path_2550" data-name="Path 2550" d="M194.565,88.434a3.384,3.384,0,0,0-3.356-.041L181.9,93.566,179.317,3.289A3.383,3.383,0,0,0,175.933,0H152.25a3.383,3.383,0,0,0-3.383,3.289L145.713,113.68l-10.38,5.752V91.35a3.383,3.383,0,0,0-5.024-2.957L74.433,119.432V91.35a3.383,3.383,0,0,0-5.024-2.957l-60.9,33.833a3.383,3.383,0,0,0-1.742,2.957v74.433A3.383,3.383,0,0,0,10.15,203h182.7a3.383,3.383,0,0,0,3.383-3.383V91.35A3.383,3.383,0,0,0,194.565,88.434ZM155.539,6.767h17.106l.2,6.767h-17.5ZM155.15,20.3h17.884l2.2,76.967-22.645,12.576ZM98.117,196.233h-20.3V179.317h20.3Zm27.067,0h-20.3V179.317h20.3Zm64.283,0H131.95v-20.3a3.383,3.383,0,0,0-3.383-3.383H74.433a3.383,3.383,0,0,0-3.383,3.383v20.3H13.533V127.176L67.667,97.1v28.082a3.383,3.383,0,0,0,5.024,2.957L128.567,97.1v28.082a3.383,3.383,0,0,0,5.024,2.957L165.5,110.415l14.833-8.238,9.135-5.075Z" fill="#fff"/>
        </g>
      </g>
      <g id="Group_1013" data-name="Group 1013">
        <g id="Group_1012" data-name="Group 1012">
          <path id="Path_2551" data-name="Path 2551" d="M54.133,135.333H27.067a3.383,3.383,0,0,0-3.383,3.383V152.25a3.383,3.383,0,0,0,3.383,3.383H54.133a3.383,3.383,0,0,0,3.383-3.383V138.717A3.383,3.383,0,0,0,54.133,135.333ZM50.75,148.867H30.45V142.1h20.3Z" fill="#fff"/>
        </g>
      </g>
      <g id="Group_1015" data-name="Group 1015">
        <g id="Group_1014" data-name="Group 1014">
          <path id="Path_2552" data-name="Path 2552" d="M115.033,135.333H87.967a3.383,3.383,0,0,0-3.383,3.383V152.25a3.383,3.383,0,0,0,3.383,3.383h27.067a3.383,3.383,0,0,0,3.383-3.383V138.717A3.383,3.383,0,0,0,115.033,135.333Zm-3.383,13.533H91.35V142.1h20.3Z" fill="#fff"/>
        </g>
      </g>
      <g id="Group_1017" data-name="Group 1017">
        <g id="Group_1016" data-name="Group 1016">
          <path id="Path_2553" data-name="Path 2553" d="M175.933,135.333H148.867a3.383,3.383,0,0,0-3.383,3.383V152.25a3.383,3.383,0,0,0,3.383,3.383h27.067a3.383,3.383,0,0,0,3.383-3.383V138.717A3.383,3.383,0,0,0,175.933,135.333Zm-3.383,13.533h-20.3V142.1h20.3Z" fill="#fff"/>
        </g>
      </g>
    </g>
  </g>
</svg>
