<svg xmlns="http://www.w3.org/2000/svg" xmlns:xlink="http://www.w3.org/1999/xlink" width="1198" height="582.256" viewBox="0 0 1312.93 854.729">
  <defs>
    <clipPath id="clip-path">
      <rect id="Rectangle_561" data-name="Rectangle 561" width="226.619" height="258.379" transform="translate(5537 -11512)" fill="#fff" stroke="#707070" stroke-width="1"/>
    </clipPath>
    <linearGradient id="linear-gradient" x1="0.618" y1="0.415" x2="1.478" y2="-0.715" gradientUnits="objectBoundingBox">
      <stop offset="0" stop-color="#0c266d"/>
      <stop offset="0.498" stop-color="#0040b2"/>
      <stop offset="0.585" stop-color="#001771"/>
      <stop offset="0.712" stop-color="#006ffc"/>
      <stop offset="1"/>
    </linearGradient>
    <linearGradient id="linear-gradient-2" x1="3.398" y1="-1.09" x2="-0.45" gradientUnits="objectBoundingBox">
      <stop offset="0" stop-color="#80c1d2"/>
      <stop offset="1" stop-color="#042764"/>
    </linearGradient>
    <linearGradient id="linear-gradient-6" x1="-0.33" y1="0.401" x2="0.5" y2="1.281" gradientUnits="objectBoundingBox">
      <stop offset="0" stop-color="#023575"/>
      <stop offset="1" stop-color="#011b3b"/>
    </linearGradient>
    <linearGradient id="linear-gradient-14" x1="0.218" y1="0.522" x2="0.421" y2="0.545" gradientUnits="objectBoundingBox">
      <stop offset="0" stop-color="#3c4de5"/>
      <stop offset="0.697" stop-color="#3081df"/>
      <stop offset="1" stop-color="#25aed9"/>
    </linearGradient>
    <clipPath id="clip-path-2">
      <rect id="Rectangle_577" data-name="Rectangle 577" width="268.922" height="249.261" transform="translate(6119 -17667)" fill="#fff" stroke="#707070" stroke-width="1"/>
    </clipPath>
    <clipPath id="clip-path-3">
      <rect id="Rectangle_463" data-name="Rectangle 463" width="235.653" height="249.261" transform="translate(0)" fill="#fff" stroke="#707070" stroke-width="0.472"/>
    </clipPath>
    <clipPath id="clip-path-4">
      <rect id="Rectangle_578" data-name="Rectangle 578" width="225.716" height="227.001" transform="translate(6651 -18182)" fill="#fff" stroke="#707070" stroke-width="1"/>
    </clipPath>
    <clipPath id="clip-path-5">
      <rect id="Rectangle_465" data-name="Rectangle 465" width="225.716" height="227.001" fill="#fff" stroke="#707070" stroke-width="1"/>
    </clipPath>
    <clipPath id="clip-path-6">
      <rect id="Rectangle_580" data-name="Rectangle 580" width="1198" height="582.256" transform="translate(5537 -11512)" fill="#fff" stroke="#707070" stroke-width="1"/>
    </clipPath>
  </defs>
  <g id="IR_D-Rect" data-name="IR&amp;D-Rect" transform="translate(-1546 16637.328)">
    <g id="Mask_Group_116" data-name="Mask Group 116" transform="translate(-3922.876 -4980.379)" clip-path="url(#clip-path)">
      <g id="edit" transform="translate(5537 -11504.858)">
        <g id="Group_913" data-name="Group 913" transform="translate(124.299 138.33)">
          <path id="Path_2442" data-name="Path 2442" d="M476.494,518.71c-14.345,0-26.012-12.572-26.012-28.027s11.667-28.029,26.012-28.029,26.017,12.574,26.017,28.029S490.84,518.71,476.494,518.71Zm0-45.885c-9.136,0-16.572,8.01-16.572,17.858s7.435,17.856,16.572,17.856,16.576-8.01,16.576-17.856S485.635,472.825,476.494,472.825Z" transform="translate(-450.482 -462.654)" fill="#e7e5ea"/>
        </g>
        <g id="Group_914" data-name="Group 914" transform="translate(0 0)">
          <path id="Path_2443" data-name="Path 2443" d="M88.26,327.7a4.541,4.541,0,0,1-3.337-1.492,5.363,5.363,0,0,1-1.092-5.346l22.61-66.313a5.129,5.129,0,0,1,1.092-1.842L255.042,93.794a30.948,30.948,0,0,1,22.832-10.186A31.393,31.393,0,0,1,300.7,93.846,36.656,36.656,0,0,1,300.7,143l-51.678,55.675a4.483,4.483,0,0,1-6.675,0,5.366,5.366,0,0,1,0-7.191L294.03,135.8a25.929,25.929,0,0,0,0-34.763,22.226,22.226,0,0,0-16.157-7.258,21.9,21.9,0,0,0-16.157,7.206L114.941,259.11,96.2,314.07l51.056-20.148,32.351-34.855a4.483,4.483,0,0,1,6.675,0,5.366,5.366,0,0,1,0,7.191L153.2,301.908a4.651,4.651,0,0,1-1.715,1.179l-61.6,24.307a4.424,4.424,0,0,1-1.623.31Z" transform="translate(-83.54 -83.609)" fill="#008a00"/>
        </g>
        <g id="Group_915" data-name="Group 915" transform="translate(22.609 167.618)">
          <path id="Path_2444" data-name="Path 2444" d="M194.039,595.137a4.794,4.794,0,0,1-4.545-3.73l-7.758-30.172-27.99-8.346a5.144,5.144,0,0,1-3.291-6.257,4.712,4.712,0,0,1,5.808-3.546L186.83,552.2a4.917,4.917,0,0,1,3.291,3.543l8.473,32.945a5.147,5.147,0,0,1-3.291,6.26,4.444,4.444,0,0,1-1.263.186Z" transform="translate(-150.282 -542.908)" fill="#008a00"/>
        </g>
        <g id="Group_916" data-name="Group 916" transform="translate(148.347 32.153)">
          <path id="Path_2445" data-name="Path 2445" d="M565.2,223.9a4.539,4.539,0,0,1-3.337-1.49l-39-42.016a5.366,5.366,0,0,1,0-7.191,4.483,4.483,0,0,1,6.675,0l39,42.016a5.366,5.366,0,0,1,0,7.191A4.539,4.539,0,0,1,565.2,223.9Z" transform="translate(-521.474 -171.714)" fill="#008a00"/>
        </g>
        <g id="Group_917" data-name="Group 917" transform="translate(80.457 91.101)">
          <path id="Path_2446" data-name="Path 2446" d="M400.268,483.753H381.589a4.835,4.835,0,0,1-4.651-4.221l-2.886-18.037a50.034,50.034,0,0,1-6-2.657L354.19,469.381a4.469,4.469,0,0,1-6.062-.559l-13.174-14.191a5.383,5.383,0,0,1-.521-6.525l9.708-14.846a59.817,59.817,0,0,1-2.558-6.6l-16.6-3.072a4.99,4.99,0,0,1-3.923-5.011V398.457a5,5,0,0,1,3.914-5.011l16.429-3.062a57.748,57.748,0,0,1,2.6-6.841l-9.565-14.613a5.377,5.377,0,0,1,.516-6.521l13.174-14.233a4.476,4.476,0,0,1,6.071-.561l13.419,10.233a48.971,48.971,0,0,1,6.518-2.947l2.807-17.444a4.836,4.836,0,0,1,4.651-4.216h18.678a4.836,4.836,0,0,1,4.651,4.216l2.807,17.476a48.7,48.7,0,0,1,6.518,2.92l13.423-10.238a4.476,4.476,0,0,1,6.071.561l13.174,14.233a5.376,5.376,0,0,1,.516,6.521l-9.565,14.613a57.738,57.738,0,0,1,2.6,6.841l16.387,3.062a4.992,4.992,0,0,1,3.914,5.011v20.123a4.992,4.992,0,0,1-3.918,5.011l-16.572,3.069a60.175,60.175,0,0,1-2.554,6.6l9.708,14.846a5.383,5.383,0,0,1-.521,6.525l-13.174,14.191a4.464,4.464,0,0,1-6.057.559L413.8,458.833a50.549,50.549,0,0,1-5.993,2.659l-2.89,18.04a4.839,4.839,0,0,1-4.651,4.221Zm-14.7-10.171h10.722L399,456.695a4.961,4.961,0,0,1,3.388-4.035,41.861,41.861,0,0,0,9.5-4.211,4.433,4.433,0,0,1,5.015.291l12.976,9.863,7.555-8.137-9.09-13.9a5.425,5.425,0,0,1-.249-5.438,48.655,48.655,0,0,0,4-10.335,4.861,4.861,0,0,1,3.743-3.633l15.493-2.87V402.735l-15.35-2.865a4.875,4.875,0,0,1-3.752-3.7,47.161,47.161,0,0,0-3.987-10.511,5.416,5.416,0,0,1,.249-5.433l8.943-13.662-7.555-8.164-12.561,9.577a4.439,4.439,0,0,1-5.1.246,39.733,39.733,0,0,0-9.883-4.432,4.97,4.97,0,0,1-3.407-4.037l-2.627-16.341H385.563l-2.623,16.3a4.963,4.963,0,0,1-3.407,4.035,39.931,39.931,0,0,0-9.883,4.475,4.435,4.435,0,0,1-5.1-.246L351.991,358.4l-7.555,8.164,8.943,13.662a5.415,5.415,0,0,1,.249,5.433,47.161,47.161,0,0,0-3.987,10.511,4.871,4.871,0,0,1-3.752,3.7L330.5,402.737v11.556l15.525,2.87a4.863,4.863,0,0,1,3.748,3.633,48.689,48.689,0,0,0,4.006,10.335,5.425,5.425,0,0,1-.249,5.438l-9.09,13.9,7.555,8.137,12.967-9.863a4.441,4.441,0,0,1,5.034-.281,41.026,41.026,0,0,0,9.487,4.2,4.964,4.964,0,0,1,3.388,4.035Z" transform="translate(-321.055 -333.241)" fill="#39f"/>
        </g>
      </g>
    </g>
    <g id="HW-rect" transform="translate(1994 2051)">
      <g id="Embedded-bgd" transform="translate(1620 -2613)">
        <rect id="Rectangle_292" data-name="Rectangle 292" width="1198" height="582" transform="translate(-2068 -15930)" fill="url(#linear-gradient)"/>
      </g>
      <g id="Group_899" data-name="Group 899" transform="translate(1438 -671)">
        <g id="Group_280" data-name="Group 280" transform="translate(-123 484)">
          <path id="Path_612" data-name="Path 612" d="M-.994-.41,40.683,21.217l.325,48.377-42-23.479Z" transform="translate(-1623 -17893)" fill="url(#linear-gradient-2)"/>
          <path id="Path_613" data-name="Path 613" d="M-12.351,1.318,26.565-20.2V26.547L-11.982,49.578Z" transform="translate(-1570 -17873)" fill="url(#linear-gradient-2)"/>
          <path id="Path_614" data-name="Path 614" d="M36.932,22.424,76.6,45.816h0L37.649,67.389-4.016,45.594Z" transform="translate(-1620 -17939)" fill="url(#linear-gradient-2)"/>
          <path id="Path_615" data-name="Path 615" d="M40.016-12.076,81.978,11.559l-40.463,17.7L2.1,5.777Z" transform="translate(-1664 -17835)" opacity="0.05" fill="url(#linear-gradient-2)"/>
        </g>
      </g>
      <g id="Group_900" data-name="Group 900" transform="translate(2238 -639)">
        <g id="Group_280-2" data-name="Group 280" transform="translate(-123 484)">
          <path id="Path_612-2" data-name="Path 612" d="M-.994-.41,40.683,21.217l.325,48.377-42-23.479Z" transform="translate(-1623 -17893)" fill="url(#linear-gradient-6)"/>
          <path id="Path_613-2" data-name="Path 613" d="M-12.351,1.318,26.565-20.2V26.547L-11.982,49.578Z" transform="translate(-1570 -17873)" fill="url(#linear-gradient-6)"/>
          <path id="Path_614-2" data-name="Path 614" d="M36.932,22.424,76.6,45.816h0L37.649,67.389-4.016,45.594Z" transform="translate(-1620 -17939)" fill="url(#linear-gradient-6)"/>
          <path id="Path_615-2" data-name="Path 615" d="M40.016-12.076,81.978,11.559l-40.463,17.7L2.1,5.777Z" transform="translate(-1664 -17835)" opacity="0.09" fill="url(#linear-gradient-6)"/>
        </g>
      </g>
      <g id="Group_901" data-name="Group 901" transform="translate(2390 -694)">
        <g id="Group_280-3" data-name="Group 280" transform="translate(-123 484)">
          <path id="Path_612-3" data-name="Path 612" d="M-.994-.41,40.683,21.217l.325,48.377-42-23.479Z" transform="translate(-1623 -17893)" fill="url(#linear-gradient-2)"/>
          <path id="Path_613-3" data-name="Path 613" d="M-12.351,1.318,26.565-20.2V26.547L-11.982,49.578Z" transform="translate(-1570 -17873)" fill="url(#linear-gradient-2)"/>
          <path id="Path_614-3" data-name="Path 614" d="M36.932,22.424,76.6,45.816h0L37.649,67.389-4.016,45.594Z" transform="translate(-1620 -17939)" fill="url(#linear-gradient-2)"/>
          <path id="Path_615-3" data-name="Path 615" d="M40.016-12.076,81.978,11.559l-40.463,17.7L2.1,5.777Z" transform="translate(-1664 -17835)" opacity="0.05" fill="url(#linear-gradient-2)"/>
        </g>
      </g>
    </g>
    <g id="Group_962" data-name="Group 962">
      <path id="Path_2502" data-name="Path 2502" d="M-102.764,11.284,257.1-58.216,343.585-77,597.02-128.445,874.661,45.044,776.027,202.892l-38.1,60.968L-105.761,26.542l-4.7-2.938Z" transform="matrix(0.848, -0.53, 0.53, 0.848, 1977.351, -16064.901)" opacity="0.04" fill="url(#linear-gradient-14)"/>
      <g id="Group_961" data-name="Group 961">
        <g id="Group_960" data-name="Group 960" opacity="0.25">
          <line id="Line_126" data-name="Line 126" y1="234" x2="490" transform="translate(1900.5 -16219.5)" fill="none" stroke="#5983fc" stroke-linecap="round" stroke-width="3"/>
          <path id="Path_2501" data-name="Path 2501" d="M0,242,357,0" transform="translate(1900.5 -16237.5)" fill="none" stroke="#5983fc" stroke-linecap="round" stroke-width="3"/>
          <line id="Line_128" data-name="Line 128" y1="222" x2="380" transform="translate(1928.5 -16226.5)" fill="none" stroke="#5983fc" stroke-linecap="round" stroke-width="1"/>
        </g>
        <g id="Mask_Group_119" data-name="Mask Group 119" transform="translate(-4353 1433.974)" clip-path="url(#clip-path-2)">
          <g id="ideation" transform="translate(6135.634 -17667)" clip-path="url(#clip-path-3)">
            <g id="idea" transform="translate(-0.001 -0.001)">
              <path id="Path_1677" data-name="Path 1677" d="M170.767,65.78c-.011-17.845-11.491-33.4-27.856-37.735-1.438-12.113-9.851-22-21.089-24.783s-22.926,2.126-29.3,12.3C86.152,5.387,74.463.477,63.225,3.26S43.572,15.93,42.134,28.044C29.442,31.392,19.39,41.624,15.739,54.91a40.487,40.487,0,0,0,8.669,37.646A40.487,40.487,0,0,0,15.737,130.2c3.651,13.287,13.7,23.519,26.4,26.867,1.736,14.6,13.468,25.548,27.376,25.553h46.026c13.909-.006,25.641-10.957,27.376-25.553,12.692-3.348,22.744-13.58,26.4-26.866a40.487,40.487,0,0,0-8.669-37.646A40,40,0,0,0,170.767,65.78Z" transform="translate(25.304 4.812)" fill="#ffde55"/>
              <path id="Path_1678" data-name="Path 1678" d="M65.513,182.62c13.908-.006,25.64-10.955,27.376-25.551,12.692-3.348,22.744-13.58,26.4-26.866a40.487,40.487,0,0,0-8.669-37.646,40.487,40.487,0,0,0,8.669-37.646c-3.651-13.286-13.7-23.518-26.395-26.866-1.437-12.114-9.85-22-21.089-24.786S48.872,5.386,42.5,15.567V182.62Z" transform="translate(75.327 4.813)" fill="#ffd33a"/>
              <path id="Path_1679" data-name="Path 1679" d="M63.287,111.306H54.08c-11.439,0-20.711-9.808-20.711-21.907V78.689a7.112,7.112,0,0,1,6.9-7.3H77.093a7.112,7.112,0,0,1,6.9,7.3V89.4C84,101.5,74.725,111.306,63.287,111.306Z" transform="translate(59.144 137.955)" fill="#008a00"/>
              <path id="Path_1680" data-name="Path 1680" d="M67.814,89.4V78.689a7.112,7.112,0,0,0-6.9-7.3H42.5v39.919h4.6c11.439,0,20.711-9.808,20.711-21.907Z" transform="translate(75.327 137.955)" fill="#008a00"/>
              <path id="Path_1681" data-name="Path 1681" d="M30.049,65.691V79.954c0,9.407,7.21,17.033,16.1,17.033H82.973c8.893,0,16.1-7.626,16.1-17.033V65.691Z" transform="translate(53.259 126.947)" fill="#39f"/>
              <path id="Path_1682" data-name="Path 1682" d="M77.019,79.956V65.693H42.5V97H60.91A15.67,15.67,0,0,0,72.3,92.01,17.545,17.545,0,0,0,77.019,79.956Z" transform="translate(75.327 126.951)" fill="#39f"/>
              <path id="Path_1683" data-name="Path 1683" d="M182.086,70.592c.016-19.447-11.5-36.817-28.785-43.432A35.642,35.642,0,0,0,129.847,1.535,33.115,33.115,0,0,0,96.938,9.3,33.115,33.115,0,0,0,64.026,1.537,35.643,35.643,0,0,0,40.574,27.166,45.145,45.145,0,0,0,13.763,56.841a48.386,48.386,0,0,0,6.126,40.533,48.386,48.386,0,0,0-6.126,40.533,45.145,45.145,0,0,0,26.812,29.675c4.023,15.995,17.7,27.135,33.35,27.16H119.95c15.647-.024,29.327-11.165,33.35-27.16a45.145,45.145,0,0,0,26.812-29.676,48.386,48.386,0,0,0-6.126-40.533,47.784,47.784,0,0,0,8.1-26.782ZM73.925,180.129C63.5,180.114,54.71,171.909,53.4,160.97h0a22.707,22.707,0,0,1,5.881-18.242,7.6,7.6,0,0,0,0-10.328,6.641,6.641,0,0,0-9.764,0,37.149,37.149,0,0,0-9.459,18.809,31.718,31.718,0,0,1-14.189-22.828,32.738,32.738,0,0,1,7.967-25.988,7.611,7.611,0,0,0,0-10.051,32.739,32.739,0,0,1-7.967-25.989,31.719,31.719,0,0,1,14.19-22.83,37.266,37.266,0,0,0,9.459,18.808,6.64,6.64,0,0,0,9.763,0,7.6,7.6,0,0,0,0-10.327A22.738,22.738,0,0,1,53.4,33.764h0A21.555,21.555,0,0,1,68.277,15.446a20.032,20.032,0,0,1,21.756,7.327v93.091C82,113.519,76.225,107.206,76.225,99.8a6.915,6.915,0,1,0-13.808,0c0,15.282,11.878,28.068,27.616,31.008v49.32Zm86.116-77.735a32.739,32.739,0,0,1,7.965,25.99,31.719,31.719,0,0,1-14.191,22.828,37.149,37.149,0,0,0-9.459-18.81,6.641,6.641,0,0,0-9.764,0,7.6,7.6,0,0,0,0,10.328,22.86,22.86,0,0,1,4.468,23.866,20.755,20.755,0,0,1-19.114,13.535h-16.1V78.872c8.036,2.344,13.808,8.658,13.808,16.063a6.915,6.915,0,1,0,13.808,0c0-15.282-11.878-28.068-27.616-31.008V22.773a20.108,20.108,0,0,1,20.032-7.736,21.16,21.16,0,0,1,15.862,15.077,22.791,22.791,0,0,1-5.14,21.892,7.6,7.6,0,0,0,0,10.327,6.64,6.64,0,0,0,9.763,0,37.266,37.266,0,0,0,9.459-18.808,31.718,31.718,0,0,1,14.189,22.828,32.737,32.737,0,0,1-7.967,25.988,7.611,7.611,0,0,0,0,10.051Z" transform="translate(20.89 0)" fill="#fff79f"/>
              <path id="Path_1684" data-name="Path 1684" d="M65.513,194.735c15.647-.024,29.327-11.165,33.35-27.16A45.145,45.145,0,0,0,125.675,137.9a48.386,48.386,0,0,0-6.126-40.533,48.386,48.386,0,0,0,6.126-40.533A45.145,45.145,0,0,0,98.863,27.159,35.642,35.642,0,0,0,75.409,1.535,33.115,33.115,0,0,0,42.5,9.3V194.735ZM49.41,78.872c8.036,2.344,13.808,8.658,13.808,16.063a6.915,6.915,0,1,0,13.808,0c0-15.282-11.878-28.068-27.616-31.008V22.773a20.108,20.108,0,0,1,20.032-7.736A21.16,21.16,0,0,1,85.3,30.114a22.791,22.791,0,0,1-5.14,21.892,7.6,7.6,0,0,0,0,10.327,6.64,6.64,0,0,0,9.763,0,37.266,37.266,0,0,0,9.459-18.808,31.719,31.719,0,0,1,14.186,22.83A32.737,32.737,0,0,1,105.6,92.342a7.611,7.611,0,0,0,0,10.051,32.739,32.739,0,0,1,7.965,25.99A31.719,31.719,0,0,1,99.376,151.21,37.149,37.149,0,0,0,89.917,132.4a6.641,6.641,0,0,0-9.764,0,7.6,7.6,0,0,0,0,10.328A22.86,22.86,0,0,1,84.621,166.6,20.755,20.755,0,0,1,65.508,180.13H49.4Z" transform="translate(75.327 0)" fill="#ffde55"/>
              <g id="Group_618" data-name="Group 618" transform="translate(208.037 24.342)">
                <g id="Group_616" data-name="Group 616" transform="translate(0)">
                  <path id="Path_1685" data-name="Path 1685" d="M81.949,32.644a6.964,6.964,0,0,1-6.613-5.184,7.522,7.522,0,0,1,2.777-8.2L91.92,9.528a6.676,6.676,0,0,1,9.573,2.025,7.565,7.565,0,0,1-1.915,10.126L85.767,31.416a6.6,6.6,0,0,1-3.818,1.228Z" transform="translate(-75.039 -8.301)" fill="#ffde55"/>
                </g>
                <g id="Group_617" data-name="Group 617" transform="translate(0 121.71)">
                  <path id="Path_1686" data-name="Path 1686" d="M95.744,74.147a6.608,6.608,0,0,1-3.823-1.227L78.113,63.183A7.565,7.565,0,0,1,76.2,53.057a6.676,6.676,0,0,1,9.573-2.025L99.58,60.768a7.522,7.522,0,0,1,2.777,8.2,6.963,6.963,0,0,1-6.613,5.184Z" transform="translate(-75.039 -49.805)" fill="#ffde55"/>
                </g>
              </g>
              <g id="Group_621" data-name="Group 621" transform="translate(0.001 24.342)">
                <g id="Group_619" data-name="Group 619" transform="translate(0)">
                  <path id="Path_1687" data-name="Path 1687" d="M20.706,32.644a6.608,6.608,0,0,1-3.823-1.227L3.075,21.68A7.565,7.565,0,0,1,1.161,11.553a6.676,6.676,0,0,1,9.574-2.025l13.807,9.743a7.522,7.522,0,0,1,2.777,8.2,6.964,6.964,0,0,1-6.613,5.184Z" transform="translate(0 -8.301)" fill="#fff79f"/>
                </g>
                <g id="Group_620" data-name="Group 620" transform="translate(0 121.709)">
                  <path id="Path_1688" data-name="Path 1688" d="M6.911,74.148A6.964,6.964,0,0,1,.3,68.964a7.522,7.522,0,0,1,2.777-8.2l13.813-9.736a6.676,6.676,0,0,1,9.573,2.025,7.565,7.565,0,0,1-1.915,10.126L10.735,72.921a6.6,6.6,0,0,1-3.823,1.228Z" transform="translate(0 -49.804)" fill="#fff79f"/>
                </g>
              </g>
              <g id="Group_622" data-name="Group 622" transform="translate(0 90.065)">
                <path id="Path_1689" data-name="Path 1689" d="M20.712,45.318H6.9a7.112,7.112,0,0,1-6.9-7.3,7.112,7.112,0,0,1,6.9-7.3H20.712a7.112,7.112,0,0,1,6.9,7.3A7.112,7.112,0,0,1,20.712,45.318Z" transform="translate(0 -30.713)" fill="#fff79f"/>
              </g>
              <g id="Group_623" data-name="Group 623" transform="translate(208.039 90.065)">
                <path id="Path_1690" data-name="Path 1690" d="M95.75,45.318H81.943a7.112,7.112,0,0,1-6.9-7.3,7.112,7.112,0,0,1,6.9-7.3H95.751a7.112,7.112,0,0,1,6.9,7.3,7.112,7.112,0,0,1-6.9,7.3Z" transform="translate(-75.039 -30.713)" fill="#ffde55"/>
              </g>
            </g>
          </g>
        </g>
        <g id="Mask_Group_120" data-name="Mask Group 120" transform="translate(-4415 1744)" clip-path="url(#clip-path-4)">
          <g id="newProduct" transform="translate(6651 -18182)">
            <g id="Mask_Group_69" data-name="Mask Group 69" clip-path="url(#clip-path-5)">
              <g id="new-product" transform="translate(7.282 -0.003)">
                <path id="Path_1691" data-name="Path 1691" d="M194.332,81.29,110.595,95.932,26.866,81.29l-3.637,3.657V176.48l87.366,21.972,87.373-21.967V84.952Z" transform="translate(-5.022 17.569)" fill="#39f" opacity="0.27"/>
                <path id="Path_1692" data-name="Path 1692" d="M176.637,81.29,92.9,95.932V198.448l87.373-21.967V84.952Z" transform="translate(12.672 17.569)" fill="#39f" opacity="0.65"/>
                <path id="Path_1693" data-name="Path 1693" d="M186.937,154.795a3.317,3.317,0,0,1-3.126-2.4,29.8,29.8,0,0,0-1.941-4.7,3.35,3.35,0,0,1,.52-3.93l3.472-3.492-8.724-8.775-.637-.641-3.472,3.492a3.3,3.3,0,0,1-3.907.523,29.434,29.434,0,0,0-4.674-1.952,3.33,3.33,0,0,1-2.39-3.144v-4.935h-13.24v4.935a3.33,3.33,0,0,1-2.39,3.144,29.435,29.435,0,0,0-4.674,1.952,3.3,3.3,0,0,1-3.907-.523l-3.472-3.492-9.361,9.414,3.472,3.492a3.35,3.35,0,0,1,.52,3.93,29.808,29.808,0,0,0-1.941,4.7,3.317,3.317,0,0,1-3.126,2.4h-4.907v13.316h4.907a3.317,3.317,0,0,1,3.126,2.4,29.814,29.814,0,0,0,1.941,4.7,3.35,3.35,0,0,1-.52,3.93l-3.472,3.492,9.361,9.414,3.472-3.492a3.3,3.3,0,0,1,3.907-.523,29.456,29.456,0,0,0,4.674,1.952,3.33,3.33,0,0,1,2.39,3.144v4.931h13.238V193.13a3.33,3.33,0,0,1,2.39-3.144,29.456,29.456,0,0,0,4.674-1.952,3.3,3.3,0,0,1,3.907.523l3.472,3.492,9.361-9.414-3.472-3.492a3.35,3.35,0,0,1-.52-3.93,29.816,29.816,0,0,0,1.941-4.7,3.317,3.317,0,0,1,3.126-2.4h4.912V154.795Zm-31.5,23.133a16.477,16.477,0,1,1,16.383-16.476,16.43,16.43,0,0,1-16.383,16.476Z" transform="translate(19.31 28.94)" fill="#008a00"/>
                <ellipse id="Ellipse_621" data-name="Ellipse 621" cx="16.383" cy="16.476" rx="16.383" ry="16.476" transform="translate(158.365 173.916)" fill="#0c3881"/>
                <path id="Path_1694" data-name="Path 1694" d="M109.858,69.677,26.129,84.322l83.729,14.642L193.6,84.322Z" transform="translate(-4.286 14.537)" fill="#297fdf"/>
                <path id="Path_1695" data-name="Path 1695" d="M92.9,69.677V98.964l83.737-14.642Z" transform="translate(12.672 14.537)" fill="#287fdf"/>
                <path id="Path_1696" data-name="Path 1696" d="M30.553,81.29l83.729,14.642L92.443,121.565,8.71,103.259Z" transform="translate(-8.71 17.569)" fill="#008a00"/>
                <path id="Path_1697" data-name="Path 1697" d="M176.637,81.29,92.9,95.932l21.843,25.63,83.742-18.3Z" transform="translate(12.672 17.569)" fill="#008a00"/>
                <g id="Group_624" data-name="Group 624" transform="translate(58.249)">
                  <path id="Path_1698" data-name="Path 1698" d="M90.726,2.9h5.461V13.884H90.726Z" transform="translate(-46.128 -2.9)" fill="#ffd33a"/>
                  <path id="Path_1699" data-name="Path 1699" d="M121.936,38.468h10.922V43.96H121.936Z" transform="translate(-38.202 6.387)" fill="#ffd33a"/>
                  <path id="Path_1700" data-name="Path 1700" d="M55.161,38.468H66.083V43.96H55.161Z" transform="translate(-55.161 6.387)" fill="#ffd33a"/>
                  <path id="Path_1701" data-name="Path 1701" d="M0,0,5.475-.016,5.444,10.935l-5.475.016Z" transform="translate(11.918 15.892) rotate(-45)" fill="#ffd33a"/>
                  <path id="Path_1702" data-name="Path 1702" d="M0,0,10.951-.031l-.016,5.475L-.016,5.475Z" transform="translate(71.124 19.78) rotate(-45)" fill="#ffd33a"/>
                </g>
                <path id="Path_1703" data-name="Path 1703" d="M127.928,46.718a29.158,29.158,0,1,0-46.574,23.42,7.255,7.255,0,0,1,2.884,5.8v3.73h29.125V75.946a7.245,7.245,0,0,1,2.872-5.8,29.258,29.258,0,0,0,11.691-23.432Z" transform="translate(6.773 0.882)" fill="#ffd33a"/>
                <path id="Path_1704" data-name="Path 1704" d="M81.29,66.774h29.125V74.1H81.29Z" transform="translate(9.724 13.779)" fill="#495766"/>
                <path id="Path_1705" data-name="Path 1705" d="M81.29,66.774V74.1A10.953,10.953,0,0,0,92.212,85.08h7.281A10.953,10.953,0,0,0,110.415,74.1V66.774Z" transform="translate(9.724 13.779)" fill="#008a00"/>
                <path id="Path_1706" data-name="Path 1706" d="M98.808,74.355H93.634V62.008L82.825,54a7.375,7.375,0,0,1-2.986-5.9V45.112A7.484,7.484,0,0,1,92.581,39.9l2.021,2a2.315,2.315,0,0,0,3.24,0l2.021-2a7.484,7.484,0,0,1,12.742,5.211v2.994a7.371,7.371,0,0,1-2.987,5.9l-4.944,3.664-3.107-4.087,4.946-3.664a2.256,2.256,0,0,0,.918-1.81V45.112a2.278,2.278,0,0,0-2.29-2.261,2.323,2.323,0,0,0-1.62.662l-2.021,2a7.54,7.54,0,0,1-10.556,0l-2.021-2a2.323,2.323,0,0,0-1.62-.662,2.278,2.278,0,0,0-2.29,2.261v2.994a2.259,2.259,0,0,0,.917,1.81l11.846,8.772a2.548,2.548,0,0,1,1.035,2.044Z" transform="translate(9.355 6.198)" fill="#fff79f"/>
                <path id="Path_1707" data-name="Path 1707" d="M81.29,66.774h29.125V74.1H81.29Z" transform="translate(9.724 13.779)" fill="#39f"/>
              </g>
            </g>
            <g id="Group_625" data-name="Group 625" transform="translate(39.5 117.914)">
              <line id="Line_121" data-name="Line 121" y2="94.584" transform="translate(73.985)" fill="none" stroke="#fff" stroke-linecap="round" stroke-width="5"/>
              <line id="Line_122" data-name="Line 122" x2="51.413" y2="12.611" transform="translate(18.81 68.1)" fill="none" stroke="#fff" stroke-linecap="round" stroke-width="5"/>
              <line id="Line_123" data-name="Line 123" y1="6.306" x2="23.826" transform="translate(77.747 74.406)" fill="none" stroke="#fff" stroke-linecap="round" stroke-width="5"/>
              <line id="Line_124" data-name="Line 124" y2="15.133" transform="translate(144.207 16.395)" fill="none" stroke="#fff" stroke-linecap="round" stroke-width="5"/>
              <line id="Line_125" data-name="Line 125" x2="6.27" y2="1.261" transform="translate(0 63.056)" fill="none" stroke="#fff" stroke-linecap="round" stroke-width="5"/>
            </g>
          </g>
        </g>
      </g>
    </g>
    <g id="Mask_Group_122" data-name="Mask Group 122" transform="translate(-3991 -4980)" opacity="0.11" clip-path="url(#clip-path-6)">
      <g id="edit-2" data-name="edit" transform="translate(5537 -11495.905)">
        <g id="Group_963" data-name="Group 963" transform="translate(657.096 311.725)">
          <path id="Path_2503" data-name="Path 2503" d="M587.993,588.975c-75.835,0-137.511-28.331-137.511-63.158s61.676-63.163,137.511-63.163,137.535,28.336,137.535,63.163S663.828,588.975,587.993,588.975Zm0-103.4c-48.3,0-87.6,18.052-87.6,40.244s39.306,40.238,87.6,40.238c48.322,0,87.629-18.051,87.629-40.238S636.316,485.574,587.993,485.574Z" transform="translate(-450.482 -462.654)" fill="#e7e5ea"/>
        </g>
        <g id="Group_964" data-name="Group 964" transform="translate(0 0)" opacity="0.08">
          <path id="Path_2504" data-name="Path 2504" d="M108.493,633.679c-6.506,0-12.891-1.169-17.643-3.363-6.872-3.156-9.138-7.856-5.775-12.047L204.6,468.833a15.676,15.676,0,0,1,5.775-4.152l779.79-358.119c32.215-14.8,75.079-22.953,120.7-22.953,44.789,0,88.8,8.41,120.7,23.071,32.288,14.823,50.028,34.53,49.979,55.5-.049,20.911-17.813,40.54-50.028,55.262L958.318,342.909c-9.747,4.476-25.538,4.476-35.285,0s-9.747-11.728,0-16.2l273.243-125.481c22.784-10.419,35.334-24.285,35.358-39.069.049-14.834-12.525-28.784-35.358-39.27-22.638-10.4-53.757-16.356-85.411-16.356-32.288,0-62.627,5.769-85.411,16.238L249.539,479.1,150.482,602.953l269.9-45.4L591.4,479c9.747-4.477,25.538-4.477,35.285,0s9.747,11.728,0,16.2L451.772,575.546a36.106,36.106,0,0,1-9.065,2.658L117.072,632.979a52.141,52.141,0,0,1-8.578.7Z" transform="translate(-83.54 -83.609)" fill="#008a00"/>
        </g>
        <g id="Group_965" data-name="Group 965" transform="translate(119.518 377.726)" opacity="0.73">
          <path id="Path_2505" data-name="Path 2505" d="M381.6,660.605c-10.917,0-20.957-3.329-24.027-8.4l-41.012-67.992L168.593,565.4c-13.281-1.69-21.079-8-17.4-14.1,3.68-6.116,17.57-9.63,30.7-7.99l161.587,20.541c8.456,1.074,15.06,4.107,17.4,7.985l44.789,74.243c3.68,6.1-4.118,12.417-17.4,14.107a53.461,53.461,0,0,1-6.677.42Z" transform="translate(-150.283 -542.908)" fill="#008a00"/>
        </g>
        <g id="Group_966" data-name="Group 966" transform="translate(784.223 72.458)" opacity="0.44">
          <path id="Path_2506" data-name="Path 2506" d="M752.608,289.317c-6.384,0-12.769-1.119-17.643-3.357L528.785,191.276c-9.748-4.477-9.748-11.728,0-16.2s25.538-4.476,35.285,0l206.181,94.683c9.747,4.477,9.747,11.728,0,16.2C765.377,288.2,758.993,289.317,752.608,289.317Z" transform="translate(-521.474 -171.714)" fill="#008a00"/>
        </g>
        <g id="Group_967" data-name="Group 967" transform="translate(425.327 205.297)" opacity="0.89">
          <path id="Path_2507" data-name="Path 2507" d="M739.8,672.419H641.061c-12.135,0-22.541-4.018-24.588-9.513L601.219,622.26c-10.868-1.7-21.469-3.7-31.728-5.987l-73.276,23.759c-9.967,3.217-23.467,2.691-32.044-1.259l-69.645-31.979c-8.578-3.939-9.747-10.145-2.754-14.705l51.32-33.456a115.1,115.1,0,0,1-13.524-14.867l-87.775-6.922c-11.989-.94-20.738-5.713-20.738-11.292V480.2c0-5.573,8.748-10.341,20.689-11.292l86.849-6.9A109.009,109.009,0,0,1,442.337,446.6l-50.564-32.93c-6.994-4.549-5.848-10.749,2.729-14.694L464.147,366.9c8.578-3.967,22.127-4.477,32.093-1.265l70.936,23.06q16.778-3.878,34.457-6.642l14.84-39.309c2.071-5.489,12.453-9.5,24.588-9.5H739.8c12.135,0,22.516,4.012,24.588,9.5l14.84,39.382q17.837,2.761,34.457,6.58l70.961-23.071c9.943-3.212,23.492-2.7,32.093,1.265l69.645,32.074c8.578,3.945,9.723,10.145,2.729,14.694L938.551,446.6a109,109,0,0,1,13.744,15.416l86.63,6.9c11.965.951,20.689,5.719,20.689,11.292v45.347c0,5.579-8.748,10.346-20.713,11.292l-87.6,6.916a115.557,115.557,0,0,1-13.5,14.873l51.32,33.456c6.994,4.56,5.824,10.766-2.754,14.705l-69.645,31.979c-8.6,3.951-22.127,4.476-32.02,1.259l-73.349-23.77c-10.332,2.305-20.933,4.309-31.679,5.993L764.39,662.906c-2.071,5.495-12.452,9.513-24.588,9.513ZM662.091,649.5h56.681l14.3-38.056c1.633-4.37,8.626-7.912,17.911-9.093a416.8,416.8,0,0,0,50.2-9.49,50.8,50.8,0,0,1,26.513.655l68.6,22.226,39.94-18.337-48.055-31.313c-5.556-3.626-6.068-8.4-1.316-12.254,9.065-7.347,16.18-15.181,21.152-23.289,2.607-4.253,10.308-7.442,19.787-8.186l81.9-6.468V489.845l-81.147-6.457c-9.577-.767-17.326-4.018-19.836-8.337-4.8-8.242-11.892-16.21-21.079-23.686-4.752-3.855-4.24-8.623,1.316-12.243l47.275-30.787-39.94-18.4-66.4,21.582a50.811,50.811,0,0,1-26.952.554,393.313,393.313,0,0,0-52.246-9.988c-9.333-1.175-16.352-4.723-18.008-9.1L718.8,356.161h-56.73L648.2,392.9c-1.657,4.376-8.675,7.923-18.008,9.093a394,394,0,0,0-52.246,10.083A50.756,50.756,0,0,1,551,411.518l-66.4-21.582-39.94,18.4,47.275,30.787c5.556,3.62,6.068,8.388,1.316,12.243-9.187,7.476-16.278,15.444-21.078,23.686-2.51,4.32-10.259,7.576-19.836,8.337l-81.366,6.463v26.042l82.073,6.468c9.48.744,17.2,3.928,19.812,8.186,4.947,8.08,12.087,15.914,21.176,23.289,4.752,3.855,4.24,8.628-1.316,12.254L444.652,597.4l39.94,18.337,68.549-22.226a50.9,50.9,0,0,1,26.61-.632,408.463,408.463,0,0,0,50.151,9.468c9.284,1.181,16.278,4.728,17.911,9.093Z" transform="translate(-321.055 -333.241)" fill="#39f"/>
        </g>
      </g>
    </g>
  </g>
</svg>
