<svg width="438" height="193" viewBox="0 0 438 193" fill="none" xmlns="http://www.w3.org/2000/svg">
<path d="M200.596 113.575C202.32 117.007 205.616 118.723 210.484 118.723C215.352 118.723 218.622 117.036 220.296 113.662C222.02 110.289 222.882 104.646 222.882 96.7349C222.882 88.7656 221.994 82.9777 220.22 79.3711C218.495 75.7646 215.25 73.9613 210.484 73.9613C205.717 73.9613 202.446 75.7646 200.672 79.3711C198.897 82.9777 198.01 88.7365 198.01 96.6477C198.01 104.501 198.872 110.143 200.596 113.575ZM226.913 119.858C223.82 124.744 218.343 127.187 210.484 127.187C202.624 127.187 197.122 124.744 193.978 119.858C190.834 114.913 189.262 107.176 189.262 96.6477C189.262 86.1189 190.834 78.295 193.978 73.176C197.173 68.057 202.675 65.4976 210.484 65.4976C218.293 65.4976 223.769 68.057 226.913 73.176C230.057 78.2368 231.629 86.0607 231.629 96.6477C231.629 107.235 230.057 114.971 226.913 119.858Z" fill="#3399FF"/>
<path d="M240.504 126.229V66.4587H256.085L273.996 117.678V66.4587H282.91V126.229H267.651L249.419 74.9225V126.229H240.504Z" fill="#3399FF"/>
<path d="M395.334 126.229V66.4587H437.727V74.9225H405.02V95.0785H433.102V103.542H405.02V126.229H395.334Z" fill="#3399FF"/>
<path fill-rule="evenodd" clip-rule="evenodd" d="M348.953 66.6436V126.229H358.638V103.288H372.47L381.207 126.226H391.367L388.013 117.526L368.555 66.6436H348.953ZM369.245 94.8246L369.238 94.8058L361.715 75.1073H358.638V94.8058V94.8246H369.245Z" fill="#3399FF"/>
<path d="M143.209 66.4587H157.882C163.99 66.4587 168.556 67.7094 171.581 70.2107C174.606 72.6539 176.118 76.5803 176.118 81.9902C176.118 85.5385 175.537 88.3307 174.373 90.3667C173.349 92.1598 171.04 94.1756 171.04 94.1756C171.04 94.1756 174.912 94.4511 177.064 95.4275C182.765 97.6379 185.615 102.262 185.615 109.301C185.615 120.586 179.274 126.229 166.593 126.229H143.209V66.4587ZM165.895 100.139H152.894V117.852H166.07C169.269 117.852 171.654 117.183 173.225 115.845C174.854 114.507 175.668 112.21 175.668 108.952C175.668 105.694 174.737 103.426 172.876 102.146C171.014 100.808 168.688 100.139 165.895 100.139ZM157.359 74.8352H152.894V91.9373H157.708C163.408 91.9373 166.259 88.9997 166.259 83.1245C166.259 77.5983 163.292 74.8352 157.359 74.8352Z" fill="#3399FF"/>
<path d="M312.457 126.229H292.262V66.4589C321.03 66.1594 336.188 89.7727 334.547 107.675C334.12 110.916 333.377 114.164 331.11 117.673C326.957 123.633 321.83 126.229 312.457 126.229ZM301.72 77.5937V117.678H312.457C318.081 117.678 322.66 115.073 324.372 111.292C325.741 108.269 325.741 105.798 325.741 104.391C325.587 91.9398 313.387 77.4714 301.72 77.5937Z" fill="#3399FF"/>
<path d="M337.734 66.5322L337.734 75.8555L338.651 86.232" stroke="#3399FF" stroke-width="8.15162"/>
<path d="M144.144 137.358V135.18H155.144V137.358H150.898V150.25H148.434V137.358H144.144ZM172.51 150.25V143.738H165.998V150.25H163.556V135.18H165.998V141.604H172.51V135.18H174.974V150.25H172.51ZM184.804 150.25V135.18H187.246V150.25H184.804ZM201.514 137.072C199.651 137.072 198.72 137.724 198.72 139.03C198.72 139.704 198.94 140.188 199.38 140.482C199.82 140.76 200.788 141.112 202.284 141.538C203.794 141.948 204.858 142.447 205.474 143.034C206.09 143.606 206.398 144.515 206.398 145.762C206.398 147.346 205.943 148.534 205.034 149.326C204.139 150.103 202.914 150.492 201.36 150.492C200.113 150.492 198.734 150.345 197.224 150.052L196.432 149.898L196.674 147.94C198.654 148.204 200.164 148.336 201.206 148.336C203.024 148.336 203.934 147.529 203.934 145.916C203.934 145.285 203.728 144.823 203.318 144.53C202.907 144.222 201.983 143.892 200.546 143.54C199.108 143.173 198.038 142.674 197.334 142.044C196.63 141.413 196.278 140.416 196.278 139.052C196.278 137.688 196.718 136.661 197.598 135.972C198.492 135.268 199.724 134.916 201.294 134.916C202.423 134.916 203.758 135.048 205.298 135.312L206.068 135.444L205.87 137.424C203.816 137.189 202.364 137.072 201.514 137.072ZM237.845 150.25V135.18H240.287V150.25H237.845ZM254.555 137.072C252.693 137.072 251.761 137.724 251.761 139.03C251.761 139.704 251.981 140.188 252.421 140.482C252.861 140.76 253.829 141.112 255.325 141.538C256.836 141.948 257.899 142.447 258.515 143.034C259.131 143.606 259.439 144.515 259.439 145.762C259.439 147.346 258.985 148.534 258.075 149.326C257.181 150.103 255.956 150.492 254.401 150.492C253.155 150.492 251.776 150.345 250.265 150.052L249.473 149.898L249.715 147.94C251.695 148.204 253.206 148.336 254.247 148.336C256.066 148.336 256.975 147.529 256.975 145.916C256.975 145.285 256.77 144.823 256.359 144.53C255.949 144.222 255.025 143.892 253.587 143.54C252.15 143.173 251.079 142.674 250.375 142.044C249.671 141.413 249.319 140.416 249.319 139.052C249.319 137.688 249.759 136.661 250.639 135.972C251.534 135.268 252.766 134.916 254.335 134.916C255.465 134.916 256.799 135.048 258.339 135.312L259.109 135.444L258.911 137.424C256.858 137.189 255.406 137.072 254.555 137.072ZM289.435 137.358V135.18H300.435V137.358H296.189V150.25H293.725V137.358H289.435ZM317.801 150.25V143.738H311.289V150.25H308.847V135.18H311.289V141.604H317.801V135.18H320.265V150.25H317.801ZM330.094 150.25V135.18H339.598V137.314H332.536V141.582H338.278V143.694H332.536V148.094H339.598V150.25H330.094ZM371.062 135.18H376.782C378.322 135.18 379.473 135.495 380.236 136.126C380.999 136.742 381.38 137.732 381.38 139.096C381.38 139.99 381.233 140.694 380.94 141.208C380.661 141.721 380.214 142.146 379.598 142.484C381.035 143.041 381.754 144.207 381.754 145.982C381.754 148.827 380.155 150.25 376.958 150.25H371.062V135.18ZM376.782 143.672H373.504V148.138H376.826C377.633 148.138 378.234 147.969 378.63 147.632C379.041 147.294 379.246 146.715 379.246 145.894C379.246 145.072 379.011 144.5 378.542 144.178C378.073 143.84 377.486 143.672 376.782 143.672ZM376.65 137.292H373.504V141.604H376.738C378.175 141.604 378.894 140.863 378.894 139.382C378.894 137.988 378.146 137.292 376.65 137.292ZM390.913 150.25V135.18H400.417V137.314H393.355V141.582H399.097V143.694H393.355V148.094H400.417V150.25H390.913ZM413.875 137.072C412.012 137.072 411.081 137.724 411.081 139.03C411.081 139.704 411.301 140.188 411.741 140.482C412.181 140.76 413.149 141.112 414.645 141.538C416.155 141.948 417.219 142.447 417.835 143.034C418.451 143.606 418.759 144.515 418.759 145.762C418.759 147.346 418.304 148.534 417.395 149.326C416.5 150.103 415.275 150.492 413.721 150.492C412.474 150.492 411.095 150.345 409.585 150.052L408.793 149.898L409.035 147.94C411.015 148.204 412.525 148.336 413.567 148.336C415.385 148.336 416.295 147.529 416.295 145.916C416.295 145.285 416.089 144.823 415.679 144.53C415.268 144.222 414.344 143.892 412.907 143.54C411.469 143.173 410.399 142.674 409.695 142.044C408.991 141.413 408.639 140.416 408.639 139.052C408.639 137.688 409.079 136.661 409.959 135.972C410.853 135.268 412.085 134.916 413.655 134.916C414.784 134.916 416.119 135.048 417.659 135.312L418.429 135.444L418.231 137.424C416.177 137.189 414.725 137.072 413.875 137.072ZM426.326 137.358V135.18H437.326V137.358H433.08V150.25H430.616V137.358H426.326Z" fill="#008A00"/>
<path d="M84.8592 94.6669L104.102 89.8595L117.095 77.4851L123.371 60.1525L120.057 39.2812L107.494 16.7698L90.1571 8.35184L69.5921 3L49.6419 8.35188L25.1034 24.373L16.5415 53.9716L23.6525 79.4212L39.4743 91.8119L59.4084 94.6669" stroke="#3399FF" stroke-width="4.13535"/>
<path d="M59.8486 126.708L66.4851 91.6999L55.1722 67.0327L48.4496 74.3256L50.3859 83.5489L46.6872 75.398L36.0485 73.0171L46.6872 73.0171L53.8884 65.7242L44.7293 51.3529L40.6174 59.3107L31.915 58.0023L39.0945 56.5008L43.228 49.8514L44.7292 47.5133L46.6873 41.7005L44.7292 29.9246L48.4495 40.2204L55.172 42.7944H48.4496L46.6873 47.5133L71.2716 83.5488L93.9196 51.3528L89.9819 41.7005L83.6946 42.7944L91.7225 38.9335L95.2032 33.1421L93.9196 42.7944L98.0532 51.3529L91.7223 62.2922L98.0531 64.6733L106.538 60.8123L99.9895 65.7243L103.035 71.5157L98.0532 67.0326L89.9819 63.7938L75.4052 91.6999L81.4018 126.708C81.4018 126.708 79.9501 134.642 70.6252 134.642C61.3003 134.642 59.8486 126.708 59.8486 126.708Z" fill="#008A00" stroke="#008A00" stroke-width="1.50387"/>
<path d="M31.4202 62.4073C34.5577 62.4073 37.1011 59.7878 37.1011 56.5566C37.1011 53.3253 34.5577 50.7058 31.4202 50.7058C28.2827 50.7058 25.7393 53.3253 25.7393 56.5566C25.7393 59.7878 28.2827 62.4073 31.4202 62.4073Z" fill="#FA6800"/>
<path d="M31.4204 61.6547C34.1426 61.6547 36.3494 59.3719 36.3494 56.5559C36.3494 53.7399 34.1426 51.457 31.4204 51.457C28.6982 51.457 26.4915 53.7399 26.4915 56.5559C26.4915 59.3719 28.6982 61.6547 31.4204 61.6547Z" stroke="#FA6800" stroke-width="1.50387"/>
<path d="M44.6758 33.5081C47.8133 33.5081 50.3567 30.8887 50.3567 27.6574C50.3567 24.4261 47.8133 21.8066 44.6758 21.8066C41.5383 21.8066 38.9949 24.4261 38.9949 27.6574C38.9949 30.8887 41.5383 33.5081 44.6758 33.5081Z" fill="#FFFF00"/>
<path d="M44.6756 32.7565C47.3977 32.7565 49.6045 30.4737 49.6045 27.6577C49.6045 24.8417 47.3977 22.5588 44.6756 22.5588C41.9534 22.5588 39.7466 24.8417 39.7466 27.6577C39.7466 30.4737 41.9534 32.7565 44.6756 32.7565Z" stroke="#FFFF00" stroke-width="1.50387"/>
<path d="M59.4783 47.4705C62.6158 47.4705 65.1592 44.8511 65.1592 41.6198C65.1592 38.3885 62.6158 35.769 59.4783 35.769C56.3408 35.769 53.7974 38.3885 53.7974 41.6198C53.7974 44.8511 56.3408 47.4705 59.4783 47.4705Z" fill="#E51400"/>
<path d="M59.4785 46.7182C62.2007 46.7182 64.4075 44.4354 64.4075 41.6193C64.4075 38.8033 62.2007 36.5205 59.4785 36.5205C56.7563 36.5205 54.5496 38.8033 54.5496 41.6193C54.5496 44.4354 56.7563 46.7182 59.4785 46.7182Z" stroke="#E51400" stroke-width="1.50387"/>
<path d="M104.926 80.4723C108.063 80.4723 110.606 77.8528 110.606 74.6215C110.606 71.3902 108.063 68.7708 104.926 68.7708C101.788 68.7708 99.2446 71.3902 99.2446 74.6215C99.2446 77.8528 101.788 80.4723 104.926 80.4723Z" fill="#6A00FF"/>
<path d="M104.926 79.7196C107.648 79.7196 109.855 77.4368 109.855 74.6208C109.855 71.8048 107.648 69.522 104.926 69.522C102.204 69.522 99.9968 71.8048 99.9968 74.6208C99.9968 77.4368 102.204 79.7196 104.926 79.7196Z" stroke="#6A00FF" stroke-width="1.50387"/>
<path d="M107.033 64.1422C110.17 64.1422 112.714 61.5227 112.714 58.2914C112.714 55.0601 110.17 52.4407 107.033 52.4407C103.895 52.4407 101.352 55.0601 101.352 58.2914C101.352 61.5227 103.895 64.1422 107.033 64.1422Z" fill="#80FF00"/>
<path d="M107.033 63.3905C109.755 63.3905 111.962 61.1077 111.962 58.2917C111.962 55.4757 109.755 53.1929 107.033 53.1929C104.311 53.1929 102.104 55.4757 102.104 58.2917C102.104 61.1077 104.311 63.3905 107.033 63.3905Z" stroke="#80FF00" stroke-width="1.50387"/>
<path d="M38.9946 77.7635C42.1321 77.7635 44.6756 75.144 44.6756 71.9128C44.6756 68.6815 42.1321 66.062 38.9946 66.062C35.8572 66.062 33.3137 68.6815 33.3137 71.9128C33.3137 75.144 35.8572 77.7635 38.9946 77.7635Z" fill="#66FFB3"/>
<path d="M38.9946 77.0111C41.7168 77.0111 43.9236 74.7283 43.9236 71.9123C43.9236 69.0963 41.7168 66.8135 38.9946 66.8135C36.2724 66.8135 34.0657 69.0963 34.0657 71.9123C34.0657 74.7283 36.2724 77.0111 38.9946 77.0111Z" stroke="#66FFB3" stroke-width="1.50387"/>
<path d="M50.3567 89.4652C53.4942 89.4652 56.0376 86.8457 56.0376 83.6144C56.0376 80.3831 53.4942 77.7637 50.3567 77.7637C47.2192 77.7637 44.6758 80.3831 44.6758 83.6144C44.6758 86.8457 47.2192 89.4652 50.3567 89.4652Z" fill="#F2DBC2"/>
<path d="M50.3567 88.7133C53.0789 88.7133 55.2857 86.4305 55.2857 83.6145C55.2857 80.7985 53.0789 78.5156 50.3567 78.5156C47.6345 78.5156 45.4277 80.7985 45.4277 83.6145C45.4277 86.4305 47.6345 88.7133 50.3567 88.7133Z" stroke="#F2DBC2" stroke-width="1.50387"/>
<path d="M82.6287 47.4705C85.7662 47.4705 88.3096 44.8511 88.3096 41.6198C88.3096 38.3885 85.7662 35.769 82.6287 35.769C79.4912 35.769 76.9478 38.3885 76.9478 41.6198C76.9478 44.8511 79.4912 47.4705 82.6287 47.4705Z" fill="black"/>
<path d="M82.6287 46.7182C85.3509 46.7182 87.5576 44.4354 87.5576 41.6193C87.5576 38.8033 85.3509 36.5205 82.6287 36.5205C79.9065 36.5205 77.6997 38.8033 77.6997 41.6193C77.6997 44.4354 79.9065 46.7182 82.6287 46.7182Z" stroke="black" stroke-width="1.50387"/>
<path d="M95.6707 35.7691C98.8082 35.7691 101.352 33.1497 101.352 29.9184C101.352 26.6871 98.8082 24.0676 95.6707 24.0676C92.5332 24.0676 89.9897 26.6871 89.9897 29.9184C89.9897 33.1497 92.5332 35.7691 95.6707 35.7691Z" fill="#F0A30A"/>
<path d="M95.6704 35.0175C98.3926 35.0175 100.599 32.7347 100.599 29.9187C100.599 27.1027 98.3926 24.8198 95.6704 24.8198C92.9482 24.8198 90.7415 27.1027 90.7415 29.9187C90.7415 32.7347 92.9482 35.0175 95.6704 35.0175Z" stroke="#F0A30A" stroke-width="1.50387"/>
<path d="M70.301 192.192L65.821 135.331L31.0151 169.738L62.7195 132.919L3.10151 159.454L60.3072 129.817L0 134.762L64.7088 125.682H70.301V192.192Z" fill="#008A00"/>
<path d="M70.3011 192.192L74.7811 135.331L109.587 169.738L77.8826 132.919L137.501 159.454L80.2949 129.817L140.602 134.762L75.8933 125.682H70.3011V192.192Z" fill="#008A00"/>
</svg>
