<svg width="400" height="400" viewBox="0 0 400 400" fill="none" xmlns="http://www.w3.org/2000/svg">
<path d="M220.867 195.801L248.448 188.911L267.071 171.175L276.066 146.332L271.315 116.417L253.309 84.1508L228.46 72.0854L198.984 64.4146L170.389 72.0854L135.218 95.0486L122.946 137.473L133.139 173.95L155.816 191.709L184.388 195.801" stroke="white" stroke-width="5.92723"/>
<path d="M185.019 241.726L194.531 191.549L178.316 156.193L168.681 166.646L171.456 179.866L166.155 168.183L150.906 164.771L166.155 164.771L176.476 154.318L163.348 133.719L157.455 145.125L144.981 143.25L155.272 141.098L161.196 131.567L163.348 128.216L166.155 119.884L163.348 103.006L168.68 117.763L178.316 121.452H168.681L166.155 128.216L201.392 179.866L233.853 133.719L228.209 119.884L219.197 121.452L230.704 115.918L235.693 107.618L233.853 121.452L239.778 133.719L230.704 149.399L239.778 152.811L251.939 147.277L242.553 154.318L246.919 162.619L239.778 156.193L228.209 151.551L207.316 191.549L215.911 241.726C215.911 241.726 213.83 253.098 200.465 253.098C187.1 253.098 185.019 241.726 185.019 241.726Z" fill="#008A00" stroke="#008A00" stroke-width="2.15551"/>
<path d="M144.272 149.563C148.769 149.563 152.414 145.809 152.414 141.177C152.414 136.546 148.769 132.792 144.272 132.792C139.775 132.792 136.129 136.546 136.129 141.177C136.129 145.809 139.775 149.563 144.272 149.563Z" fill="#FA6800"/>
<path d="M144.272 148.485C148.174 148.485 151.337 145.213 151.337 141.176C151.337 137.14 148.174 133.868 144.272 133.868C140.371 133.868 137.208 137.14 137.208 141.176C137.208 145.213 140.371 148.485 144.272 148.485Z" stroke="#FA6800" stroke-width="2.15551"/>
<path d="M163.271 108.142C167.768 108.142 171.414 104.387 171.414 99.756C171.414 95.1246 167.768 91.3701 163.271 91.3701C158.774 91.3701 155.129 95.1246 155.129 99.756C155.129 104.387 158.774 108.142 163.271 108.142Z" fill="#FFFF00"/>
<path d="M163.271 107.065C167.173 107.065 170.336 103.793 170.336 99.7564C170.336 95.7202 167.173 92.4482 163.271 92.4482C159.37 92.4482 156.207 95.7202 156.207 99.7564C156.207 103.793 159.37 107.065 163.271 107.065Z" stroke="#FFFF00" stroke-width="2.15551"/>
<path d="M184.488 128.154C188.985 128.154 192.63 124.4 192.63 119.768C192.63 115.137 188.985 111.382 184.488 111.382C179.991 111.382 176.345 115.137 176.345 119.768C176.345 124.4 179.991 128.154 184.488 128.154Z" fill="#E51400"/>
<path d="M184.488 127.076C188.39 127.076 191.553 123.804 191.553 119.768C191.553 115.731 188.39 112.459 184.488 112.459C180.586 112.459 177.423 115.731 177.423 119.768C177.423 123.804 180.586 127.076 184.488 127.076Z" stroke="#E51400" stroke-width="2.15551"/>
<path d="M249.628 175.456C254.125 175.456 257.77 171.701 257.77 167.07C257.77 162.439 254.125 158.684 249.628 158.684C245.131 158.684 241.485 162.439 241.485 167.07C241.485 171.701 245.131 175.456 249.628 175.456Z" fill="#6A00FF"/>
<path d="M249.628 174.377C253.53 174.377 256.693 171.105 256.693 167.069C256.693 163.033 253.53 159.761 249.628 159.761C245.726 159.761 242.563 163.033 242.563 167.069C242.563 171.105 245.726 174.377 249.628 174.377Z" stroke="#6A00FF" stroke-width="2.15551"/>
<path d="M252.648 152.05C257.145 152.05 260.79 148.296 260.79 143.664C260.79 139.033 257.145 135.278 252.648 135.278C248.151 135.278 244.505 139.033 244.505 143.664C244.505 148.296 248.151 152.05 252.648 152.05Z" fill="#80FF00"/>
<path d="M252.648 150.973C256.549 150.973 259.712 147.701 259.712 143.665C259.712 139.628 256.549 136.356 252.648 136.356C248.746 136.356 245.583 139.628 245.583 143.665C245.583 147.701 248.746 150.973 252.648 150.973Z" stroke="#80FF00" stroke-width="2.15551"/>
<path d="M155.128 171.574C159.625 171.574 163.271 167.819 163.271 163.188C163.271 158.556 159.625 154.802 155.128 154.802C150.631 154.802 146.986 158.556 146.986 163.188C146.986 167.819 150.631 171.574 155.128 171.574Z" fill="#66FFB3"/>
<path d="M155.128 170.495C159.03 170.495 162.193 167.223 162.193 163.187C162.193 159.151 159.03 155.879 155.128 155.879C151.226 155.879 148.063 159.151 148.063 163.187C148.063 167.223 151.226 170.495 155.128 170.495Z" stroke="#66FFB3" stroke-width="2.15551"/>
<path d="M171.414 188.346C175.911 188.346 179.557 184.591 179.557 179.96C179.557 175.328 175.911 171.574 171.414 171.574C166.917 171.574 163.271 175.328 163.271 179.96C163.271 184.591 166.917 188.346 171.414 188.346Z" fill="#F2DBC2"/>
<path d="M171.414 187.268C175.316 187.268 178.479 183.996 178.479 179.96C178.479 175.923 175.316 172.651 171.414 172.651C167.512 172.651 164.349 175.923 164.349 179.96C164.349 183.996 167.512 187.268 171.414 187.268Z" stroke="#F2DBC2" stroke-width="2.15551"/>
<path d="M217.669 128.154C222.166 128.154 225.812 124.4 225.812 119.768C225.812 115.137 222.166 111.382 217.669 111.382C213.172 111.382 209.527 115.137 209.527 119.768C209.527 124.4 213.172 128.154 217.669 128.154Z" fill="black"/>
<path d="M217.669 127.076C221.571 127.076 224.734 123.804 224.734 119.768C224.734 115.731 221.571 112.459 217.669 112.459C213.767 112.459 210.604 115.731 210.604 119.768C210.604 123.804 213.767 127.076 217.669 127.076Z" stroke="black" stroke-width="2.15551"/>
<path d="M236.363 111.383C240.86 111.383 244.505 107.628 244.505 102.997C244.505 98.3653 240.86 94.6108 236.363 94.6108C231.866 94.6108 228.22 98.3653 228.22 102.997C228.22 107.628 231.866 111.383 236.363 111.383Z" fill="#F0A30A"/>
<path d="M236.363 110.305C240.264 110.305 243.427 107.033 243.427 102.997C243.427 98.961 240.264 95.689 236.363 95.689C232.461 95.689 229.298 98.961 229.298 102.997C229.298 107.033 232.461 110.305 236.363 110.305Z" stroke="#F0A30A" stroke-width="2.15551"/>
<path d="M200 335.585L193.579 254.086L143.692 303.401L189.134 250.629L103.683 288.662L185.676 246.183L99.2373 253.27L191.985 240.256H200V335.585Z" fill="#008A00"/>
<path d="M200 335.585L206.421 254.086L256.309 303.401L210.867 250.629L296.318 288.662L214.324 246.183L300.763 253.27L208.016 240.256H200V335.585Z" fill="#008A00"/>
</svg>
