<svg width="500" height="500" viewBox="0 0 500 500" fill="none" xmlns="http://www.w3.org/2000/svg">
<path d="M120.51 415.123C122.957 419.995 127.635 422.431 134.545 422.431C141.455 422.431 146.097 420.036 148.473 415.247C150.92 410.458 152.143 402.449 152.143 391.219C152.143 379.907 150.884 371.692 148.365 366.573C145.917 361.453 141.311 358.894 134.545 358.894C127.779 358.894 123.137 361.453 120.618 366.573C118.098 371.692 116.839 379.866 116.839 391.096C116.839 402.242 118.062 410.252 120.51 415.123ZM157.865 424.041C153.475 430.976 145.701 434.444 134.545 434.444C123.389 434.444 115.579 430.976 111.117 424.041C106.654 417.022 104.423 406.041 104.423 391.096C104.423 376.151 106.654 365.045 111.117 357.779C115.651 350.513 123.461 346.88 134.545 346.88C145.629 346.88 153.403 350.513 157.865 357.779C162.328 364.962 164.559 376.068 164.559 391.096C164.559 406.123 162.328 417.105 157.865 424.041Z" fill="#3399FF"/>
<path d="M177.158 433.084V348.244H184.781C193.461 348.244 201.193 353.731 204.058 361.925L222.711 415.27C223.091 416.355 224.696 416.082 224.696 414.933V348.244H237.351V433.084H230.106C221.464 433.084 213.757 427.644 210.863 419.5L191.795 365.839C191.411 364.758 189.812 365.034 189.812 366.181V433.084H177.158Z" fill="#3399FF"/>
<path d="M401.014 433.084V348.244H449.173C455.808 348.244 461.187 353.623 461.187 360.258V360.258H414.761V388.868H442.609C449.244 388.868 454.623 394.247 454.623 400.882V400.882H414.761V433.084H401.014Z" fill="#3399FF"/>
<path fill-rule="evenodd" clip-rule="evenodd" d="M337.341 348.555L330.217 348.031V355.174V433.288H343.491V400.102H375.75C377.729 409.32 378.719 420.343 378.719 433.288H391.993C391.993 408.38 388.531 388.04 379.827 373.414C370.813 358.267 356.614 349.972 337.341 348.555ZM372.524 388.87C371.329 385.678 369.961 382.792 368.42 380.203C362.931 370.979 354.992 365.093 343.491 362.754V388.87H372.524Z" fill="#3399FF"/>
<path d="M39.0527 348.244H59.8803C68.5501 348.244 75.0318 350.019 79.3253 353.57C83.6189 357.038 85.7657 362.611 85.7657 370.29C85.7657 375.327 84.94 379.29 83.2887 382.18C81.8342 384.725 78.5573 387.587 78.5573 387.587C78.5573 387.587 84.0528 387.978 87.1079 389.364C95.1997 392.501 99.2455 399.065 99.2455 409.056C99.2455 425.075 90.2455 433.084 72.2455 433.084H39.0527V348.244ZM71.2546 396.052H52.8005V421.194H71.5024C76.0437 421.194 79.429 420.244 81.6583 418.345C83.9703 416.446 85.1262 413.185 85.1262 408.561C85.1262 403.937 83.8051 400.717 81.1629 398.9C78.5207 397.001 75.218 396.052 71.2546 396.052ZM59.1372 360.134H52.8005V384.409H59.6326C67.7244 384.409 71.7703 380.24 71.7703 371.9C71.7703 364.056 67.5593 360.134 59.1372 360.134Z" fill="#3399FF"/>
<path d="M279.29 433.084H250.625V348.244C291.459 347.819 312.975 381.337 310.646 406.748C310.04 411.349 308.985 415.959 305.767 420.94C299.872 429.399 292.595 433.084 279.29 433.084ZM264.05 364.049V420.946H279.29C287.273 420.946 293.773 417.248 296.203 411.882C298.146 407.591 298.146 404.084 298.146 402.087C297.928 384.413 280.611 363.876 264.05 364.049Z" fill="#3399FF"/>
<path d="M315.169 348.348L315.169 361.582L316.471 376.311" stroke="#3399FF" stroke-width="11.5707"/>
<path d="M39.6973 450.519V447.397H55.4636V450.519H49.3778V468.997H45.8462V450.519H39.6973Z" fill="#008A00"/>
<path d="M80.3546 468.997V459.663H71.0209V468.997H67.5207V447.397H71.0209V456.605H80.3546V447.397H83.8862V468.997H80.3546Z" fill="#008A00"/>
<path d="M97.9745 468.997V447.397H101.475V468.997H97.9745Z" fill="#008A00"/>
<path d="M121.925 450.109C119.256 450.109 117.921 451.044 117.921 452.915C117.921 453.882 118.236 454.576 118.867 454.996C119.497 455.396 120.885 455.9 123.029 456.51C125.194 457.099 126.718 457.813 127.601 458.654C128.484 459.474 128.926 460.777 128.926 462.564C128.926 464.835 128.274 466.537 126.971 467.673C125.688 468.787 123.933 469.344 121.705 469.344C119.918 469.344 117.942 469.134 115.776 468.713L114.641 468.492L114.988 465.686C117.826 466.064 119.991 466.254 121.484 466.254C124.091 466.254 125.394 465.097 125.394 462.785C125.394 461.881 125.1 461.219 124.511 460.798C123.922 460.357 122.598 459.884 120.538 459.379C118.478 458.854 116.943 458.139 115.934 457.235C114.925 456.331 114.421 454.902 114.421 452.947C114.421 450.992 115.051 449.52 116.313 448.532C117.595 447.523 119.361 447.019 121.61 447.019C123.229 447.019 125.142 447.208 127.349 447.586L128.453 447.775L128.169 450.613C125.226 450.277 123.145 450.109 121.925 450.109Z" fill="#008A00"/>
<path d="M173.999 468.997V447.397H177.499V468.997H173.999Z" fill="#008A00"/>
<path d="M197.95 450.109C195.28 450.109 193.945 451.044 193.945 452.915C193.945 453.882 194.261 454.576 194.891 454.996C195.522 455.396 196.91 455.9 199.054 456.51C201.219 457.099 202.743 457.813 203.626 458.654C204.509 459.474 204.95 460.777 204.95 462.564C204.95 464.835 204.299 466.537 202.995 467.673C201.713 468.787 199.958 469.344 197.729 469.344C195.943 469.344 193.966 469.134 191.801 468.713L190.666 468.492L191.013 465.686C193.851 466.064 196.016 466.254 197.509 466.254C200.115 466.254 201.419 465.097 201.419 462.785C201.419 461.881 201.124 461.219 200.536 460.798C199.947 460.357 198.623 459.884 196.563 459.379C194.503 458.854 192.968 458.139 191.959 457.235C190.95 456.331 190.445 454.902 190.445 452.947C190.445 450.992 191.076 449.52 192.337 448.532C193.62 447.523 195.385 447.019 197.635 447.019C199.253 447.019 201.166 447.208 203.374 447.586L204.477 447.775L204.194 450.613C201.251 450.277 199.169 450.109 197.95 450.109Z" fill="#008A00"/>
<path d="M247.943 450.519V447.397H263.709V450.519H257.623V468.997H254.092V450.519H247.943Z" fill="#008A00"/>
<path d="M288.6 468.997V459.663H279.266V468.997H275.766V447.397H279.266V456.605H288.6V447.397H292.132V468.997H288.6Z" fill="#008A00"/>
<path d="M306.22 468.997V447.397H319.842V450.456H309.72V456.573H317.95V459.6H309.72V465.907H319.842V468.997H306.22Z" fill="#008A00"/>
<path d="M364.94 447.397H373.139C375.346 447.397 376.996 447.849 378.089 448.753C379.182 449.636 379.729 451.055 379.729 453.01C379.729 454.292 379.519 455.301 379.098 456.037C378.699 456.773 378.058 457.382 377.175 457.866C379.235 458.665 380.265 460.336 380.265 462.88C380.265 466.958 377.974 468.997 373.391 468.997H364.94V447.397ZM373.139 459.569H368.44V465.97H373.202C374.358 465.97 375.22 465.728 375.787 465.244C376.376 464.761 376.67 463.931 376.67 462.753C376.67 461.576 376.334 460.756 375.661 460.294C374.988 459.81 374.148 459.569 373.139 459.569ZM372.949 450.424H368.44V456.605H373.076C375.136 456.605 376.166 455.543 376.166 453.42C376.166 451.423 375.094 450.424 372.949 450.424Z" fill="#008A00"/>
<path d="M393.392 468.997V447.397H407.014V450.456H396.892V456.573H405.122V459.6H396.892V465.907H407.014V468.997H393.392Z" fill="#008A00"/>
<path d="M426.304 450.109C423.634 450.109 422.299 451.044 422.299 452.915C422.299 453.882 422.615 454.576 423.245 454.996C423.876 455.396 425.263 455.9 427.408 456.51C429.573 457.099 431.097 457.813 431.98 458.654C432.863 459.474 433.304 460.777 433.304 462.564C433.304 464.835 432.653 466.537 431.349 467.673C430.067 468.787 428.312 469.344 426.083 469.344C424.296 469.344 422.32 469.134 420.155 468.713L419.02 468.492L419.367 465.686C422.205 466.064 424.37 466.254 425.863 466.254C428.469 466.254 429.773 465.097 429.773 462.785C429.773 461.881 429.478 461.219 428.89 460.798C428.301 460.357 426.977 459.884 424.917 459.379C422.856 458.854 421.322 458.139 420.313 457.235C419.304 456.331 418.799 454.902 418.799 452.947C418.799 450.992 419.43 449.52 420.691 448.532C421.973 447.523 423.739 447.019 425.989 447.019C427.607 447.019 429.52 447.208 431.728 447.586L432.831 447.775L432.547 450.613C429.604 450.277 427.523 450.109 426.304 450.109Z" fill="#008A00"/>
<path d="M444.151 450.519V447.397H459.917V450.519H453.831V468.997H450.299V450.519H444.151Z" fill="#008A00"/>
<path d="M268.956 175.139L301.943 166.898L324.216 145.686L334.974 115.974L329.292 80.196L307.757 41.6067L278.038 27.1766L242.785 18.0024L208.586 27.1767L166.522 54.6402L151.845 105.378L164.035 149.005L191.157 170.245L225.328 175.139" stroke="#3399FF" stroke-width="7.08886"/>
<path d="M226.083 230.063L237.459 170.053L218.066 127.768L206.542 140.269L209.862 156.08L203.521 142.108L185.284 138.026L203.521 138.026L215.866 125.525L200.165 100.889L193.116 114.531L178.199 112.288L190.506 109.714L197.592 98.3155L200.165 94.3076L203.521 84.3432L200.165 64.1567L206.542 81.8061L218.066 86.2184H206.542L203.521 94.3076L245.664 156.08L284.488 100.889L277.737 84.3432L266.96 86.2184L280.721 79.5999L286.688 69.6722L284.488 86.2183L291.573 100.889L280.721 119.642L291.573 123.723L306.118 117.105L294.893 125.525L300.114 135.453L291.574 127.768L277.737 122.216L252.75 170.053L263.029 230.063C263.029 230.063 260.541 243.665 244.556 243.665C228.571 243.665 226.083 230.063 226.083 230.063Z" fill="#008A00" stroke="#008A00" stroke-width="2.57796"/>
<path d="M177.35 119.839C182.728 119.839 187.088 115.349 187.088 109.81C187.088 104.271 182.728 99.7803 177.35 99.7803C171.972 99.7803 167.612 104.271 167.612 109.81C167.612 115.349 171.972 119.839 177.35 119.839Z" fill="#FA6800"/>
<path d="M177.351 118.549C182.017 118.549 185.8 114.636 185.8 109.808C185.8 104.981 182.017 101.068 177.351 101.068C172.684 101.068 168.901 104.981 168.901 109.808C168.901 114.636 172.684 118.549 177.351 118.549Z" stroke="#FA6800" stroke-width="2.57796"/>
<path d="M200.073 70.3001C205.452 70.3001 209.812 65.8097 209.812 60.2706C209.812 54.7315 205.452 50.2412 200.073 50.2412C194.695 50.2412 190.335 54.7315 190.335 60.2706C190.335 65.8097 194.695 70.3001 200.073 70.3001Z" fill="#FFFF00"/>
<path d="M200.073 69.0117C204.739 69.0117 208.522 65.0985 208.522 60.2712C208.522 55.444 204.739 51.5308 200.073 51.5308C195.406 51.5308 191.624 55.444 191.624 60.2712C191.624 65.0985 195.406 69.0117 200.073 69.0117Z" stroke="#FFFF00" stroke-width="2.57796"/>
<path d="M225.448 94.2346C230.826 94.2346 235.186 89.7443 235.186 84.2052C235.186 78.6661 230.826 74.1758 225.448 74.1758C220.069 74.1758 215.709 78.6661 215.709 84.2052C215.709 89.7443 220.069 94.2346 225.448 94.2346Z" fill="#E51400"/>
<path d="M225.448 92.9448C230.114 92.9448 233.897 89.0316 233.897 84.2043C233.897 79.3771 230.114 75.4639 225.448 75.4639C220.781 75.4639 216.999 79.3771 216.999 84.2043C216.999 89.0316 220.781 92.9448 225.448 92.9448Z" stroke="#E51400" stroke-width="2.57796"/>
<path d="M303.354 150.806C308.732 150.806 313.092 146.316 313.092 140.777C313.092 135.238 308.732 130.748 303.354 130.748C297.976 130.748 293.616 135.238 293.616 140.777C293.616 146.316 297.976 150.806 303.354 150.806Z" fill="#6A00FF"/>
<path d="M303.355 149.516C308.021 149.516 311.804 145.603 311.804 140.776C311.804 135.948 308.021 132.035 303.355 132.035C298.688 132.035 294.905 135.948 294.905 140.776C294.905 145.603 298.688 149.516 303.355 149.516Z" stroke="#6A00FF" stroke-width="2.57796"/>
<path d="M306.966 122.813C312.344 122.813 316.704 118.323 316.704 112.784C316.704 107.245 312.344 102.754 306.966 102.754C301.588 102.754 297.228 107.245 297.228 112.784C297.228 118.323 301.588 122.813 306.966 122.813Z" fill="#80FF00"/>
<path d="M306.966 121.524C311.632 121.524 315.415 117.611 315.415 112.784C315.415 107.957 311.632 104.043 306.966 104.043C302.299 104.043 298.517 107.957 298.517 112.784C298.517 117.611 302.299 121.524 306.966 121.524Z" stroke="#80FF00" stroke-width="2.57796"/>
<path d="M190.334 146.163C195.712 146.163 200.072 141.673 200.072 136.134C200.072 130.595 195.712 126.104 190.334 126.104C184.956 126.104 180.596 130.595 180.596 136.134C180.596 141.673 184.956 146.163 190.334 146.163Z" fill="#66FFB3"/>
<path d="M190.334 144.874C195 144.874 198.783 140.96 198.783 136.133C198.783 131.306 195 127.393 190.334 127.393C185.668 127.393 181.885 131.306 181.885 136.133C181.885 140.96 185.668 144.874 190.334 144.874Z" stroke="#66FFB3" stroke-width="2.57796"/>
<path d="M209.812 166.222C215.19 166.222 219.55 161.732 219.55 156.193C219.55 150.653 215.19 146.163 209.812 146.163C204.433 146.163 200.073 150.653 200.073 156.193C200.073 161.732 204.433 166.222 209.812 166.222Z" fill="#F2DBC2"/>
<path d="M209.812 164.933C214.478 164.933 218.261 161.019 218.261 156.192C218.261 151.365 214.478 147.452 209.812 147.452C205.145 147.452 201.362 151.365 201.362 156.192C201.362 161.019 205.145 164.933 209.812 164.933Z" stroke="#F2DBC2" stroke-width="2.57796"/>
<path d="M265.132 94.2346C270.511 94.2346 274.871 89.7443 274.871 84.2052C274.871 78.6661 270.511 74.1758 265.132 74.1758C259.754 74.1758 255.394 78.6661 255.394 84.2052C255.394 89.7443 259.754 94.2346 265.132 94.2346Z" fill="black"/>
<path d="M265.132 92.9448C269.798 92.9448 273.581 89.0316 273.581 84.2043C273.581 79.3771 269.798 75.4639 265.132 75.4639C260.465 75.4639 256.683 79.3771 256.683 84.2043C256.683 89.0316 260.465 92.9448 265.132 92.9448Z" stroke="black" stroke-width="2.57796"/>
<path d="M287.489 74.176C292.868 74.176 297.228 69.6857 297.228 64.1466C297.228 58.6075 292.868 54.1172 287.489 54.1172C282.111 54.1172 277.751 58.6075 277.751 64.1466C277.751 69.6857 282.111 74.176 287.489 74.176Z" fill="#F0A30A"/>
<path d="M287.489 72.8877C292.155 72.8877 295.938 68.9745 295.938 64.1472C295.938 59.32 292.155 55.4067 287.489 55.4067C282.822 55.4067 279.04 59.32 279.04 64.1472C279.04 68.9745 282.822 72.8877 287.489 72.8877Z" stroke="#F0A30A" stroke-width="2.57796"/>
<path d="M244 342.318L236.321 244.846L176.656 303.826L231.004 240.711L128.806 286.198L226.869 235.395L123.49 243.871L234.414 228.306H244V342.318Z" fill="#008A00"/>
<path d="M244 342.318L251.68 244.846L311.344 303.826L256.996 240.711L359.194 286.198L261.131 235.395L364.511 243.871L253.586 228.306H244V342.318Z" fill="#008A00"/>
</svg>
