<svg width="600" height="300" viewBox="0 0 600 300" fill="none" xmlns="http://www.w3.org/2000/svg">
<path d="M170.51 151.185C172.957 156.056 177.635 158.492 184.545 158.492C191.455 158.492 196.097 156.098 198.473 151.309C200.92 146.52 202.143 138.51 202.143 127.281C202.143 115.969 200.884 107.753 198.365 102.634C195.917 97.5148 191.311 94.9552 184.545 94.9552C177.779 94.9552 173.137 97.5148 170.618 102.634C168.098 107.753 166.839 115.928 166.839 127.157C166.839 138.304 168.062 146.313 170.51 151.185ZM207.865 160.102C203.475 167.038 195.701 170.506 184.545 170.506C173.389 170.506 165.579 167.038 161.117 160.102C156.654 153.084 154.423 142.102 154.423 127.157C154.423 112.212 156.654 101.107 161.117 93.8405C165.651 86.5744 173.461 82.9414 184.545 82.9414C195.629 82.9414 203.403 86.5744 207.865 93.8405C212.328 101.024 214.559 112.13 214.559 127.157C214.559 142.185 212.328 153.166 207.865 160.102Z" fill="white"/>
<path d="M227.158 169.145V84.3057H234.781C243.461 84.3057 251.193 89.7929 254.058 97.9867L272.711 151.331C273.091 152.417 274.696 152.144 274.696 150.994V84.3057H287.351V169.145H280.106C271.464 169.145 263.757 163.705 260.863 155.561L241.795 101.901C241.411 100.82 239.812 101.096 239.812 102.243V169.145H227.158Z" fill="white"/>
<path d="M451.014 169.145V84.3057H499.173C505.808 84.3057 511.187 89.6844 511.187 96.3195V96.3195H464.761V124.93H492.609C499.244 124.93 504.623 130.308 504.623 136.943V136.943H464.761V169.145H451.014Z" fill="white"/>
<path fill-rule="evenodd" clip-rule="evenodd" d="M387.341 84.6166L380.217 84.0928V91.2358V169.349H393.491V136.163H425.75C427.729 145.382 428.719 156.405 428.719 169.349H441.993C441.993 144.442 438.531 124.102 429.827 109.476C420.813 94.3284 406.614 86.0338 387.341 84.6166ZM422.524 124.931C421.329 121.739 419.961 118.853 418.42 116.264C412.931 107.04 404.992 101.154 393.491 98.8155V124.931H422.524Z" fill="white"/>
<path d="M89.0527 84.3057H109.88C118.55 84.3057 125.032 86.0809 129.325 89.6314C133.619 93.0993 135.766 98.6727 135.766 106.352C135.766 111.388 134.94 115.352 133.289 118.242C131.834 120.787 128.557 123.648 128.557 123.648C128.557 123.648 134.053 124.039 137.108 125.425C145.2 128.563 149.246 135.127 149.246 145.118C149.246 161.136 140.246 169.145 122.245 169.145H89.0527V84.3057ZM121.255 132.113H102.8V157.255H121.502C126.044 157.255 129.429 156.306 131.658 154.407C133.97 152.508 135.126 149.246 135.126 144.622C135.126 139.998 133.805 136.778 131.163 134.962C128.521 133.063 125.218 132.113 121.255 132.113ZM109.137 96.1956H102.8V120.471H109.633C117.724 120.471 121.77 116.301 121.77 107.962C121.77 100.118 117.559 96.1956 109.137 96.1956Z" fill="white"/>
<path d="M329.29 169.145H300.625V84.3058C341.459 83.8807 362.975 117.398 360.646 142.809C360.04 147.411 358.985 152.02 355.767 157.001C349.872 165.46 342.595 169.145 329.29 169.145ZM314.05 100.111V157.008H329.29C337.273 157.008 343.773 153.31 346.203 147.943C348.146 143.653 348.146 140.146 348.146 138.148C347.928 120.474 330.611 99.9374 314.05 100.111Z" fill="white"/>
<path d="M365.169 84.4099L365.169 97.6439L366.471 112.373" stroke="white" stroke-width="11.5707"/>
<path d="M89.6973 186.58V183.458H105.464V186.58H99.3778V205.058H95.8462V186.58H89.6973Z" fill="white" fill-opacity="0.8"/>
<path d="M130.355 205.058V195.725H121.021V205.058H117.521V183.458H121.021V192.666H130.355V183.458H133.886V205.058H130.355Z" fill="white" fill-opacity="0.8"/>
<path d="M147.974 205.058V183.458H151.475V205.058H147.974Z" fill="white" fill-opacity="0.8"/>
<path d="M171.925 186.17C169.256 186.17 167.921 187.106 167.921 188.977C167.921 189.944 168.236 190.637 168.867 191.058C169.497 191.457 170.885 191.962 173.029 192.571C175.194 193.16 176.718 193.875 177.601 194.716C178.484 195.536 178.926 196.839 178.926 198.626C178.926 200.896 178.274 202.599 176.971 203.734C175.688 204.848 173.933 205.405 171.705 205.405C169.918 205.405 167.942 205.195 165.776 204.775L164.641 204.554L164.988 201.747C167.826 202.126 169.991 202.315 171.484 202.315C174.091 202.315 175.394 201.159 175.394 198.846C175.394 197.943 175.1 197.28 174.511 196.86C173.922 196.418 172.598 195.945 170.538 195.441C168.478 194.915 166.943 194.201 165.934 193.297C164.925 192.393 164.421 190.963 164.421 189.008C164.421 187.053 165.051 185.582 166.313 184.594C167.595 183.585 169.361 183.08 171.61 183.08C173.229 183.08 175.142 183.269 177.349 183.648L178.453 183.837L178.169 186.675C175.226 186.338 173.145 186.17 171.925 186.17Z" fill="white" fill-opacity="0.8"/>
<path d="M223.999 205.058V183.458H227.499V205.058H223.999Z" fill="white" fill-opacity="0.8"/>
<path d="M247.95 186.17C245.28 186.17 243.945 187.106 243.945 188.977C243.945 189.944 244.261 190.637 244.891 191.058C245.522 191.457 246.91 191.962 249.054 192.571C251.219 193.16 252.743 193.875 253.626 194.716C254.509 195.536 254.95 196.839 254.95 198.626C254.95 200.896 254.299 202.599 252.995 203.734C251.713 204.848 249.958 205.405 247.729 205.405C245.943 205.405 243.966 205.195 241.801 204.775L240.666 204.554L241.013 201.747C243.851 202.126 246.016 202.315 247.509 202.315C250.115 202.315 251.419 201.159 251.419 198.846C251.419 197.943 251.124 197.28 250.536 196.86C249.947 196.418 248.623 195.945 246.563 195.441C244.503 194.915 242.968 194.201 241.959 193.297C240.95 192.393 240.445 190.963 240.445 189.008C240.445 187.053 241.076 185.582 242.337 184.594C243.62 183.585 245.385 183.08 247.635 183.08C249.253 183.08 251.166 183.269 253.374 183.648L254.477 183.837L254.194 186.675C251.251 186.338 249.169 186.17 247.95 186.17Z" fill="white" fill-opacity="0.8"/>
<path d="M297.943 186.58V183.458H313.709V186.58H307.623V205.058H304.092V186.58H297.943Z" fill="white" fill-opacity="0.8"/>
<path d="M338.6 205.058V195.725H329.266V205.058H325.766V183.458H329.266V192.666H338.6V183.458H342.132V205.058H338.6Z" fill="white" fill-opacity="0.8"/>
<path d="M356.22 205.058V183.458H369.842V186.517H359.72V192.635H367.95V195.662H359.72V201.968H369.842V205.058H356.22Z" fill="white" fill-opacity="0.8"/>
<path d="M414.94 183.458H423.139C425.346 183.458 426.996 183.91 428.089 184.814C429.182 185.697 429.729 187.116 429.729 189.071C429.729 190.354 429.519 191.363 429.098 192.098C428.699 192.834 428.058 193.444 427.175 193.927C429.235 194.726 430.265 196.397 430.265 198.941C430.265 203.019 427.974 205.058 423.391 205.058H414.94V183.458ZM423.139 195.63H418.44V202.031H423.202C424.358 202.031 425.22 201.79 425.787 201.306C426.376 200.823 426.67 199.992 426.67 198.815C426.67 197.638 426.334 196.818 425.661 196.355C424.988 195.872 424.148 195.63 423.139 195.63ZM422.949 186.486H418.44V192.666H423.076C425.136 192.666 426.166 191.604 426.166 189.481C426.166 187.484 425.094 186.486 422.949 186.486Z" fill="white" fill-opacity="0.8"/>
<path d="M443.392 205.058V183.458H457.014V186.517H446.892V192.635H455.122V195.662H446.892V201.968H457.014V205.058H443.392Z" fill="white" fill-opacity="0.8"/>
<path d="M476.304 186.17C473.634 186.17 472.299 187.106 472.299 188.977C472.299 189.944 472.615 190.637 473.245 191.058C473.876 191.457 475.263 191.962 477.408 192.571C479.573 193.16 481.097 193.875 481.98 194.716C482.863 195.536 483.304 196.839 483.304 198.626C483.304 200.896 482.653 202.599 481.349 203.734C480.067 204.848 478.312 205.405 476.083 205.405C474.296 205.405 472.32 205.195 470.155 204.775L469.02 204.554L469.367 201.747C472.205 202.126 474.37 202.315 475.863 202.315C478.469 202.315 479.773 201.159 479.773 198.846C479.773 197.943 479.478 197.28 478.89 196.86C478.301 196.418 476.977 195.945 474.917 195.441C472.856 194.915 471.322 194.201 470.313 193.297C469.304 192.393 468.799 190.963 468.799 189.008C468.799 187.053 469.43 185.582 470.691 184.594C471.973 183.585 473.739 183.08 475.989 183.08C477.607 183.08 479.52 183.269 481.728 183.648L482.831 183.837L482.547 186.675C479.604 186.338 477.523 186.17 476.304 186.17Z" fill="white" fill-opacity="0.8"/>
<path d="M494.151 186.58V183.458H509.917V186.58H503.831V205.058H500.299V186.58H494.151Z" fill="white" fill-opacity="0.8"/>
</svg>
