<svg xmlns="http://www.w3.org/2000/svg" xmlns:xlink="http://www.w3.org/1999/xlink" width="520" height="520" viewBox="0 0 520 520">
  <defs>
    <clipPath id="clip-path">
      <rect id="Rectangle_567" data-name="Rectangle 567" width="520" height="520" transform="translate(-4182 -19413)" fill="#fff" stroke="#fff" stroke-width="1"/>
    </clipPath>
    <clipPath id="clip-path-2">
      <path id="path1386" d="M0-520H520V0H0Z"/>
    </clipPath>
  </defs>
  <g id="Media" transform="translate(4182 19413)" clip-path="url(#clip-path)">
    <g id="user" transform="translate(-4182 -18893)">
      <g id="g1382">
        <g id="g1384" clip-path="url(#clip-path-2)">
          <g id="g1390" transform="translate(413.892 -260)">
            <path id="path1392" d="M0,0A153.891,153.891,0,0,1-153.892,153.892,153.892,153.892,0,0,1-307.784,0,153.892,153.892,0,0,1-153.892-153.892,153.891,153.891,0,0,1,0,0Z" fill="none" stroke="#fff" stroke-linecap="round" stroke-linejoin="round" stroke-miterlimit="10" stroke-width="15.234"/>
          </g>
          <g id="g1394" transform="translate(94.159 -482.818)">
            <path id="path1396" d="M0,0A41,41,0,0,1,18.109,34.044,41.039,41.039,0,0,1-22.933,75.085,41.039,41.039,0,0,1-63.974,34.044a41.075,41.075,0,0,1,29.829-39.5" fill="none" stroke="#fff" stroke-linecap="round" stroke-linejoin="round" stroke-miterlimit="10" stroke-width="15.234"/>
          </g>
          <g id="g1398" transform="translate(290.778 -481.605)">
            <path id="path1400" d="M0,0A30.778,30.778,0,0,1-30.779,30.779,30.778,30.778,0,0,1-61.556,0,30.778,30.778,0,0,1-30.779-30.779,30.778,30.778,0,0,1,0,0Z" fill="none" stroke="#fff" stroke-linecap="round" stroke-linejoin="round" stroke-miterlimit="10" stroke-width="15.234"/>
          </g>
          <g id="g1402" transform="translate(290.778 -38.395)">
            <path id="path1404" d="M0,0A30.778,30.778,0,0,1-30.779,30.779,30.778,30.778,0,0,1-61.556,0,30.778,30.778,0,0,1-30.779-30.779,30.778,30.778,0,0,1,0,0Z" fill="none" stroke="#fff" stroke-linecap="round" stroke-linejoin="round" stroke-miterlimit="10" stroke-width="15.234"/>
          </g>
          <g id="g1406" transform="translate(512.383 -260)">
            <path id="path1408" d="M0,0A30.779,30.779,0,0,1-30.779,30.779,30.778,30.778,0,0,1-61.556,0,30.778,30.778,0,0,1-30.779-30.779,30.779,30.779,0,0,1,0,0Z" fill="none" stroke="#fff" stroke-linecap="round" stroke-linejoin="round" stroke-miterlimit="10" stroke-width="15.234"/>
          </g>
          <g id="g1410" transform="translate(69.174 -260)">
            <path id="path1412" d="M0,0A30.778,30.778,0,0,1-30.779,30.779,30.778,30.778,0,0,1-61.556,0,30.778,30.778,0,0,1-30.779-30.779,30.778,30.778,0,0,1,0,0Z" fill="none" stroke="#fff" stroke-linecap="round" stroke-linejoin="round" stroke-miterlimit="10" stroke-width="15.234"/>
          </g>
          <g id="g1414" transform="translate(277.773 -173.824)">
            <path id="path1416" d="M0,0H68.4V-45.134A41.036,41.036,0,0,0,27.371-86.176H-62.918a41.036,41.036,0,0,0-41.031,41.041V0h68.4" fill="none" stroke="#fff" stroke-linecap="round" stroke-linejoin="round" stroke-miterlimit="10" stroke-width="15.234"/>
          </g>
          <g id="g1418" transform="translate(303.09 -194.339)">
            <path id="path1420" d="M0,0V20.519" fill="none" stroke="#fff" stroke-linecap="round" stroke-linejoin="round" stroke-miterlimit="10" stroke-width="15.234"/>
          </g>
          <g id="g1422" transform="translate(216.91 -194.339)">
            <path id="path1424" d="M0,0V20.519" fill="none" stroke="#fff" stroke-linecap="round" stroke-linejoin="round" stroke-miterlimit="10" stroke-width="15.234"/>
          </g>
          <g id="g1426" transform="translate(311.297 -311.297)">
            <path id="path1428" d="M0,0A51.3,51.3,0,0,1-51.3,51.3,51.3,51.3,0,0,1-102.594,0,51.3,51.3,0,0,1-51.3-51.3,51.3,51.3,0,0,1,0,0Z" fill="none" stroke="#fff" stroke-linecap="round" stroke-linejoin="round" stroke-miterlimit="10" stroke-width="15.234"/>
          </g>
          <g id="g1430" transform="translate(69.174 -260)">
            <path id="path1432" d="M0,0H36.934" fill="none" stroke="#fff" stroke-linecap="round" stroke-linejoin="round" stroke-miterlimit="10" stroke-width="15.234"/>
          </g>
          <g id="g1434" transform="translate(450.826 -260)">
            <path id="path1436" d="M0,0H-36.934" fill="none" stroke="#fff" stroke-linecap="round" stroke-linejoin="round" stroke-miterlimit="10" stroke-width="15.234"/>
          </g>
          <g id="g1438" transform="translate(260 -450.826)">
            <path id="path1440" d="M0,0V36.934" fill="none" stroke="#fff" stroke-linecap="round" stroke-linejoin="round" stroke-miterlimit="10" stroke-width="15.234"/>
          </g>
          <g id="g1442" transform="translate(260 -69.174)">
            <path id="path1444" d="M0,0V-36.934" fill="none" stroke="#fff" stroke-linecap="round" stroke-linejoin="round" stroke-miterlimit="10" stroke-width="15.234"/>
          </g>
          <g id="g1446" transform="translate(100.978 -419.022)">
            <path id="path1448" d="M0,0,49.246,49.246" fill="none" stroke="#fff" stroke-linecap="round" stroke-linejoin="round" stroke-miterlimit="10" stroke-width="15.234"/>
          </g>
          <g id="g1450" transform="translate(489.812 -448.774)">
            <path id="path1452" d="M0,0A41.038,41.038,0,0,1-41.037,41.038,41.038,41.038,0,0,1-82.076,0,41.037,41.037,0,0,1-41.037-41.037,41.037,41.037,0,0,1,0,0Z" fill="none" stroke="#fff" stroke-linecap="round" stroke-linejoin="round" stroke-miterlimit="10" stroke-width="15.234"/>
          </g>
          <g id="g1454" transform="translate(419.022 -419.022)">
            <path id="path1456" d="M0,0-49.246,49.246" fill="none" stroke="#fff" stroke-linecap="round" stroke-linejoin="round" stroke-miterlimit="10" stroke-width="15.234"/>
          </g>
          <g id="g1458" transform="translate(487.713 -84.236)">
            <path id="path1460" d="M0,0A41.085,41.085,0,0,1,2.1,13.01,41.039,41.039,0,0,1-38.939,54.052,41.039,41.039,0,0,1-79.98,13.01,41.039,41.039,0,0,1-38.939-28.031,40.928,40.928,0,0,1-23.928-25.2" fill="none" stroke="#fff" stroke-linecap="round" stroke-linejoin="round" stroke-miterlimit="10" stroke-width="15.234"/>
          </g>
          <g id="g1462" transform="translate(419.022 -100.978)">
            <path id="path1464" d="M0,0-49.246-49.246" fill="none" stroke="#fff" stroke-linecap="round" stroke-linejoin="round" stroke-miterlimit="10" stroke-width="15.234"/>
          </g>
          <g id="g1466" transform="translate(112.263 -71.226)">
            <path id="path1468" d="M0,0A41.037,41.037,0,0,1-41.037,41.037,41.038,41.038,0,0,1-82.076,0,41.039,41.039,0,0,1-41.037-41.038,41.038,41.038,0,0,1,0,0Z" fill="none" stroke="#fff" stroke-linecap="round" stroke-linejoin="round" stroke-miterlimit="10" stroke-width="15.234"/>
          </g>
          <g id="g1470" transform="translate(100.978 -100.978)">
            <path id="path1472" d="M0,0,49.246-49.246" fill="none" stroke="#fff" stroke-linecap="round" stroke-linejoin="round" stroke-miterlimit="10" stroke-width="15.234"/>
          </g>
        </g>
      </g>
    </g>
  </g>
</svg>
