<svg xmlns="http://www.w3.org/2000/svg"  width="70" height="100" viewBox="0 0 179 194">
  <!-- <defs>
    <clipPath id="clip-path">
      <rect id="Rectangle_588" data-name="Rectangle 588" width="179" height="194" transform="translate(7022 -16451)" fill="#fff" stroke="#707070" stroke-width="1"/>
    </clipPath>
  </defs> -->
  <g id="Support_indus" data-name="Support indus" transform="translate(-7022 16451)" clip-path="url(#clip-path)">
    <g id="manufacture" transform="translate(7022 -16437.389)">
      <path id="Path_2534" data-name="Path 2534" d="M2.887,71.84H18.9a42.938,42.938,0,0,0,4.067,9.782L11.634,92.954a2.889,2.889,0,0,0,0,4.085L23.882,109.29a2.89,2.89,0,0,0,4.083,0L39.3,97.952a42.909,42.909,0,0,0,9.779,4.066v16.017a2.887,2.887,0,0,0,2.887,2.887H69.29a2.887,2.887,0,0,0,2.887-2.887V102.017a42.909,42.909,0,0,0,9.779-4.066L93.294,109.29a2.972,2.972,0,0,0,4.083,0l12.25-12.251a2.889,2.889,0,0,0,0-4.085L98.288,81.622a42.937,42.937,0,0,0,4.067-9.782h16.017a2.887,2.887,0,0,0,2.887-2.887V51.631a2.888,2.888,0,0,0-2.887-2.887H102.354a42.95,42.95,0,0,0-4.067-9.781L109.624,27.63a2.889,2.889,0,0,0,0-4.085L97.376,11.295a2.888,2.888,0,0,0-4.083,0L81.956,22.633a43.031,43.031,0,0,0-9.779-4.066V2.55A2.888,2.888,0,0,0,69.29-.337H51.968A2.888,2.888,0,0,0,49.081,2.55V18.568A43.032,43.032,0,0,0,39.3,22.633L27.964,11.295a2.972,2.972,0,0,0-4.083,0L11.632,23.546a2.889,2.889,0,0,0,0,4.085L22.97,38.962A42.949,42.949,0,0,0,18.9,48.743H2.887A2.888,2.888,0,0,0,0,51.631V68.953A2.887,2.887,0,0,0,2.887,71.84ZM5.774,54.518H21.163a2.887,2.887,0,0,0,2.821-2.269,37.144,37.144,0,0,1,5.058-12.166,2.888,2.888,0,0,0-.39-3.6l-10.9-10.9,8.167-8.168,10.893,10.9a2.888,2.888,0,0,0,3.6.391,37.2,37.2,0,0,1,12.166-5.058,2.89,2.89,0,0,0,2.269-2.822V5.437H66.4V20.825a2.89,2.89,0,0,0,2.269,2.822,37.2,37.2,0,0,1,12.166,5.058,2.888,2.888,0,0,0,3.6-.391l10.893-10.9,8.165,8.168L92.607,36.479a2.888,2.888,0,0,0-.39,3.6,37.134,37.134,0,0,1,5.055,12.169,2.889,2.889,0,0,0,2.821,2.27h15.392V66.069H100.092a2.888,2.888,0,0,0-2.821,2.269A37.1,37.1,0,0,1,92.217,80.5a2.889,2.889,0,0,0,.39,3.6L103.5,95l-8.167,8.171L84.442,92.27a2.889,2.889,0,0,0-3.6-.39,37.116,37.116,0,0,1-12.163,5.058A2.887,2.887,0,0,0,66.4,99.758v15.388H54.855V99.758a2.888,2.888,0,0,0-2.272-2.821A37.117,37.117,0,0,1,40.419,91.88a2.889,2.889,0,0,0-3.6.39l-10.893,10.9L17.758,95,28.651,84.1a2.888,2.888,0,0,0,.39-3.6,37.156,37.156,0,0,1-5.058-12.169,2.886,2.886,0,0,0-2.821-2.267H5.774Zm0,0" fill="#fff"/>
      <path id="Path_2535" data-name="Path 2535" d="M60.629,83.389a23.1,23.1,0,1,0-23.1-23.1A23.1,23.1,0,0,0,60.629,83.389Zm0-40.419A17.323,17.323,0,1,1,43.306,60.292,17.324,17.324,0,0,1,60.629,42.969Zm0,0" fill="#fff"/>
      <path id="Path_2536" data-name="Path 2536" d="M60.629,92.05A31.758,31.758,0,1,0,28.871,60.292,31.758,31.758,0,0,0,60.629,92.05Zm0-57.742A25.984,25.984,0,1,1,34.645,60.292,25.983,25.983,0,0,1,60.629,34.308Zm0,0" fill="#fff"/>
      <path id="Path_2537" data-name="Path 2537" d="M164.565,132.469v-23.1a2.888,2.888,0,0,0-2.887-2.887H155.9v-23.1a2.888,2.888,0,0,0-2.887-2.887H127.032a2.888,2.888,0,0,0-2.887,2.887v23.1H109.71a2.888,2.888,0,0,0-2.887,2.887v23.1H14.435A14.453,14.453,0,0,0,0,146.9v5.774a14.452,14.452,0,0,0,14.435,14.435H164.565A14.452,14.452,0,0,0,179,152.679V146.9A14.453,14.453,0,0,0,164.565,132.469Zm-5.774,0h-20.21V112.26h20.21ZM129.919,86.276h20.21v20.21h-20.21ZM112.6,112.26h20.21v20.21H112.6Zm60.629,40.419a8.661,8.661,0,0,1-8.661,8.661H14.435a8.661,8.661,0,0,1-8.661-8.661V146.9a8.662,8.662,0,0,1,8.661-8.661H164.565a8.662,8.662,0,0,1,8.661,8.661Zm0,0" fill="#fff"/>
      <path id="Path_2538" data-name="Path 2538" d="M89.5,141.131a8.661,8.661,0,1,0,8.661,8.661,8.662,8.662,0,0,0-8.661-8.661Zm0,11.548a2.887,2.887,0,1,1,2.887-2.887A2.887,2.887,0,0,1,89.5,152.679Zm0,0" fill="#fff"/>
      <path id="Path_2539" data-name="Path 2539" d="M60.629,141.131a8.661,8.661,0,1,0,8.661,8.661,8.662,8.662,0,0,0-8.661-8.661Zm0,11.548a2.887,2.887,0,1,1,2.887-2.887A2.887,2.887,0,0,1,60.629,152.679Zm0,0" fill="#fff"/>
      <path id="Path_2540" data-name="Path 2540" d="M118.371,141.131a8.661,8.661,0,1,0,8.661,8.661,8.662,8.662,0,0,0-8.661-8.661Zm0,11.548a2.887,2.887,0,1,1,2.887-2.887A2.887,2.887,0,0,1,118.371,152.679Zm0,0" fill="#fff"/>
      <path id="Path_2541" data-name="Path 2541" d="M31.758,141.131a8.661,8.661,0,1,0,8.661,8.661,8.662,8.662,0,0,0-8.661-8.661Zm0,11.548a2.887,2.887,0,1,1,2.887-2.887A2.887,2.887,0,0,1,31.758,152.679Zm0,0" fill="#fff"/>
      <path id="Path_2542" data-name="Path 2542" d="M147.242,141.131a8.661,8.661,0,1,0,8.661,8.661,8.662,8.662,0,0,0-8.661-8.661Zm0,11.548a2.887,2.887,0,1,1,2.887-2.887A2.887,2.887,0,0,1,147.242,152.679Zm0,0" fill="#fff"/>
    </g>
  </g>
</svg>
