<svg xmlns="http://www.w3.org/2000/svg" xmlns:xlink="http://www.w3.org/1999/xlink" width="520" height="520" viewBox="0 0 520 520">
  <defs>
    <clipPath id="clip-path">
      <rect id="Rectangle_568" data-name="Rectangle 568" width="520" height="520" transform="translate(-3470 -19413)" fill="#fff" stroke="#fff" stroke-width="1"/>
    </clipPath>
  </defs>
  <g id="Transport" transform="translate(3470 19413)" clip-path="url(#clip-path)">
    <g id="transportation" transform="translate(-3470 -19413)">
      <g id="Group_942" data-name="Group 942">
        <g id="Group_941" data-name="Group 941">
          <rect id="Rectangle_570" data-name="Rectangle 570" width="69.332" height="17.333" transform="translate(78.004 311.994)" fill="#fff"/>
        </g>
      </g>
      <g id="Group_944" data-name="Group 944">
        <g id="Group_943" data-name="Group 943">
          <path id="Path_2492" data-name="Path 2492" d="M519.082,412.116l-26-52a8.666,8.666,0,0,0-7.752-4.79h-52v-26a8.667,8.667,0,0,0-8.667-8.667H251.334a8.667,8.667,0,0,0-8.667,8.667v156a8.667,8.667,0,0,0,8.667,8.667h35.9a34.5,34.5,0,0,0,66.871,0h63.127a34.5,34.5,0,0,0,66.871,0h27.23A8.667,8.667,0,0,0,520,485.324V415.992A8.673,8.673,0,0,0,519.082,412.116ZM320.666,502.658A17.333,17.333,0,1,1,338,485.324,17.332,17.332,0,0,1,320.666,502.658Zm95.332-26H354.1a34.5,34.5,0,0,0-66.871,0H260V337.994H416Zm52-104h11.976l17.334,34.666H468Zm-17.333,130A17.333,17.333,0,1,1,468,485.324,17.332,17.332,0,0,1,450.664,502.658Zm52-26H484.1a34.633,34.633,0,0,0-33.435-26,34.259,34.259,0,0,0-17.333,4.823V372.66h17.333v43.333a8.667,8.667,0,0,0,8.667,8.667h43.333Z" fill="#fff"/>
        </g>
      </g>
      <g id="Group_946" data-name="Group 946">
        <g id="Group_945" data-name="Group 945">
          <rect id="Rectangle_571" data-name="Rectangle 571" width="17.324" height="17.333" transform="translate(190.669 121.331)" fill="#fff"/>
        </g>
      </g>
      <g id="Group_948" data-name="Group 948">
        <g id="Group_947" data-name="Group 947">
          <rect id="Rectangle_572" data-name="Rectangle 572" width="17.324" height="17.333" transform="translate(225.335 121.331)" fill="#fff"/>
        </g>
      </g>
      <g id="Group_950" data-name="Group 950">
        <g id="Group_949" data-name="Group 949">
          <rect id="Rectangle_573" data-name="Rectangle 573" width="17.324" height="17.333" transform="translate(260.001 121.331)" fill="#fff"/>
        </g>
      </g>
      <g id="Group_952" data-name="Group 952">
        <g id="Group_951" data-name="Group 951">
          <rect id="Rectangle_574" data-name="Rectangle 574" width="17.324" height="17.333" transform="translate(294.667 121.331)" fill="#fff"/>
        </g>
      </g>
      <g id="Group_954" data-name="Group 954">
        <g id="Group_953" data-name="Group 953">
          <path id="Path_2493" data-name="Path 2493" d="M477.416,144.758,450.566,117.9a106.819,106.819,0,0,0-75.214-31.238H308.137L267.351,21.408A8.674,8.674,0,0,0,260,17.333H234a8.671,8.671,0,0,0-8.409,10.77l14.641,58.562H171.118L146.972,6.178A8.668,8.668,0,0,0,138.67,0H95.337a8.667,8.667,0,0,0-8.667,8.667V95.332h.081a8.6,8.6,0,0,0,2.458,6.127l54.166,54.166a118.7,118.7,0,0,0,84.472,35.039h2.361l-21.534,48.483a8.667,8.667,0,0,0,4.4,11.438q.382.169.778.3l25.982,8.667a8.671,8.671,0,0,0,9.843-3.254l45.915-65.634H458.378a26.88,26.88,0,0,0,19.038-45.905ZM255.2,34.666l32.5,52H258.1l-13-52ZM104,17.333h28.217l20.8,69.332H104ZM239.185,241.062l-10.8-3.6,28.484-64.131h29.694Zm228.084-73.673a9.422,9.422,0,0,1-8.891,5.941H307.72l2.587-3.7a8.668,8.668,0,0,0-7.1-13.635H251.24a8.666,8.666,0,0,0-7.921,5.15l-5.411,12.183h-10.06a101.485,101.485,0,0,1-72.218-29.96L116.258,104H375.352a89.368,89.368,0,0,1,52.508,17.333H364v17.333h82.81l18.374,18.374A9.3,9.3,0,0,1,467.269,167.389Z" fill="#fff"/>
        </g>
      </g>
      <g id="Group_956" data-name="Group 956">
        <g id="Group_955" data-name="Group 955">
          <path id="Path_2494" data-name="Path 2494" d="M212.449,496.289a34.633,34.633,0,0,0-20.711-10.719l33.093-92.661a8.675,8.675,0,0,0-5.263-11.083l-.158-.054-21.133-7.045-16.414-90.28a8.666,8.666,0,0,0-8.527-7.117H138.67v-26A8.667,8.667,0,0,0,130,242.662H95.337a8.667,8.667,0,0,0-8.667,8.667v26H52a8.666,8.666,0,0,0-8.527,7.117l-16.414,90.28L5.93,381.771A8.675,8.675,0,0,0,.455,392.75c.017.053.036.105.054.158L33.6,485.573a34.645,34.645,0,0,0-20.677,10.716,16.844,16.844,0,0,1-12.92,6.369v17.333a33.651,33.651,0,0,0,24.667-10.96A16.844,16.844,0,0,1,37.6,502.658a14.223,14.223,0,0,1,5.35,1c.073.033.119.1.193.132a26.821,26.821,0,0,1,7.3,5.341,34.077,34.077,0,0,0,24.743,10.862A33.633,33.633,0,0,0,99.84,509.026a16.24,16.24,0,0,1,25.788,0,33.6,33.6,0,0,0,24.645,10.969A34.018,34.018,0,0,0,175,509.124a26.845,26.845,0,0,1,7.232-5.315c.078-.033.128-.106.2-.141a14.147,14.147,0,0,1,5.369-1.01,16.771,16.771,0,0,1,12.886,6.369,33.624,33.624,0,0,0,24.649,10.964V502.659A16.775,16.775,0,0,1,212.449,496.289ZM104,260h17.333v17.333H104Zm0,226.459a37.317,37.317,0,0,0-15.919,9.834,16.267,16.267,0,0,1-25.818,0,49.213,49.213,0,0,0-8.889-6.889L19.809,395.414,104,367.352Zm5.925-139.35L45.817,368.475l13.42-73.814H166.1l13.42,73.814L115.412,347.1A8.68,8.68,0,0,0,109.928,347.1Zm62.016,142.352a49.369,49.369,0,0,0-8.79,6.837,16.218,16.218,0,0,1-25.762,0,37.1,37.1,0,0,0-16.055-9.887V367.352l84.194,28.062Z" fill="#fff"/>
        </g>
      </g>
      <g id="Group_958" data-name="Group 958">
        <g id="Group_957" data-name="Group 957">
          <rect id="Rectangle_575" data-name="Rectangle 575" width="17.324" height="17.333" transform="translate(329.333 121.331)" fill="#fff"/>
        </g>
      </g>
    </g>
  </g>
</svg>
